<svg width="100" height="100" viewBox="0 0 100 100" fill="none" xmlns="http://www.w3.org/2000/svg">
<g clip-path="url(#clip0_147_908)">
<path d="M16.1182 0.484375C20.1551 -0.883704 24.5846 0.863692 27.9648 3.00586C28.9432 3.70918 29.8478 4.46448 30.7373 5.27637L31.2666 5.75293C37.6958 11.8524 41.8566 21.1605 44.3477 29.4854L44.499 29.9902C45.7633 34.293 47.1201 39.1067 47.1201 43.6084H53.9258C54.0089 42.5265 54.0505 41.8496 54.1777 40.96C54.3037 40.0775 54.4473 39.0204 54.6191 38.375L54.7529 37.8701C54.894 37.3442 55.0404 36.8196 55.1865 36.2949L55.3281 35.7666C56.7854 30.3464 58.9611 25.3006 62.4961 20.9111L62.8691 20.4121C64.7557 17.9934 67.7937 15.929 70.8135 15.3633C75.4764 14.859 79.0059 16.2441 82.6123 19.2412C83.8736 20.3224 85.4325 21.9201 86.0625 22.9287L86.6924 23.9375C88.4567 27.2158 89.5969 29.7648 89.6064 33.0166L89.6084 33.6006C89.5504 35.5797 89.0542 37.4687 87.6572 38.9238C85.7973 40.5263 83.8562 40.8235 81.4639 40.7031C79.8789 40.5621 78.5239 40.0423 77.1143 39.3203L76.4297 38.9766C73.3187 37.2052 70.3617 34.0825 68.5449 30.999C68.4613 30.8568 68.4214 30.7535 68.4189 30.7471C64.834 34.0077 62.8814 38.909 61.9912 43.6084L62.417 43.6045C63.8846 43.5932 65.3525 43.5856 66.8203 43.5801C67.3672 43.5776 67.9143 43.5746 68.4609 43.5703C69.2501 43.5643 70.0392 43.5606 70.8281 43.5586L71.5615 43.5508C76.1528 43.5501 79.8705 45.4556 83.1953 48.541C84.1651 49.5453 84.9294 50.601 85.6523 51.7881L85.9258 52.2344C87.1958 54.4319 87.8347 56.7825 88.2246 59.2734L88.3564 60.0703C88.4494 60.6326 88.5402 61.1953 88.6309 61.7578C88.8712 63.2515 89.1203 64.7439 89.3682 66.2363L89.5195 67.1514C90.0067 70.0898 90.5337 73.0208 91.0723 75.9502L91.1963 76.6279C91.2759 77.0614 91.3557 77.495 91.4355 77.9287C91.5726 78.6743 91.7084 79.4211 91.8447 80.167L91.8779 80.3477C91.9862 80.9361 92.0964 81.5244 92.207 82.1123C92.5418 83.9149 92.844 85.6635 92.8203 87.5039L92.8232 88.0137C92.7867 91.4523 91.3378 94.5101 88.9365 96.9102C87.9273 97.8275 86.9177 98.5106 85.6846 99.0879L85.1553 99.3457C82.9878 100.233 80.352 100.174 78.1543 99.4355C74.2393 97.77 72.2049 94.6041 69.9912 91.1592L69.9307 91.0654C69.7024 90.7126 69.4739 90.3602 69.2451 90.0078C68.8008 89.3229 68.3567 88.6373 67.9131 87.9521L67.2842 86.9834L66.9814 86.5146C66.7034 86.086 66.4229 85.6588 66.1426 85.2314L65.665 84.501C65.3126 83.9322 65.144 83.7308 64.7637 83.7051C64.3834 83.6792 64.0021 83.6685 63.6211 83.666L62.8916 83.6592L62.0889 83.6562L61.2461 83.6504C60.3219 83.6441 59.3976 83.6393 58.4736 83.6357L57.5195 83.6318C56.196 83.6263 54.8723 83.6219 53.5488 83.6191C51.6522 83.6151 49.7557 83.6071 47.8594 83.5928C46.3651 83.5817 44.8702 83.5777 43.376 83.5762C42.7406 83.5744 42.1051 83.5705 41.4697 83.5645C40.5808 83.5564 39.6917 83.5559 38.8027 83.5576L38.0049 83.5459C36.5155 83.5542 35.7665 83.6116 35.2549 84.3066C34.57 85.2379 34.5691 85.2382 33.9258 86.1982L33.4688 86.9092L32.9902 87.6611C32.6539 88.1826 32.317 88.7041 31.9805 89.2256L31.4756 90.0107C30.7733 91.1017 30.0647 92.1893 29.3506 93.2725L29.0029 93.8086C26.816 97.1189 24.3522 99.0213 20.4033 99.8447C17.4518 100.223 14.8915 99.4401 12.5107 97.6699C10.0895 95.5744 8.50094 92.9327 8.05273 89.7578C7.8235 85.9936 8.37663 82.4354 9.04492 78.7402C9.14745 78.1568 9.24954 77.5727 9.35156 76.9893C9.66766 75.1916 9.99335 73.3959 10.3213 71.6006L10.4814 70.7246C11.1303 67.1788 11.79 63.6349 12.4736 60.0957C12.5842 59.5216 12.6939 58.9467 12.8027 58.3721C12.8674 58.0353 12.9319 57.6988 12.9971 57.3623L13.1611 56.502C14.1562 52.2379 16.8964 48.5741 20.5137 46.1611C24.3954 43.8543 27.8849 43.5318 32.2812 43.5762C32.719 43.5787 33.157 43.581 33.5947 43.583C34.6585 43.5885 35.7223 43.5981 36.7861 43.6084C35.9546 41.4003 35.1025 39.3275 33.7939 37.3506L33.3945 36.7344C32.4237 35.2532 31.3967 33.8485 30.2334 32.5117L29.748 31.9082C27.6338 29.3786 24.887 27.5372 22.1045 25.8135C20.3306 24.7081 18.8548 23.3946 17.3789 21.9199L16.7012 21.251C15.0513 19.5376 13.9199 17.7148 12.8418 15.6152L12.5195 15.002C11.0953 12.0713 10.4727 8.50931 11.4395 5.35449C12.3309 3.19076 13.9904 1.44462 16.1182 0.484375ZM71.1084 46.2969C70.8298 46.2966 70.5509 46.2962 70.2637 46.2959C69.3069 46.2951 68.3493 46.2968 67.3926 46.2988C67.0536 46.2993 66.7137 46.3003 66.375 46.3008C64.158 46.3048 61.9407 46.3122 59.7236 46.3213C58.0504 46.3278 56.3764 46.3336 54.7031 46.3379C51.3246 46.3465 47.9459 46.3583 44.5674 46.377C42.8432 46.3865 41.118 46.3947 39.3936 46.3984C37.7423 46.402 36.0907 46.4108 34.4395 46.4229C33.8232 46.4266 33.2061 46.4285 32.5898 46.4287C31.7356 46.4292 30.8813 46.4363 30.0273 46.4443C29.6569 46.4426 29.6559 46.4424 29.2783 46.4404C25.7588 46.4932 22.8221 48.1769 20.3174 50.5654C16.3816 54.7129 15.558 60.5167 15.5312 66.0264C15.5297 66.2669 15.5286 66.508 15.5273 66.7559C15.5635 70.2652 16.7901 73.4393 19.1367 76.0547C19.2926 76.231 19.4489 76.4073 19.6094 76.5889C20.6587 77.7079 21.7524 78.5035 23.0918 79.248C23.6633 79.5775 24.4264 80.0286 24.6787 80.3369C25.0038 80.7345 25.0037 81.113 24.8047 81.5967C24.5528 82.1004 24.1745 82.2109 23.5293 82.2109C21.9075 82.2265 18.614 79.7101 16.9893 77.8438C16.7068 77.4787 16.438 77.1108 16.1807 76.7393C16.1826 76.7278 16.1856 76.7156 16.1875 76.7041C16.0064 76.4521 15.6833 75.8228 15.3057 75.1934C14.8019 74.3538 14.1718 73.4293 13.9199 72.0439C13.9199 73.4294 10.3941 86.277 11.6533 90.8115C12.4843 93.3931 13.9999 95.0609 16.2969 96.3926C18.4317 97.4749 20.7212 97.2342 22.7363 96.6045C23.0826 96.4962 23.6074 96.2313 23.9844 95.8594C24.1748 95.7474 24.3657 95.6292 24.5527 95.499C26.6655 93.7234 28.0628 91.1507 29.5439 88.8545C29.6571 88.679 29.7701 88.503 29.8867 88.3223C30.0025 88.1428 30.119 87.9633 30.2383 87.7783C30.3571 87.5946 30.4763 87.4102 30.5986 87.2207C30.8617 86.8129 31.1237 86.4035 31.3848 85.9941C31.8051 85.3388 32.233 84.6874 32.6611 84.0371C32.8534 83.733 32.8535 83.732 33.0498 83.4219C33.1766 83.2314 33.3047 83.04 33.4355 82.8438C33.5444 82.6762 33.6215 82.5158 33.7656 82.335C34.7549 81.0936 36.5499 80.7252 38.3682 80.707C38.6333 80.7095 38.8987 80.7126 39.1719 80.7148C39.4569 80.7136 39.7428 80.7124 40.0361 80.7109C40.9734 80.7079 41.9104 80.7113 42.8477 80.7158C43.5013 80.7158 44.156 80.7153 44.8096 80.7148C46.1773 80.7143 47.5453 80.7176 48.9131 80.7236C50.4912 80.7302 52.0703 80.7306 53.6484 80.7275C55.1715 80.7248 56.6949 80.7269 58.2178 80.7305C58.8637 80.7315 59.5103 80.7315 60.1562 80.7305C61.0591 80.7297 61.9624 80.7337 62.8652 80.7393C63.1311 80.7383 63.3979 80.7373 63.6719 80.7363C65.3354 80.753 67.0378 80.861 67.9766 81.9844C69.3489 83.627 70.4904 85.4182 71.6426 87.2178C74.1132 91.6039 76.6137 94.5053 78.1162 95.7217C78.0862 95.7219 78.0568 95.7235 78.0293 95.7236C78.4071 96.1014 78.8472 96.3483 79.1631 96.4785C81.3042 97.3601 83.5939 97.349 85.7285 96.2666C88.0256 94.9349 89.5421 93.2671 90.373 90.6855C90.6166 89.8086 90.6835 88.6152 90.6367 87.252C90.6229 84.583 90.166 82.0854 89.6855 79.5342C89.5901 79.0139 89.4948 78.4929 89.4004 77.9727C89.2271 77.0266 89.0535 76.0801 88.876 75.1348C88.8407 74.9472 88.8048 74.7588 88.7686 74.5654C88.6709 74.0848 88.5572 73.6104 88.4355 73.1357C88.3091 72.4714 88.2314 72.0003 88.2314 71.792C88.2314 72.7993 87.136 74.5715 86.8467 75.0674C86.5903 75.5865 85.9658 76.4511 85.8389 76.7041C85.8416 76.7203 85.8449 76.7369 85.8477 76.7529C84.1623 79.0589 81.9384 81.0613 79.167 82.3174C79.1163 82.3405 79.062 82.3586 79.0068 82.3682C78.4627 82.4624 78.2137 82.3517 77.8779 82.1318C77.8462 82.1112 77.8155 82.0877 77.7881 82.0615C77.0501 81.3583 77.1978 80.6239 77.5469 80.1289C77.5672 80.0999 77.5909 80.0719 77.6162 80.0469C78.0855 79.5837 78.1718 79.6217 78.9326 79.251C82.5685 77.2977 84.8184 74.3941 86.1436 70.5127C87.5494 65.747 86.8608 59.2247 84.7207 54.7607C84.6084 54.5555 84.4957 54.3502 84.3799 54.1387C84.2573 53.9129 84.1344 53.6869 84.0078 53.4541C82.2793 50.4402 80.0017 48.5112 76.8223 47.0859C76.6094 46.9873 76.3969 46.8885 76.1777 46.7871C74.5324 46.2385 72.8228 46.2936 71.1084 46.2969ZM22.8779 3.79395C20.4526 2.95273 17.8248 3.27511 16.0615 5.03809C14.8021 6.5494 14.8341 8.20369 15.0537 10.0762C16.2745 16.2642 20.828 20.4822 25.7549 23.9541C32.449 28.6699 37.2878 34.0694 40.1494 41.8633C40.3526 42.4467 40.5506 43.013 40.748 43.5791H44.5264C44.5263 38.9801 43.0808 34.1157 41.6768 29.751C41.6179 29.5708 41.561 29.3953 41.5039 29.2207C39.4113 22.8104 36.3777 16.2809 32.1924 10.957C32.0181 10.7433 31.8489 10.5356 31.6797 10.3281C29.7391 7.86947 27.416 6.05889 24.6221 4.64551C24.3664 4.52209 24.1182 4.40187 23.8701 4.28223C23.5432 4.1122 23.2129 3.94785 22.8779 3.79395ZM80.5488 20.9082C76.7324 17.9769 72.2924 17.3933 68.2051 20.1523C61.4325 25.8445 58.8208 35.1627 57.625 43.5791H59.3887C60.6326 38.715 62.7801 33.9693 65.1826 29.8506C66.064 28.3397 65.9378 28.5745 66.5674 27.709C67.197 26.8432 67.5752 26.4492 67.5752 26.4492L67.7998 23.6865C67.842 23.1716 68.5391 23.0465 68.7578 23.5146L70.5986 27.457C70.5986 27.457 72.5574 30.6901 74.5293 32.8789C77.0415 35.5545 79.7138 37.4608 83.4766 37.6279C84.7082 37.6007 85.4244 37.3979 86.3428 36.5254C87.1987 35.2853 87.3473 33.9714 87.3496 32.4951C86.9582 27.9774 83.9311 23.7604 80.5488 20.9082Z" fill="black"/>
<path d="M49.6508 71.9444C49.8609 71.9434 50.071 71.9424 50.2874 71.9413C50.6151 71.9456 50.6151 71.9456 50.9496 71.9502C51.1683 71.9471 51.3867 71.9444 51.6119 71.9413C51.927 71.9429 51.927 71.9429 52.2484 71.9444C52.5361 71.9456 52.5361 71.9456 52.8296 71.9469C53.7601 71.9509 53.9725 72.2965 54.0984 72.6744C54.2244 73.4301 54.2244 73.682 54.0984 74.4377C53.9725 74.9415 53.8203 75.1383 52.8296 75.1461C52.5968 75.1453 51.331 75.1471 51.0912 75.1461C50.7438 75.1524 50.7438 75.1524 50.3891 75.1584C50.0554 75.1587 50.0553 75.1587 49.7148 75.1589C49.5107 75.1597 49.2704 75.1453 49.0603 75.1461C48.3888 75.0297 48.1787 74.8156 48.0527 74.4377C47.9268 73.808 47.9268 73.3041 48.0527 72.6744C48.3046 71.9187 48.9641 71.9474 49.6508 71.9444Z" fill="black"/>
<path d="M50.9496 70.2813C51.993 70.2813 52.8389 69.379 52.8389 68.266C52.8389 67.153 51.993 66.2508 50.9496 66.2508C49.9062 66.2508 49.0603 67.153 49.0603 68.266C49.0603 69.379 49.9062 70.2813 50.9496 70.2813Z" fill="black"/>
<path d="M38.7607 49.877C38.9096 49.877 39.0494 49.9205 39.1729 50.0039C40.0726 50.613 42.4956 52.2904 43.5791 53.0537C43.7786 53.1943 43.8965 53.4229 43.8965 53.667V59.876C43.8965 60.0075 43.8621 60.1398 43.7969 60.2539C43.444 60.8717 43.3653 61.0099 42.9697 61.7217C42.8413 61.9525 42.8426 62.2339 42.9727 62.4639C43.1603 62.7949 43.458 63.3231 43.8008 63.9385C43.8632 64.0505 43.8965 64.1814 43.8965 64.3096V70.6436C43.8965 70.8901 43.7761 71.1211 43.5742 71.2627L41.377 72.8008L39.3008 74.1846C39.1767 74.2674 39.0309 74.3115 38.8818 74.3115H29.1602L29.1777 74.3047C28.885 74.3069 28.5853 74.3115 28.2783 74.3115C25.1419 74.3115 25.1299 72.3272 25.1299 72.2969L25.1191 67.5029C25.1182 67.0864 24.7801 66.749 24.3633 66.749H22.4844C21.8078 66.7618 19.8398 66.3765 19.8398 64.8652V59.3232C19.84 57.8121 21.6027 57.4346 22.4844 57.4346H24.374C24.7914 57.4345 25.1299 57.097 25.1299 56.6797V52.7744C25.1299 51.7669 25.1296 49.8772 26.8926 49.877H38.7607ZM29.0605 52.3965C28.6433 52.3965 28.3049 52.7322 28.3047 53.1494V58.8271C28.3047 59.5223 27.7417 60.0862 27.0469 60.0869C25.6876 60.0879 23.7054 60.0887 23.6396 60.0859C23.2022 60.1806 23.1143 60.3693 23.1143 60.7471V63.7451C23.1143 64.3124 23.9902 64.3086 23.9902 64.3086C24.0057 64.3088 25.7359 64.337 27.0088 64.3525C27.7184 64.3614 28.3047 64.9483 28.3047 65.6582V70.4072C28.3047 71.5408 28.1214 71.8135 30.8447 71.8135H38.2383C38.3958 71.8134 38.5496 71.7645 38.6777 71.6729L41.3574 69.7549C41.4436 69.7138 41.4939 69.6788 41.5029 69.6514V64.6768C41.5028 64.4764 41.4233 64.2811 41.2793 64.1416C40.4547 63.3434 40.2233 63.279 39.5312 62.5439C39.3462 62.3473 39.2796 62.0535 39.4434 61.8389C39.7089 61.4917 40.2237 61.0633 41.2998 59.9189C41.4305 59.7802 41.5029 59.5951 41.5029 59.4043V55.0605C41.5028 54.8118 41.3797 54.5787 41.1748 54.4375C39.5596 53.3236 39.3128 53.1281 38.2822 52.5049C38.1649 52.4341 38.0335 52.3965 37.8965 52.3965H29.0605ZM34.9922 64.4893C36.4699 64.4943 37.1161 64.4891 37.1162 65.7539V67.707C37.1161 68.4623 36.944 68.6699 35.5264 68.6699C34.5188 68.6699 35.1507 68.6869 34.251 68.667C33.9741 68.6683 33.974 68.6687 33.6914 68.6699C32.3191 68.6561 31.6809 68.5882 31.6807 67.707V65.7539C31.6849 64.3653 32.5912 64.4933 33.7939 64.4893C33.9915 64.4913 34.189 64.4931 34.3926 64.4951C34.6891 64.4923 34.6897 64.4923 34.9922 64.4893ZM34.9922 55.9238C36.47 55.9289 37.1162 55.9244 37.1162 57.1895V59.1416C37.1162 59.8973 36.9443 60.1045 35.5264 60.1045C34.5188 60.1045 35.1507 60.1224 34.251 60.1025C33.9741 60.1038 33.974 60.1032 33.6914 60.1045C32.3188 60.0906 31.6807 60.0233 31.6807 59.1416V57.1895C31.6847 55.8006 32.5911 55.9279 33.7939 55.9238C33.9915 55.9258 34.189 55.9277 34.3926 55.9297C34.6891 55.9269 34.6897 55.9269 34.9922 55.9238Z" fill="black"/>
<path d="M75.3848 49.877C77.1477 49.8772 77.1475 51.7669 77.1475 52.7744V56.6797C77.1475 57.0971 77.486 57.4345 77.9033 57.4346H79.793C80.6747 57.4346 82.4373 57.8122 82.4375 59.3232V64.8652C82.4375 66.3765 80.4696 66.7618 79.793 66.749H77.9141C77.4973 66.749 77.1592 67.0864 77.1582 67.5029L77.1475 72.2969C77.1475 72.3272 77.1354 74.3115 73.999 74.3115C73.6917 74.3115 73.3916 74.3069 73.0986 74.3047L73.1172 74.3115H63.3955C63.2465 74.3115 63.1007 74.2674 62.9766 74.1846L60.8994 72.8008L58.7031 71.2627C58.5012 71.1211 58.3809 70.8901 58.3809 70.6436V64.3096C58.3809 64.1814 58.4141 64.0505 58.4766 63.9385C58.8194 63.3231 59.117 62.7948 59.3047 62.4639C59.4347 62.234 59.436 61.9525 59.3076 61.7217C58.912 61.0098 58.8333 60.8717 58.4805 60.2539C58.4152 60.1398 58.3809 60.0075 58.3809 59.876V53.667C58.3809 53.4231 58.4981 53.1943 58.6973 53.0537C59.7807 52.2904 62.2047 50.613 63.1045 50.0039C63.228 49.9205 63.3677 49.877 63.5166 49.877H75.3848ZM64.3809 52.3965C64.2438 52.3965 64.1115 52.4341 63.9941 52.5049C62.964 53.1278 62.7174 53.3239 61.1025 54.4375C60.8976 54.5787 60.7736 54.8118 60.7734 55.0605V59.4043C60.7735 59.5952 60.8468 59.7802 60.9775 59.9189C62.0537 61.0633 62.5685 61.4917 62.834 61.8389C62.9976 62.0535 62.9311 62.3473 62.7461 62.5439C62.054 63.279 61.8226 63.3435 60.998 64.1416C60.8541 64.2811 60.7736 64.4764 60.7734 64.6768V69.6514C60.7825 69.6788 60.8331 69.7139 60.9189 69.7549L63.5996 71.6729C63.7277 71.7645 63.8815 71.8134 64.0391 71.8135H71.4326C74.1558 71.8135 73.9727 71.5407 73.9727 70.4072V65.6582C73.9727 64.9485 74.5581 64.3616 75.2676 64.3525C76.5462 64.3369 78.2871 64.3086 78.2871 64.3086C78.2958 64.3086 79.1631 64.3096 79.1631 63.7451V60.7471C79.163 60.3693 79.075 60.1806 78.6377 60.0859C78.5719 60.0887 76.5897 60.0879 75.2305 60.0869C74.5356 60.0863 73.9727 59.5223 73.9727 58.8271V53.1494C73.9724 52.7322 73.6341 52.3965 73.2168 52.3965H64.3809ZM68.4834 64.4893C69.6861 64.4933 70.5925 64.3653 70.5967 65.7539V67.707C70.5965 68.5882 69.9581 68.6561 68.5859 68.6699C68.3034 68.6687 68.303 68.6683 68.0264 68.667C67.1266 68.6869 67.7583 68.6699 66.751 68.6699C65.3333 68.6699 65.1612 68.4624 65.1611 67.707V65.7539C65.1613 64.489 65.8073 64.4943 67.2852 64.4893C67.5877 64.4923 67.5883 64.4923 67.8848 64.4951C68.0883 64.4931 68.2859 64.4913 68.4834 64.4893ZM68.4834 55.9238C69.6862 55.9279 70.5926 55.8006 70.5967 57.1895V59.1416C70.5967 60.0232 69.9584 60.0906 68.5859 60.1045C68.3034 60.1032 68.303 60.1038 68.0264 60.1025C67.1266 60.1224 67.7583 60.1045 66.751 60.1045C65.333 60.1045 65.1611 59.8973 65.1611 59.1416V57.1895C65.1612 55.9243 65.8071 55.9289 67.2852 55.9238C67.5877 55.9269 67.5883 55.9269 67.8848 55.9297C68.0883 55.9277 68.2859 55.9258 68.4834 55.9238Z" fill="black"/>
</g>
<defs>
<clipPath id="clip0_147_908">
<rect width="100" height="100" fill="white"/>
</clipPath>
</defs>
</svg>
