<svg width="100" height="100" viewBox="0 0 100 100" fill="none" xmlns="http://www.w3.org/2000/svg">
<g clip-path="url(#clip0_143_11)">
<g style="mix-blend-mode:hard-light">
<path d="M14.0207 40.6688C11.0185 34.0501 7.99603 27.4355 5.00995 20.8062C3.95806 18.4698 5.20578 15.701 7.5559 15.0187C7.92132 14.9117 9.02572 15.2958 9.50422 15.3567C18.2545 16.4805 27.0049 17.6077 35.7552 18.7385C35.8104 18.7455 35.8245 18.7749 35.7976 18.8267C35.7572 18.9009 35.7182 18.9659 35.6804 19.0219C30.7379 26.4475 25.8063 33.8807 20.8852 41.3217C18.7997 44.4747 15.5431 44.0213 14.0207 40.6688Z" fill="#94F2E9"/>
<path d="M37.1883 21.3354C36.6651 20.1799 36.2732 19.3259 36.0123 18.7733C35.9936 18.7341 36.0057 18.7166 36.0486 18.7208L69.6303 23.0665C69.7002 23.0749 69.7097 23.1051 69.6585 23.157C69.5637 23.2516 69.4286 23.3547 69.358 23.462C64.4676 30.8788 59.578 38.2964 54.689 45.7146C53.6201 47.3365 51.6777 48.4659 49.8141 47.2901C48.5798 46.5119 48.0493 45.2708 47.3011 43.6237C43.9287 36.1957 40.5579 28.7663 37.1883 21.3354Z" fill="#94F2E9"/>
<path d="M70.9105 24.4545C70.6578 23.8962 70.4163 23.4715 70.1864 23.1804C70.1649 23.1524 70.171 23.1405 70.2045 23.1447C78.9399 24.2796 87.6766 25.4048 96.4147 26.5201C97.2712 26.6307 97.8756 26.7888 98.2281 26.9945C99.7207 27.8657 100.253 29.967 99.8902 31.5874C99.7717 32.1136 99.4383 32.7931 98.8897 33.6257C95.5977 38.6216 92.3011 43.6141 88.9998 48.6031C87.727 50.528 85.9177 52.2535 83.6161 50.6812C82.8645 50.1663 82.3011 49.498 81.9259 48.6765C78.2493 40.6046 74.5776 32.5307 70.9105 24.4545Z" fill="#94F2E9"/>
<path d="M2.19329 81.701C1.27867 81.2212 0.668711 80.4869 0.363393 79.4983C0.232254 79.0725 -0.0784438 78.3697 0.018397 77.795C0.145501 77.044 0.567163 76.1588 1.01102 75.4057C4.32512 69.7881 7.64462 64.1739 10.9695 58.5633C11.3703 57.8879 11.9177 57.3458 12.6118 56.9375C14.8432 55.6286 16.8526 56.9921 17.9864 59.0059C22.4775 66.9898 26.9644 74.9756 31.4473 82.9637C31.4863 83.0337 31.4674 83.0673 31.3908 83.0644C22.2448 82.7568 13.098 82.419 3.95055 82.0512C3.16506 82.0204 2.5793 81.9037 2.19329 81.701Z" fill="#94F2E9"/>
<path d="M48.4024 57.1688C50.3703 56.0808 52.5318 57.7579 53.5288 59.555C58.1351 67.864 62.7459 76.1487 67.3614 84.4086C67.3869 84.4536 67.3748 84.4746 67.3251 84.4719L32.3299 83.1651C32.2373 83.1609 32.2157 83.1181 32.2654 83.0367C36.9804 75.0207 41.7093 66.9831 46.4524 58.9236C46.8459 58.2545 47.496 57.6696 48.4024 57.1688Z" fill="#94F2E9"/>
<path d="M99.8537 80.522C100.363 82.4212 99.5094 84.5287 97.7781 85.4426C97.4695 85.6065 97.0996 85.6849 96.6688 85.678C94.2369 85.6401 91.5032 85.3607 89.3894 85.2829C82.2413 85.0168 75.0705 84.7465 67.8768 84.4719C67.7588 84.4663 67.7306 84.411 67.7922 84.3059C72.4816 76.3485 77.185 68.3616 81.9025 60.3453C82.8527 58.7274 84.8518 57.5845 86.6252 58.4018C88.0607 59.0637 88.719 60.2949 89.6571 61.9715C92.6379 67.3055 95.6181 72.6409 98.5975 77.9776C99.333 79.2928 99.7517 80.1409 99.8537 80.522Z" fill="#94F2E9"/>
</g>
</g>
<defs>
<clipPath id="clip0_143_11">
<rect width="100" height="100" fill="white"/>
</clipPath>
</defs>
</svg>
