<svg width="100" height="100" viewBox="0 0 100 100" fill="none" xmlns="http://www.w3.org/2000/svg">
<g clip-path="url(#clip0_490_44)">
<path d="M50.0166 99.9336C54.2822 99.9336 56.2737 99.7377 60.0645 98.9697C79.5068 95.0486 95.0281 79.5263 98.9492 60.084C99.7172 56.2933 99.9141 54.3019 99.9141 50.0361C99.9141 45.7702 99.7172 43.7782 98.9492 39.9873C95.0933 20.8555 79.9967 5.49769 60.9629 1.29883C55.9793 0.187739 50.9795 -0.172366 46.0947 0.219727C31.4883 1.37981 18.254 8.81441 9.57812 20.709C-2.96922 37.913 -3.11628 61.4727 9.21875 78.8564C16.6039 89.2643 27.6328 96.4864 39.9678 98.9697C43.7586 99.7377 45.7507 99.9336 50.0166 99.9336ZM50.0166 98.5947C43.8896 98.5947 38.8835 97.7446 33.5166 95.7891L32.4375 95.3828C18.3977 89.911 7.45462 77.9525 3.24414 63.4541C1.99875 59.1936 1.45802 55.0476 1.45801 50.0361C1.45801 43.5005 2.42448 38.2402 4.66895 32.457C11.2219 15.6161 27.1124 3.42744 44.6924 1.70703H44.6934C45.6907 1.62528 46.7841 1.51148 47.1465 1.47852V1.47754C47.7083 1.41975 49.4111 1.43242 51.1719 1.48145C52.7138 1.52438 54.3079 1.59622 55.2324 1.67383L55.5859 1.70703C74.9668 3.95148 91.3163 17.7956 96.7881 36.6191C98.0333 40.8795 98.5742 45.0248 98.5742 50.0361C98.5742 55.0474 98.0343 59.1928 96.7891 63.4531C92.5787 77.9518 81.6348 89.911 67.5947 95.3828C61.8117 97.6272 56.552 98.5947 50.0166 98.5947Z" fill="black" stroke="black" stroke-width="0.133333"/>
<mask id="path-2-inside-1_490_44" fill="white">
<path d="M46.2534 4.06379C45.9425 4.12923 44.8955 4.27647 43.9302 4.39099L42.1633 4.60367L42.1306 7.79392L42.0815 11.0005L40.7727 11.295C40.0529 11.4586 39.0385 11.7204 38.4986 11.8676C37.6806 12.113 37.5334 12.113 37.4025 11.9003C37.3207 11.7694 36.699 10.706 36.0282 9.54446C35.3411 8.36652 34.6703 7.25403 34.5395 7.05771L34.3104 6.69778L33.4597 6.99227C31.431 7.69575 27.4064 9.75714 24.8542 11.3768C23.8726 12.0148 20.5678 14.567 20.5678 14.6979C20.5678 14.7797 21.2386 15.9904 22.0403 17.381C22.8583 18.7716 23.5127 20.0314 23.5127 20.1622C23.5127 20.2931 23.1037 20.7512 22.5802 21.1929C22.073 21.6183 21.3531 22.3054 20.9768 22.6981L20.2897 23.4179L17.5576 21.831C16.0524 20.9639 14.7927 20.2604 14.76 20.2604C14.6945 20.2604 12.9603 22.5017 11.9624 23.8924C10.31 26.1664 6.64531 33.5122 6.89071 34.0684C6.92343 34.1666 8.10137 34.9028 9.50834 35.7044C10.9153 36.5061 12.1096 37.2259 12.1587 37.3077C12.2078 37.3732 12.0442 38.0439 11.7988 38.7965C11.5534 39.5327 11.2752 40.498 11.1607 40.9561L10.9808 41.7741L7.80688 41.8559L4.633 41.9377L4.50212 42.4285C4.20764 43.4592 3.88043 47.4511 3.88043 49.9542C3.88043 52.4736 3.97859 53.8643 4.3876 56.6128L4.56756 57.8889H7.74144H10.899L11.0462 58.4942C11.128 58.8378 11.357 59.7376 11.5534 60.5065C11.7497 61.2754 11.946 62.0444 11.9951 62.2243C12.0605 62.5025 11.6515 62.7969 9.3611 64.1058C7.88868 64.9565 6.66167 65.7254 6.66167 65.7909C6.66167 66.0199 7.47968 68.0159 8.23225 69.6192C9.0339 71.337 11.0135 74.789 11.7824 75.8524C13.8929 78.7318 14.5473 79.5007 14.8091 79.4026C14.9727 79.3535 16.1669 78.6827 17.4758 77.9138C18.7846 77.1612 19.9789 76.5395 20.1098 76.5395C20.257 76.5395 20.4697 76.7031 20.6006 76.8994C20.7478 77.1121 21.4022 77.8483 22.0893 78.5355L23.3327 79.7952L21.8767 82.331C21.0587 83.7217 20.3552 84.965 20.3061 85.0959C20.0443 85.783 26.8338 90.2003 30.9893 92.0326C32.2654 92.5889 33.4924 93.0961 33.7051 93.1451C34.0487 93.2433 34.2123 93.0143 35.6029 90.5766C36.4536 89.1042 37.1571 87.8771 37.1898 87.8444C37.2225 87.8117 38.1551 88.0407 39.2512 88.3843C40.3637 88.7115 41.3944 88.9733 41.5416 88.9733C41.8034 88.9733 41.8361 89.2678 41.8688 92.1962L41.9179 95.4356L44.3719 95.7955C47.7912 96.2863 51.6522 96.3027 55.2024 95.8118L57.8691 95.4519L57.9018 92.278L57.9509 89.1042L59.2597 88.7933C59.9796 88.6134 60.9939 88.3516 61.5174 88.2044C62.3518 87.9753 62.4991 87.9589 62.6299 88.1716C62.7117 88.3025 63.3171 89.3168 63.9551 90.4457C64.5932 91.5746 65.2639 92.687 65.4275 92.9325L65.722 93.3742L66.5891 93.0797C68.6505 92.3598 71.988 90.6747 74.8019 88.9242C75.9962 88.1716 79.4646 85.5376 79.4646 85.374C79.4646 85.2922 78.8102 84.0816 77.9922 82.691C77.1905 81.3003 76.5198 80.0406 76.5198 79.9097C76.5198 79.7788 76.9288 79.3208 77.4523 78.879C77.9595 78.4537 78.6793 77.7665 79.0556 77.3739L79.7427 76.654L82.4749 78.241C83.98 79.1081 85.2397 79.8116 85.2725 79.8116C85.3379 79.8116 87.2193 77.3903 87.6938 76.7031C89.5425 74.0037 91.1294 71.1407 92.2256 68.5394C92.7654 67.2633 93.2072 66.1508 93.2072 66.069C93.2072 65.9872 92.1274 65.3001 90.8022 64.5311C87.3666 62.5515 87.6774 62.9442 88.2173 61.3082C88.4627 60.5556 88.7572 59.5576 88.8717 59.1159L89.0517 58.2979L92.2256 58.2161L95.3994 58.1343L95.5958 57.1527C96.332 53.5207 96.3156 48.1382 95.563 42.952L95.4485 42.1831H92.291H89.1335L88.9862 41.5614C88.9044 41.2342 88.6754 40.3344 88.4791 39.5654C88.2827 38.7965 88.0864 38.0276 88.0373 37.8476C87.9719 37.5695 88.3809 37.275 90.6713 35.9662C92.1438 35.1155 93.3708 34.3465 93.3708 34.2811C93.3708 34.0521 92.5528 32.0561 91.8002 30.4528C90.9985 28.735 89.019 25.283 88.25 24.2196C86.1396 21.3402 85.4852 20.5712 85.2234 20.6694C85.0598 20.7185 83.8655 21.3893 82.5567 22.1582C81.2479 22.9107 80.0536 23.5324 79.9227 23.5324C79.7754 23.5324 79.5628 23.3688 79.4319 23.1562C79.2846 22.9598 78.6302 22.2236 77.9431 21.5365L76.6997 20.2768L78.1558 17.7409C78.9738 16.3503 79.6773 15.1069 79.7264 14.976C79.9881 14.2889 73.1986 9.87166 69.0431 8.03932C67.767 7.48307 66.54 6.9759 66.3273 6.92682C65.9838 6.82866 65.8202 7.05771 64.4132 9.54446C63.1207 11.8022 62.8099 12.2439 62.5318 12.1948C62.3518 12.1621 61.3538 11.884 60.3232 11.5895C59.2925 11.295 58.3436 11.0332 58.2454 11.0005C58.0818 10.9514 58.0327 10.1661 58.0327 7.77756V4.60367L55.4642 4.26011C52.7975 3.88383 47.5295 3.7693 46.2534 4.06379ZM53.2555 11.7858C53.2719 13.3891 53.3537 14.6979 53.4191 14.6979C53.7627 14.7143 55.9223 15.0415 56.5603 15.1887C60.1595 16.0067 62.041 16.563 63.6606 17.2992C65.1331 17.9863 65.1003 18.019 66.6218 15.3851C67.3744 14.0926 68.0288 12.9965 68.0779 12.9474C68.1924 12.8165 73.4113 15.8431 73.4113 16.0558C73.4113 16.1376 72.7733 17.3156 72.0043 18.6735C71.2354 20.015 70.6628 21.1602 70.7446 21.2256C72.8387 22.6817 76.6343 26.3791 78.074 28.3587C78.5975 29.0785 79.0392 29.6839 79.0719 29.7166C79.0883 29.7493 80.2335 29.1113 81.6241 28.3096C84.1273 26.8372 84.1273 26.8372 84.4054 27.1808C84.798 27.6716 87.3666 32.2197 87.3011 32.2852C87.2684 32.3179 86.1396 32.9723 84.798 33.7412C83.4565 34.5265 82.3276 35.1809 82.2786 35.2136C82.2458 35.2463 82.2949 35.41 82.3767 35.5899C83.2765 37.4223 83.7019 38.682 84.5199 41.9377C84.9125 43.5083 85.3543 46.0768 85.3543 46.7967C85.3543 46.8785 86.6794 46.9275 88.2991 46.9275H91.2439V50.1178V53.308H88.3155H85.3706L85.2888 54.2406C85.1089 56.0075 83.7837 61.0464 83.0148 62.9769C82.5894 64.0076 82.2458 64.9401 82.2458 65.0383C82.2458 65.1365 83.2274 65.7745 84.4381 66.478C85.6488 67.1651 86.7612 67.8195 86.9085 67.9341C87.1703 68.114 87.0557 68.3758 85.6651 70.7807C84.8307 72.2368 84.0945 73.4311 84.0127 73.4311C83.9309 73.4311 82.7694 72.793 81.4115 72.0077C79.9881 71.1897 78.9083 70.6498 78.8429 70.748C77.076 73.3002 73.215 77.0958 70.401 79.0263C70.3029 79.0917 70.3029 79.2062 70.4174 79.3535C70.6628 79.648 73.0841 83.8853 73.1332 84.0979C73.1496 84.1797 71.988 84.9487 70.5483 85.7994C68.0452 87.2555 67.9143 87.3045 67.6689 87.0264C67.538 86.8465 66.8509 85.7176 66.1474 84.4906C65.4603 83.2636 64.8549 82.2656 64.8222 82.2656C64.7731 82.2656 64.3314 82.4619 63.8079 82.691C62.3355 83.3617 60.7485 83.8689 58.5726 84.4088C56.9693 84.8014 53.8118 85.374 53.2555 85.374C53.1901 85.374 53.1083 86.6829 53.0919 88.2698L53.0429 91.1819H49.9344H46.826L46.7769 88.2862L46.7442 85.3904L45.9589 85.2922C42.8668 84.8832 38.8749 83.8362 36.7154 82.8873C34.8503 82.0693 34.9648 82.0038 33.427 84.6869C32.6744 85.963 32.02 87.0591 31.9709 87.1246C31.84 87.2555 26.6211 84.2288 26.6211 84.0161C26.6211 83.9343 27.2592 82.7564 28.0281 81.3985C28.797 80.057 29.3696 78.9118 29.2878 78.8463C28.0608 77.9956 26.8174 76.9158 25.0505 75.1489C23.2673 73.3984 22.5638 72.5476 20.9768 70.3554C20.9605 70.339 19.7989 70.9607 18.4247 71.7787C15.9052 73.2348 15.9052 73.2348 15.6271 72.8912C15.2508 72.4004 12.6659 67.8522 12.7313 67.7868C12.764 67.7541 13.8929 67.0997 15.2344 66.3307C16.576 65.5455 17.7048 64.8911 17.7539 64.8583C17.7866 64.8256 17.7375 64.662 17.6557 64.482C16.7886 62.7642 16.4614 61.8153 15.5943 58.5433C15.169 56.94 14.9399 55.6966 14.76 54.077L14.6618 53.1444H11.717H8.78849V49.9542V46.7639H11.717H14.6618L14.7436 45.815C14.9236 44.0645 16.2487 39.0256 17.0177 37.0951C17.443 36.0644 17.7866 35.1318 17.7866 35.0337C17.7866 34.9191 16.805 34.2811 15.6107 33.594C14.4 32.9232 13.2876 32.2688 13.1239 32.1379C12.8622 31.9416 12.944 31.7289 14.3673 29.2912C15.2017 27.8352 15.9379 26.6409 16.0197 26.6409C16.1015 26.6409 17.2631 27.2789 18.621 28.0642C20.0443 28.8822 21.1241 29.4221 21.1895 29.324C22.9237 26.8208 26.9647 22.8453 29.6314 21.0457C29.7296 20.9802 29.7296 20.8657 29.615 20.7185C29.3533 20.4076 26.9647 16.2358 26.9156 16.0067C26.8829 15.8922 28.0445 15.1233 29.4842 14.2889C31.9709 12.8329 32.1182 12.7674 32.3636 13.0619C32.4944 13.2255 33.1816 14.3544 33.8851 15.5814C34.5722 16.8084 35.1775 17.8064 35.2102 17.8064C35.2593 17.8064 35.701 17.61 36.2246 17.381C37.697 16.7102 39.2839 16.2031 41.4598 15.6632C43.0631 15.2705 46.2207 14.6979 46.7933 14.6979C46.8587 14.6979 46.9078 13.4218 46.9078 11.8676C46.9078 10.297 46.9569 8.97185 47.0223 8.90641C47.0877 8.85733 48.4947 8.82461 50.1635 8.84097L53.2065 8.89005L53.2555 11.7858Z"/>
</mask>
<path d="M46.2534 4.06379C45.9425 4.12923 44.8955 4.27647 43.9302 4.39099L42.1633 4.60367L42.1306 7.79392L42.0815 11.0005L40.7727 11.295C40.0529 11.4586 39.0385 11.7204 38.4986 11.8676C37.6806 12.113 37.5334 12.113 37.4025 11.9003C37.3207 11.7694 36.699 10.706 36.0282 9.54446C35.3411 8.36652 34.6703 7.25403 34.5395 7.05771L34.3104 6.69778L33.4597 6.99227C31.431 7.69575 27.4064 9.75714 24.8542 11.3768C23.8726 12.0148 20.5678 14.567 20.5678 14.6979C20.5678 14.7797 21.2386 15.9904 22.0403 17.381C22.8583 18.7716 23.5127 20.0314 23.5127 20.1622C23.5127 20.2931 23.1037 20.7512 22.5802 21.1929C22.073 21.6183 21.3531 22.3054 20.9768 22.6981L20.2897 23.4179L17.5576 21.831C16.0524 20.9639 14.7927 20.2604 14.76 20.2604C14.6945 20.2604 12.9603 22.5017 11.9624 23.8924C10.31 26.1664 6.64531 33.5122 6.89071 34.0684C6.92343 34.1666 8.10137 34.9028 9.50834 35.7044C10.9153 36.5061 12.1096 37.2259 12.1587 37.3077C12.2078 37.3732 12.0442 38.0439 11.7988 38.7965C11.5534 39.5327 11.2752 40.498 11.1607 40.9561L10.9808 41.7741L7.80688 41.8559L4.633 41.9377L4.50212 42.4285C4.20764 43.4592 3.88043 47.4511 3.88043 49.9542C3.88043 52.4736 3.97859 53.8643 4.3876 56.6128L4.56756 57.8889H7.74144H10.899L11.0462 58.4942C11.128 58.8378 11.357 59.7376 11.5534 60.5065C11.7497 61.2754 11.946 62.0444 11.9951 62.2243C12.0605 62.5025 11.6515 62.7969 9.3611 64.1058C7.88868 64.9565 6.66167 65.7254 6.66167 65.7909C6.66167 66.0199 7.47968 68.0159 8.23225 69.6192C9.0339 71.337 11.0135 74.789 11.7824 75.8524C13.8929 78.7318 14.5473 79.5007 14.8091 79.4026C14.9727 79.3535 16.1669 78.6827 17.4758 77.9138C18.7846 77.1612 19.9789 76.5395 20.1098 76.5395C20.257 76.5395 20.4697 76.7031 20.6006 76.8994C20.7478 77.1121 21.4022 77.8483 22.0893 78.5355L23.3327 79.7952L21.8767 82.331C21.0587 83.7217 20.3552 84.965 20.3061 85.0959C20.0443 85.783 26.8338 90.2003 30.9893 92.0326C32.2654 92.5889 33.4924 93.0961 33.7051 93.1451C34.0487 93.2433 34.2123 93.0143 35.6029 90.5766C36.4536 89.1042 37.1571 87.8771 37.1898 87.8444C37.2225 87.8117 38.1551 88.0407 39.2512 88.3843C40.3637 88.7115 41.3944 88.9733 41.5416 88.9733C41.8034 88.9733 41.8361 89.2678 41.8688 92.1962L41.9179 95.4356L44.3719 95.7955C47.7912 96.2863 51.6522 96.3027 55.2024 95.8118L57.8691 95.4519L57.9018 92.278L57.9509 89.1042L59.2597 88.7933C59.9796 88.6134 60.9939 88.3516 61.5174 88.2044C62.3518 87.9753 62.4991 87.9589 62.6299 88.1716C62.7117 88.3025 63.3171 89.3168 63.9551 90.4457C64.5932 91.5746 65.2639 92.687 65.4275 92.9325L65.722 93.3742L66.5891 93.0797C68.6505 92.3598 71.988 90.6747 74.8019 88.9242C75.9962 88.1716 79.4646 85.5376 79.4646 85.374C79.4646 85.2922 78.8102 84.0816 77.9922 82.691C77.1905 81.3003 76.5198 80.0406 76.5198 79.9097C76.5198 79.7788 76.9288 79.3208 77.4523 78.879C77.9595 78.4537 78.6793 77.7665 79.0556 77.3739L79.7427 76.654L82.4749 78.241C83.98 79.1081 85.2397 79.8116 85.2725 79.8116C85.3379 79.8116 87.2193 77.3903 87.6938 76.7031C89.5425 74.0037 91.1294 71.1407 92.2256 68.5394C92.7654 67.2633 93.2072 66.1508 93.2072 66.069C93.2072 65.9872 92.1274 65.3001 90.8022 64.5311C87.3666 62.5515 87.6774 62.9442 88.2173 61.3082C88.4627 60.5556 88.7572 59.5576 88.8717 59.1159L89.0517 58.2979L92.2256 58.2161L95.3994 58.1343L95.5958 57.1527C96.332 53.5207 96.3156 48.1382 95.563 42.952L95.4485 42.1831H92.291H89.1335L88.9862 41.5614C88.9044 41.2342 88.6754 40.3344 88.4791 39.5654C88.2827 38.7965 88.0864 38.0276 88.0373 37.8476C87.9719 37.5695 88.3809 37.275 90.6713 35.9662C92.1438 35.1155 93.3708 34.3465 93.3708 34.2811C93.3708 34.0521 92.5528 32.0561 91.8002 30.4528C90.9985 28.735 89.019 25.283 88.25 24.2196C86.1396 21.3402 85.4852 20.5712 85.2234 20.6694C85.0598 20.7185 83.8655 21.3893 82.5567 22.1582C81.2479 22.9107 80.0536 23.5324 79.9227 23.5324C79.7754 23.5324 79.5628 23.3688 79.4319 23.1562C79.2846 22.9598 78.6302 22.2236 77.9431 21.5365L76.6997 20.2768L78.1558 17.7409C78.9738 16.3503 79.6773 15.1069 79.7264 14.976C79.9881 14.2889 73.1986 9.87166 69.0431 8.03932C67.767 7.48307 66.54 6.9759 66.3273 6.92682C65.9838 6.82866 65.8202 7.05771 64.4132 9.54446C63.1207 11.8022 62.8099 12.2439 62.5318 12.1948C62.3518 12.1621 61.3538 11.884 60.3232 11.5895C59.2925 11.295 58.3436 11.0332 58.2454 11.0005C58.0818 10.9514 58.0327 10.1661 58.0327 7.77756V4.60367L55.4642 4.26011C52.7975 3.88383 47.5295 3.7693 46.2534 4.06379ZM53.2555 11.7858C53.2719 13.3891 53.3537 14.6979 53.4191 14.6979C53.7627 14.7143 55.9223 15.0415 56.5603 15.1887C60.1595 16.0067 62.041 16.563 63.6606 17.2992C65.1331 17.9863 65.1003 18.019 66.6218 15.3851C67.3744 14.0926 68.0288 12.9965 68.0779 12.9474C68.1924 12.8165 73.4113 15.8431 73.4113 16.0558C73.4113 16.1376 72.7733 17.3156 72.0043 18.6735C71.2354 20.015 70.6628 21.1602 70.7446 21.2256C72.8387 22.6817 76.6343 26.3791 78.074 28.3587C78.5975 29.0785 79.0392 29.6839 79.0719 29.7166C79.0883 29.7493 80.2335 29.1113 81.6241 28.3096C84.1273 26.8372 84.1273 26.8372 84.4054 27.1808C84.798 27.6716 87.3666 32.2197 87.3011 32.2852C87.2684 32.3179 86.1396 32.9723 84.798 33.7412C83.4565 34.5265 82.3276 35.1809 82.2786 35.2136C82.2458 35.2463 82.2949 35.41 82.3767 35.5899C83.2765 37.4223 83.7019 38.682 84.5199 41.9377C84.9125 43.5083 85.3543 46.0768 85.3543 46.7967C85.3543 46.8785 86.6794 46.9275 88.2991 46.9275H91.2439V50.1178V53.308H88.3155H85.3706L85.2888 54.2406C85.1089 56.0075 83.7837 61.0464 83.0148 62.9769C82.5894 64.0076 82.2458 64.9401 82.2458 65.0383C82.2458 65.1365 83.2274 65.7745 84.4381 66.478C85.6488 67.1651 86.7612 67.8195 86.9085 67.9341C87.1703 68.114 87.0557 68.3758 85.6651 70.7807C84.8307 72.2368 84.0945 73.4311 84.0127 73.4311C83.9309 73.4311 82.7694 72.793 81.4115 72.0077C79.9881 71.1897 78.9083 70.6498 78.8429 70.748C77.076 73.3002 73.215 77.0958 70.401 79.0263C70.3029 79.0917 70.3029 79.2062 70.4174 79.3535C70.6628 79.648 73.0841 83.8853 73.1332 84.0979C73.1496 84.1797 71.988 84.9487 70.5483 85.7994C68.0452 87.2555 67.9143 87.3045 67.6689 87.0264C67.538 86.8465 66.8509 85.7176 66.1474 84.4906C65.4603 83.2636 64.8549 82.2656 64.8222 82.2656C64.7731 82.2656 64.3314 82.4619 63.8079 82.691C62.3355 83.3617 60.7485 83.8689 58.5726 84.4088C56.9693 84.8014 53.8118 85.374 53.2555 85.374C53.1901 85.374 53.1083 86.6829 53.0919 88.2698L53.0429 91.1819H49.9344H46.826L46.7769 88.2862L46.7442 85.3904L45.9589 85.2922C42.8668 84.8832 38.8749 83.8362 36.7154 82.8873C34.8503 82.0693 34.9648 82.0038 33.427 84.6869C32.6744 85.963 32.02 87.0591 31.9709 87.1246C31.84 87.2555 26.6211 84.2288 26.6211 84.0161C26.6211 83.9343 27.2592 82.7564 28.0281 81.3985C28.797 80.057 29.3696 78.9118 29.2878 78.8463C28.0608 77.9956 26.8174 76.9158 25.0505 75.1489C23.2673 73.3984 22.5638 72.5476 20.9768 70.3554C20.9605 70.339 19.7989 70.9607 18.4247 71.7787C15.9052 73.2348 15.9052 73.2348 15.6271 72.8912C15.2508 72.4004 12.6659 67.8522 12.7313 67.7868C12.764 67.7541 13.8929 67.0997 15.2344 66.3307C16.576 65.5455 17.7048 64.8911 17.7539 64.8583C17.7866 64.8256 17.7375 64.662 17.6557 64.482C16.7886 62.7642 16.4614 61.8153 15.5943 58.5433C15.169 56.94 14.9399 55.6966 14.76 54.077L14.6618 53.1444H11.717H8.78849V49.9542V46.7639H11.717H14.6618L14.7436 45.815C14.9236 44.0645 16.2487 39.0256 17.0177 37.0951C17.443 36.0644 17.7866 35.1318 17.7866 35.0337C17.7866 34.9191 16.805 34.2811 15.6107 33.594C14.4 32.9232 13.2876 32.2688 13.1239 32.1379C12.8622 31.9416 12.944 31.7289 14.3673 29.2912C15.2017 27.8352 15.9379 26.6409 16.0197 26.6409C16.1015 26.6409 17.2631 27.2789 18.621 28.0642C20.0443 28.8822 21.1241 29.4221 21.1895 29.324C22.9237 26.8208 26.9647 22.8453 29.6314 21.0457C29.7296 20.9802 29.7296 20.8657 29.615 20.7185C29.3533 20.4076 26.9647 16.2358 26.9156 16.0067C26.8829 15.8922 28.0445 15.1233 29.4842 14.2889C31.9709 12.8329 32.1182 12.7674 32.3636 13.0619C32.4944 13.2255 33.1816 14.3544 33.8851 15.5814C34.5722 16.8084 35.1775 17.8064 35.2102 17.8064C35.2593 17.8064 35.701 17.61 36.2246 17.381C37.697 16.7102 39.2839 16.2031 41.4598 15.6632C43.0631 15.2705 46.2207 14.6979 46.7933 14.6979C46.8587 14.6979 46.9078 13.4218 46.9078 11.8676C46.9078 10.297 46.9569 8.97185 47.0223 8.90641C47.0877 8.85733 48.4947 8.82461 50.1635 8.84097L53.2065 8.89005L53.2555 11.7858Z" fill="black" stroke="black" stroke-width="0.266667" mask="url(#path-2-inside-1_490_44)"/>
<path d="M51.1755 19.9185C51.2732 20.0162 51.4211 20.024 51.5437 19.9653C51.6665 19.9066 51.7422 19.7929 51.7175 19.6685V19.6665C51.6902 19.5095 51.5672 19.4095 51.4353 19.3853C51.3044 19.3612 51.1773 19.413 51.1257 19.5483L51.1238 19.5513C51.097 19.6116 51.0897 19.6844 51.1003 19.7534C51.111 19.8227 51.139 19.8818 51.1755 19.9185Z" fill="black" stroke="black" stroke-width="0.133333"/>
<path d="M45.5863 20.3584C45.723 20.3829 45.8608 20.3301 45.9124 20.1895C45.9256 20.1502 45.9415 20.1129 45.9652 20.085C45.9912 20.0542 46.0274 20.0342 46.0716 20.0342C46.1112 20.0342 46.149 20.0504 46.183 20.0713C46.2179 20.0928 46.2561 20.1243 46.2982 20.1621L46.2992 20.1631C46.4112 20.2679 46.5467 20.282 46.6527 20.2373C46.7584 20.1927 46.841 20.0869 46.8412 19.9336C46.8412 19.762 46.7535 19.6548 46.6488 19.6182C46.5437 19.5816 46.4033 19.6095 46.2874 19.7471C46.2497 19.7931 46.2146 19.832 46.18 19.8604C46.1457 19.8885 46.1076 19.9103 46.0658 19.917C45.9721 19.932 45.9056 19.8662 45.8548 19.79L45.8529 19.7881C45.8174 19.73 45.7708 19.7021 45.722 19.6934C45.6717 19.6844 45.613 19.6945 45.555 19.7256C45.438 19.7884 45.3382 19.9267 45.3382 20.0967C45.3382 20.2346 45.4479 20.3336 45.5863 20.3584Z" fill="black" stroke="black" stroke-width="0.133333"/>
<path d="M43.4072 24.7129C43.8857 24.6853 44.4126 24.4343 44.8105 23.9658V23.9648C45.0447 23.6742 45.166 23.4244 45.1865 23.2266C45.1966 23.1289 45.1829 23.0447 45.1465 22.9736C45.1103 22.903 45.0499 22.8408 44.9619 22.7891C44.9008 22.7565 44.8507 22.7283 44.8145 22.7031C44.7964 22.6905 44.7792 22.6774 44.7656 22.6631C44.7524 22.649 44.7382 22.6292 44.7324 22.6045C44.7182 22.5438 44.7612 22.504 44.79 22.4844C44.8216 22.463 44.8679 22.4432 44.9209 22.4229L44.9248 22.4219C45.2863 22.3097 45.8127 22.2164 46.4336 22.1494L47.083 22.0918C47.3335 22.0756 47.6008 22.0386 47.8271 21.9941C48.0566 21.9491 48.2355 21.8971 48.3154 21.8535C48.5178 21.7445 48.7594 21.719 49.0029 21.7842L49.1074 21.8174C49.1521 21.8346 49.2459 21.8534 49.3838 21.8711C49.5193 21.8885 49.6911 21.9047 49.8877 21.918C50.2807 21.9444 50.7703 21.96 51.2598 21.96H51.2607C51.7524 21.9682 52.2526 21.9887 52.6611 22.0195C52.8653 22.0349 53.0475 22.0528 53.1943 22.0732C53.3391 22.0934 53.4557 22.1176 53.5254 22.1455V22.1445C53.8488 22.2707 54.3663 22.3286 54.8574 22.3164C55.1018 22.3103 55.3369 22.2865 55.5352 22.2471C55.7355 22.2072 55.8911 22.1529 55.9814 22.0879V22.0869C56.296 21.8644 56.4431 21.4952 56.4258 21.1533C56.4084 20.8117 56.229 20.5094 55.9023 20.4053H55.9014C55.7178 20.3467 55.4816 20.3737 55.2285 20.4824C54.9764 20.5908 54.7142 20.7777 54.4824 21.0254L54.4814 21.0264L54.3008 21.1982C54.2432 21.2483 54.188 21.2908 54.1357 21.3262C54.0321 21.3963 53.9346 21.4412 53.8477 21.4512C53.7567 21.4615 53.6759 21.4333 53.6211 21.3604C53.5701 21.2924 53.5488 21.1944 53.5488 21.0781C53.5488 20.9214 53.4565 20.8407 53.3604 20.8271C53.263 20.8136 53.1443 20.8671 53.0889 21.0195L53.0869 21.0234C53.0439 21.12 52.9476 21.1904 52.8252 21.2363C52.7011 21.2829 52.5409 21.3086 52.3555 21.3086C52.1413 21.3086 51.9803 21.288 51.8633 21.2295C51.7403 21.1679 51.6731 21.068 51.6367 20.9316C51.6147 20.8513 51.5745 20.7791 51.5273 20.7285C51.4795 20.6773 51.4307 20.6544 51.3906 20.6543C51.3572 20.6543 51.2985 20.678 51.2305 20.7344C51.1978 20.7614 51.1655 20.7942 51.1357 20.8301L51.0566 20.9463C50.9845 21.0814 50.8869 21.175 50.7422 21.2324C50.6013 21.2883 50.419 21.3086 50.1797 21.3086C50.0211 21.3086 49.8854 21.2954 49.7764 21.2725C49.6692 21.2499 49.5809 21.2162 49.5234 21.168C49.494 21.1432 49.4695 21.1124 49.458 21.0752C49.4463 21.0372 49.4502 20.9985 49.4648 20.9619C49.4927 20.8926 49.5618 20.8306 49.6553 20.7754L49.6592 20.7734C49.6685 20.7688 49.6827 20.7559 49.6992 20.7295C49.7153 20.7038 49.731 20.6693 49.7441 20.627C49.7705 20.5422 49.7861 20.434 49.7861 20.3252C49.786 20.0182 49.5364 19.7981 49.1816 19.7197C48.8288 19.6418 48.3958 19.713 48.0781 19.9688C47.9046 20.1092 47.829 20.1908 47.8047 20.2793C47.7866 20.3457 47.7948 20.425 47.835 20.5508L47.8857 20.6943C47.9301 20.8112 47.966 20.9063 47.9834 20.9814C48.0006 21.056 48.0045 21.1298 47.9629 21.1914C47.9231 21.2501 47.8524 21.2814 47.7705 21.3047C47.6862 21.3286 47.5718 21.3487 47.4258 21.373C47.1881 21.414 47.0153 21.4249 46.877 21.3857C46.7335 21.345 46.6363 21.2534 46.542 21.1162L46.541 21.1152C46.4689 21.0071 46.4058 20.932 46.3506 20.8867C46.2956 20.8417 46.256 20.8313 46.2275 20.835C46.1986 20.8388 46.1622 20.8599 46.1191 20.918C46.0764 20.9757 46.0323 21.0625 45.9883 21.1826V21.1836L45.9404 21.292C45.8886 21.3932 45.825 21.4723 45.7432 21.5293C45.634 21.6053 45.5002 21.6357 45.3369 21.6357C45.016 21.6358 44.6473 21.7541 44.3438 21.9258C44.1924 22.0114 44.0593 22.1092 43.958 22.21C43.8815 22.2861 43.8246 22.3613 43.791 22.4326L43.7656 22.502C43.7022 22.7641 43.7133 22.9671 43.7773 23.1006C43.8387 23.2283 43.9528 23.3016 44.126 23.3018C44.2439 23.3018 44.3396 23.3161 44.4053 23.3477C44.4386 23.3637 44.4688 23.3866 44.4883 23.418C44.5086 23.4507 44.5138 23.488 44.5068 23.5244C44.494 23.5915 44.4401 23.6542 44.3711 23.71C44.2991 23.7681 44.1987 23.8281 44.0732 23.8867L44.0723 23.8877L43.9102 23.9541C43.5402 24.0922 43.2251 24.1026 42.9912 23.9707C42.7212 23.8184 42.5869 23.4928 42.5869 23.041C42.5868 22.9043 42.5004 22.7672 42.3867 22.6865C42.2697 22.6035 42.1589 22.5999 42.0957 22.6631C42.0833 22.6755 42.0698 22.6982 42.0576 22.7344C42.0456 22.7703 42.0359 22.8161 42.0303 22.8701C42.0189 22.9781 42.022 23.1136 42.0391 23.2607C42.0732 23.5555 42.1614 23.8861 42.2871 24.1221L42.2881 24.124C42.5028 24.5454 42.9291 24.7403 43.4072 24.7129ZM48.7451 20.7695C48.6798 20.7787 48.6114 20.7663 48.5586 20.7217C48.505 20.6762 48.4766 20.6057 48.4766 20.5215C48.4768 20.3376 48.6217 20.1934 48.8057 20.1934C48.8901 20.1934 48.9672 20.2172 49.0186 20.2686C49.0723 20.3226 49.0884 20.3975 49.0664 20.4746L49.0654 20.4775L49.04 20.5381C48.975 20.6713 48.8587 20.7536 48.7451 20.7695ZM54.9219 21.6221C54.8867 21.619 54.8553 21.6153 54.8301 21.6094C54.8077 21.6041 54.7784 21.5946 54.7568 21.5732C54.7444 21.5608 54.7337 21.5438 54.7305 21.5234C54.7274 21.5039 54.732 21.486 54.7373 21.4727C54.7471 21.4482 54.7652 21.4265 54.7822 21.4092C54.818 21.3729 54.876 21.3267 54.9482 21.2705H54.9492C55.1583 21.1116 55.3611 21.0234 55.5195 21.0234C55.6003 21.0235 55.6751 21.0468 55.7295 21.1016C55.7839 21.1563 55.8085 21.2336 55.8086 21.3232C55.8086 21.3758 55.7951 21.4256 55.7656 21.4688C55.7366 21.511 55.695 21.5433 55.6445 21.5674C55.5449 21.6148 55.4014 21.6357 55.2188 21.6357H55.2168C55.0909 21.6317 54.9924 21.6281 54.9219 21.6221Z" fill="black" stroke="black" stroke-width="0.133333"/>
<path d="M69.2179 29.208C69.4912 29.2278 69.7541 29.1271 69.9777 28.8975L70.0705 28.792C70.1719 28.6621 70.2473 28.5553 70.299 28.4668C70.3512 28.3774 70.3764 28.3114 70.382 28.2627C70.387 28.2184 70.3762 28.1887 70.3527 28.1631C70.3257 28.1339 70.2774 28.1055 70.1994 28.0781L70.1945 28.0762C70.148 28.0555 70.0723 28.0616 69.9767 28.1094C69.8839 28.1558 69.7845 28.2354 69.6994 28.3359L69.6984 28.3369L69.3546 28.7295L69.3019 28.79L69.2521 28.7266L68.8927 28.2695C68.7903 28.1415 68.6974 27.9808 68.63 27.8271C68.5635 27.6754 68.5187 27.5214 68.5187 27.4092C68.5186 27.2998 68.4981 27.2333 68.4718 27.2002C68.46 27.1854 68.4469 27.1766 68.4318 27.1729C68.4156 27.1689 68.3914 27.1688 68.3586 27.1787L68.3556 27.1797L68.1466 27.2256C68.0833 27.2375 68.026 27.2456 67.9748 27.25C67.8733 27.2588 67.7871 27.2536 67.7179 27.2236C67.6448 27.1919 67.5976 27.1362 67.5705 27.0625C67.5575 27.0273 67.5494 26.9876 67.5441 26.9443L67.5373 26.8047C67.5332 26.7167 67.5254 26.654 67.5119 26.6074C67.4988 26.5626 67.4811 26.5364 67.4562 26.5186C67.4293 26.4993 67.3871 26.4842 67.3166 26.4746C67.2459 26.465 67.1528 26.4619 67.0304 26.4619C66.9002 26.4619 66.7951 26.4605 66.713 26.4502C66.6319 26.44 66.5619 26.4197 66.5109 26.376C66.4573 26.3299 66.4356 26.2666 66.4289 26.1943C66.4256 26.159 66.4254 26.1193 66.4279 26.0752L66.4416 25.9297C66.4539 25.8185 66.46 25.7406 66.4562 25.6855C66.4524 25.6309 66.4396 25.6156 66.4308 25.6094C66.4174 25.6 66.3859 25.5914 66.3117 25.5967C66.276 25.5992 66.2341 25.6045 66.1847 25.6123L66.0128 25.6426C65.6189 25.7196 65.2898 25.6466 65.0021 25.3828C64.7198 25.1239 64.4819 24.686 64.2521 24.0459C64.1454 23.7503 64.0588 23.4787 64.0031 23.2764C63.9753 23.1754 63.955 23.0899 63.9435 23.0273C63.9379 22.9966 63.9339 22.9692 63.9328 22.9473C63.9322 22.9366 63.9322 22.9244 63.9337 22.9131C63.9349 22.905 63.9389 22.8816 63.9572 22.8633C63.9724 22.8481 63.991 22.8429 63.9992 22.8408C64.0095 22.8383 64.0204 22.8366 64.0304 22.8359C64.0507 22.8345 64.0758 22.8352 64.1037 22.8369C64.1602 22.8404 64.2366 22.8499 64.3253 22.8633C64.5032 22.8902 64.7379 22.9356 64.9845 22.9932L64.9836 22.9941C65.2242 23.0472 65.4163 23.0821 65.5666 23.1006C65.7184 23.1193 65.8213 23.119 65.8869 23.1035C65.9185 23.096 65.9375 23.0853 65.9494 23.0752C65.9603 23.0658 65.9677 23.0539 65.9718 23.0371C65.981 22.9992 65.9739 22.9367 65.9386 22.8379C65.9188 22.789 65.8733 22.7362 65.799 22.6836C65.7252 22.6315 65.6272 22.5824 65.5119 22.5381C65.2815 22.4497 64.9873 22.383 64.6857 22.3467C64.384 22.3104 64.0781 22.3051 63.8253 22.3359C63.699 22.3514 63.5875 22.3759 63.4972 22.4092C63.4069 22.4425 63.3418 22.4825 63.3029 22.5273H63.3039C63.256 22.5872 63.2269 22.6307 63.2121 22.6816C63.1974 22.7323 63.1946 22.7975 63.213 22.9014C63.2506 23.1127 63.3703 23.4568 63.6076 24.1113C63.6391 24.1849 63.6368 24.2617 63.5988 24.3223C63.5604 24.383 63.4921 24.417 63.4152 24.417C63.367 24.417 63.3054 24.4043 63.2384 24.3857C63.1702 24.3668 63.0913 24.34 63.007 24.3076C62.8382 24.2428 62.6435 24.1552 62.4591 24.0625C62.2748 23.9698 62.0985 23.8715 61.9679 23.7852C61.9029 23.7422 61.847 23.7002 61.8068 23.6631C61.7869 23.6448 61.7694 23.6255 61.756 23.6064C61.7436 23.5888 61.7287 23.5629 61.7287 23.5322C61.7287 23.5207 61.7316 23.5089 61.7336 23.5C61.7357 23.4899 61.7387 23.4784 61.7423 23.4658C61.7496 23.4407 61.7597 23.4086 61.7726 23.3711C61.7985 23.2959 61.8359 23.1959 61.881 23.0791C61.9713 22.8452 62.0937 22.5417 62.2248 22.2305L62.2257 22.2295C62.3643 21.9117 62.4859 21.606 62.5734 21.3701C62.6172 21.2521 62.6521 21.1515 62.6759 21.0762C62.6878 21.0386 62.6974 21.0077 62.7033 20.9844C62.7061 20.973 62.7079 20.9639 62.7091 20.957C62.7102 20.9511 62.7101 20.9478 62.7101 20.9473C62.7101 20.8626 62.6349 20.7885 62.5109 20.7607C62.3894 20.7336 62.2594 20.7615 62.1906 20.8418H62.1916C62.1573 20.8851 62.1127 20.9614 62.0607 21.0664C62.0093 21.1702 61.9525 21.2985 61.8927 21.4434C61.7731 21.7334 61.6427 22.0879 61.5255 22.4404C61.4083 22.7931 61.3042 23.1434 61.2355 23.4248C61.2011 23.5656 61.1759 23.6886 61.1623 23.7852C61.1555 23.8332 61.1513 23.8737 61.1505 23.9062C61.1498 23.9396 61.1533 23.9601 61.1564 23.9707L61.1574 23.9746C61.1655 24.0083 61.1935 24.0562 61.2502 24.1152C61.3054 24.1728 61.382 24.2353 61.4748 24.3008C61.6602 24.4317 61.9059 24.5689 62.1671 24.6904C62.4283 24.8119 62.7029 24.917 62.9455 24.9844C63.1915 25.0526 63.3946 25.0789 63.5168 25.0537H63.5177C63.6612 25.0284 63.7813 25.0291 63.8761 25.0752C63.9742 25.1229 64.0308 25.2123 64.0666 25.3281L64.0675 25.3271C64.0915 25.3989 64.1641 25.5038 64.2736 25.625C64.3811 25.7439 64.5182 25.8723 64.6623 25.9902C64.8064 26.1081 64.9563 26.2143 65.089 26.291C65.1555 26.3294 65.2164 26.3603 65.2697 26.3809C65.3238 26.4017 65.3656 26.4101 65.3947 26.4102C65.4358 26.4102 65.4818 26.4276 65.5236 26.4492C65.5676 26.4719 65.616 26.5046 65.6662 26.543C65.7666 26.6199 65.8774 26.7257 65.9709 26.8447C66.0573 26.9547 66.1593 27.0524 66.256 27.1221C66.3559 27.194 66.4397 27.2285 66.4914 27.2285C66.5375 27.2286 66.5885 27.2436 66.6378 27.2656C66.6884 27.2882 66.7424 27.3208 66.797 27.3594C66.9064 27.4366 67.0223 27.5433 67.1164 27.6631C67.2039 27.7745 67.2989 27.8739 67.381 27.9443C67.422 27.9795 67.4586 28.0066 67.4884 28.0244C67.5034 28.0333 67.5162 28.0394 67.5255 28.043C67.5345 28.0464 67.5384 28.0469 67.5382 28.0469C67.5634 28.0469 67.5877 28.0556 67.6066 28.0645C67.6272 28.0742 67.6497 28.0878 67.673 28.1035C67.7197 28.1351 67.7757 28.1793 67.8361 28.2324C67.9571 28.3388 68.1019 28.4847 68.2423 28.6416C68.5621 29.0013 68.9032 29.1851 69.2179 29.208Z" fill="black" stroke="black" stroke-width="0.133333"/>
<path d="M37.0912 22.8115C37.1719 22.8115 37.2437 22.7928 37.2924 22.7676C37.3167 22.755 37.3326 22.7415 37.3422 22.7305C37.3469 22.7251 37.3498 22.7206 37.351 22.7178C37.352 22.7154 37.352 22.7139 37.352 22.7139C37.3521 22.6651 37.3776 22.6258 37.4086 22.5977C37.4392 22.57 37.4797 22.5491 37.5229 22.5332C37.61 22.5012 37.7244 22.4844 37.8442 22.4844C37.9286 22.4844 37.9916 22.4802 38.0385 22.4707C38.0853 22.4611 38.1099 22.4467 38.1235 22.4326C38.1362 22.4193 38.1471 22.3984 38.1508 22.3584C38.1546 22.3171 38.1501 22.2614 38.1381 22.1855C38.1235 22.0981 38.0877 22.0187 38.0424 21.9629C37.9959 21.9056 37.947 21.8809 37.9096 21.8809C37.8236 21.8808 37.7359 21.839 37.6635 21.7803C37.5901 21.7206 37.525 21.6382 37.4877 21.5449C37.4687 21.5016 37.4307 21.456 37.3784 21.4141C37.326 21.3721 37.2631 21.3368 37.2006 21.3125C37.1375 21.288 37.0792 21.2764 37.0356 21.2783C36.9924 21.2803 36.9775 21.2938 36.9721 21.3037C36.9716 21.3061 36.9709 21.3094 36.9702 21.3135C36.9679 21.3257 36.9652 21.3432 36.9623 21.3652C36.9566 21.4091 36.9509 21.4697 36.9438 21.543L36.8959 22.0977C36.8837 22.2691 36.8769 22.4018 36.8774 22.5049C36.8779 22.609 36.8869 22.6768 36.9018 22.7217C36.9156 22.7631 36.9332 22.7813 36.9555 22.792C36.9825 22.805 37.0237 22.8115 37.0912 22.8115Z" fill="black" stroke="black" stroke-width="0.133333"/>
<path d="M59.6187 23.6128C59.7824 23.5948 59.9288 23.5049 60.1129 23.3208C60.3217 23.1118 60.4151 22.876 60.4 22.6235C60.3866 22.4004 60.2878 22.1574 60.0973 21.9019L60.0103 21.7915C59.8076 21.5483 59.6359 21.4033 59.4957 21.3442C59.4268 21.3152 59.3685 21.3076 59.3189 21.3169C59.2699 21.3261 59.2225 21.3532 59.1773 21.4019H59.1783L59.1685 21.4097C59.1633 21.4137 59.1536 21.4243 59.1422 21.4458C59.131 21.4668 59.1202 21.4943 59.1109 21.5259C59.0923 21.5894 59.0807 21.665 59.0807 21.7319C59.0807 21.8278 59.0485 21.9332 59.0006 22.0269C58.9525 22.1208 58.8858 22.2093 58.8131 22.2729L58.8121 22.2739L58.7477 22.3364C58.6111 22.4894 58.559 22.6998 58.5855 22.9019C58.6159 23.1329 58.7478 23.3428 58.9596 23.438L58.9615 23.439C59.2539 23.577 59.4522 23.6311 59.6187 23.6128ZM59.5221 22.9438C59.3876 22.9438 59.2769 22.8617 59.2203 22.7632C59.1645 22.6658 59.1515 22.5321 59.2457 22.438C59.3461 22.3376 59.4671 22.2951 59.5728 22.3374C59.679 22.3799 59.7359 22.494 59.7359 22.6323C59.7359 22.708 59.7166 22.7818 59.6832 22.8384C59.6508 22.893 59.5962 22.9436 59.5221 22.9438Z" fill="black" stroke="black" stroke-width="0.133333"/>
<path d="M65.951 22.2222C66.0298 22.2202 66.0523 22.2066 66.0614 22.1978C66.0742 22.1853 66.0811 22.1659 66.0995 22.106H66.1005C66.1016 22.1025 66.106 22.0827 66.0565 22.0425C66.0098 22.0045 65.9323 21.9635 65.829 21.9233C65.6238 21.8436 65.3342 21.7728 65.0321 21.7231C64.7301 21.6735 64.4194 21.6461 64.1727 21.6519C64.0494 21.6547 63.9447 21.6654 63.8661 21.6851C63.8248 21.6954 63.7945 21.7077 63.7733 21.7192L63.7333 21.7515C63.7024 21.806 63.7037 21.8276 63.7069 21.8364C63.7104 21.8459 63.727 21.8701 63.8065 21.8999C63.9617 21.9581 64.2715 22.011 64.8309 22.0933C65.1543 22.1383 65.3955 22.171 65.576 22.1929C65.7571 22.2148 65.8737 22.2241 65.951 22.2222Z" fill="black" stroke="black" stroke-width="0.133333"/>
<path d="M34.8359 27.9609C34.8648 27.9788 34.9174 27.987 35.0059 27.9541V27.9531C35.0346 27.9415 35.0718 27.9152 35.1162 27.8711C35.1601 27.8275 35.2077 27.77 35.2568 27.7012C35.3552 27.5633 35.4579 27.3842 35.5508 27.1914C35.6436 26.9986 35.7269 26.793 35.7861 26.6035C35.8457 26.413 35.8799 26.2421 35.8799 26.1172C35.88 25.9521 35.9152 25.8174 36.0049 25.7041C36.0928 25.5932 36.2272 25.5106 36.4102 25.4355V25.4346C36.5385 25.3784 36.6791 25.3063 36.7988 25.2324C36.9211 25.157 37.0138 25.0848 37.0547 25.0303C37.1128 24.9529 37.2059 24.8902 37.3018 24.8467C37.3979 24.803 37.5052 24.7754 37.5986 24.7754C37.6729 24.7754 37.7723 24.7433 37.874 24.6885C37.9242 24.6614 37.9736 24.6301 38.0186 24.5957L38.1387 24.4863C38.2176 24.3906 38.3139 24.3155 38.4082 24.2705C38.5002 24.2267 38.6048 24.2044 38.6885 24.2402L38.6875 24.2412C38.8628 24.3029 39.0574 24.247 39.2129 24.1104C39.3689 23.9731 39.4794 23.7582 39.4795 23.5166C39.4795 23.0867 39.3389 22.7332 39.168 22.5547C39.0826 22.4656 38.9966 22.4267 38.9209 22.4307C38.8481 22.4346 38.7662 22.4791 38.6885 22.5996C38.6735 22.6312 38.6688 22.6792 38.6807 22.7334C38.6926 22.7878 38.7199 22.841 38.7588 22.8799C38.8922 23.0133 38.9588 23.1828 38.9492 23.3262C38.9443 23.3985 38.9195 23.4681 38.8691 23.5195C38.818 23.5716 38.7467 23.5996 38.6621 23.5996C38.5871 23.5996 38.4969 23.5634 38.416 23.5166C38.333 23.4685 38.2492 23.4027 38.1865 23.3311L38.0996 23.2441C38.0729 23.223 38.0481 23.2094 38.0264 23.2012C37.9857 23.1858 37.9554 23.1902 37.9307 23.207C37.9027 23.2261 37.8728 23.2672 37.8496 23.3398C37.8268 23.4116 37.8125 23.5086 37.8125 23.6309C37.8125 23.8475 37.7077 24.0154 37.5586 24.0771C37.484 24.1079 37.4006 24.1101 37.3213 24.0791C37.2424 24.0482 37.1713 23.9863 37.1162 23.8945C37.0733 23.823 37.0239 23.7826 36.9775 23.7646C36.9315 23.7469 36.8837 23.7487 36.8398 23.7676C36.7519 23.8055 36.668 23.9201 36.668 24.1055C36.6679 24.4201 36.4866 24.6629 36.2305 24.7832C35.9752 24.9031 35.6458 24.9014 35.3418 24.7363C35.1876 24.6534 35.0628 24.6163 34.9707 24.6113C34.879 24.6064 34.8289 24.633 34.8047 24.667C34.7792 24.703 34.7674 24.7674 34.7959 24.8662C34.8171 24.9395 34.8594 25.0266 34.9258 25.124L35.001 25.2256C35.2177 25.5007 35.334 25.7363 35.334 26.0156C35.3339 26.2216 35.2701 26.4454 35.1484 26.7207L35.0078 27.0146C34.8294 27.3716 34.7588 27.6522 34.7734 27.8193C34.7807 27.9019 34.8073 27.9431 34.8359 27.9609Z" fill="black" stroke="black" stroke-width="0.133333"/>
<path d="M68.3555 26.0835C68.4963 26.0835 68.5431 26.0599 68.5625 26.0308C68.5733 26.0144 68.5822 25.9871 68.584 25.9399C68.5858 25.8933 68.5801 25.833 68.5684 25.7544C68.5428 25.6348 68.5378 25.5241 68.5518 25.4399C68.5587 25.3983 68.5716 25.3581 68.5928 25.3267C68.6149 25.2939 68.6504 25.2652 68.6992 25.2651C68.6953 25.2652 68.6966 25.268 68.7032 25.2603C68.7105 25.2516 68.7199 25.2347 68.7276 25.2075C68.7427 25.1536 68.7466 25.0737 68.7315 24.9829V24.9819C68.7024 24.7855 68.5768 24.6599 68.4492 24.6206C68.3855 24.6011 68.3223 24.6028 68.2696 24.6255C68.2177 24.6479 68.1705 24.6929 68.1397 24.7681H68.1387C68.1106 24.85 68.0643 24.918 68.0098 24.9595C67.9586 24.9985 67.8822 25.0249 67.8155 24.98V24.981C67.7297 24.932 67.593 24.9459 67.4678 25.0142C67.3421 25.0827 67.2608 25.1876 67.2608 25.2827C67.2608 25.3242 67.2851 25.3785 67.336 25.4312C67.3852 25.4822 67.4529 25.5241 67.5225 25.5454C67.6209 25.5722 67.7188 25.6211 67.7989 25.6812C67.8777 25.7403 67.9458 25.8152 67.9766 25.897C67.9931 25.9411 68.0388 25.9882 68.1104 26.0249C68.1805 26.0609 68.268 26.0834 68.3555 26.0835Z" fill="black" stroke="black" stroke-width="0.133333"/>
<path d="M28.4205 31.3823C28.5344 31.4356 28.6358 31.4401 28.7603 31.4038V31.4028C29.0595 31.3084 29.4156 31.0896 29.7554 30.8003C30.0946 30.5116 30.4134 30.1568 30.6382 29.7954V29.7944C30.8787 29.4213 31.2138 29.0287 31.5279 28.729C31.6848 28.5793 31.8383 28.4518 31.9732 28.3608C32.0406 28.3154 32.105 28.2783 32.1636 28.2524C32.2214 28.227 32.2785 28.2095 32.3306 28.2095C32.3814 28.2095 32.4485 28.1766 32.523 28.1011C32.5955 28.0276 32.6661 27.9233 32.7252 27.8052C32.7842 27.6872 32.8298 27.5574 32.8541 27.4351C32.8724 27.3427 32.8785 27.2573 32.8697 27.1851L32.856 27.1177C32.7451 26.7534 32.5318 26.4689 32.3218 26.3276C32.2168 26.2571 32.1177 26.2256 32.0357 26.231C31.9769 26.2349 31.9224 26.2582 31.8755 26.3071L31.8316 26.3647L31.8267 26.3716L31.8179 26.4136C31.8185 26.44 31.8256 26.4746 31.8394 26.5142C31.867 26.5934 31.9189 26.6847 31.9869 26.7603C32.1681 26.9589 32.2394 27.1737 32.1841 27.3706C32.1292 27.566 31.9564 27.7217 31.6998 27.8159C31.5602 27.8682 31.4336 27.884 31.3004 27.8413C31.1705 27.7996 31.0425 27.7045 30.8931 27.5552C30.7792 27.4413 30.6862 27.3579 30.605 27.3022C30.5243 27.2468 30.4598 27.2215 30.4009 27.2183C30.3429 27.2151 30.2812 27.2325 30.2066 27.2788C30.131 27.3258 30.0453 27.4001 29.94 27.5054C29.7383 27.7071 29.6531 27.8585 29.6548 28.0122C29.6567 28.1695 29.7496 28.3501 29.9615 28.6108L29.9625 28.6118C30.0628 28.7414 30.1358 28.8632 30.1714 28.9858C30.2076 29.1105 30.2035 29.2333 30.1558 29.3628C30.1088 29.4904 30.0201 29.6225 29.8902 29.769C29.7601 29.9159 29.5855 30.081 29.3638 30.2739L29.1246 30.4712C29.051 30.5285 28.9829 30.5779 28.9195 30.6187C28.793 30.6999 28.6795 30.7509 28.5709 30.7661C28.3449 30.7976 28.1682 30.6709 27.9625 30.4487L27.9615 30.4478C27.8274 30.2979 27.7019 30.2374 27.6226 30.2388C27.5864 30.2395 27.5599 30.2523 27.5416 30.2759C27.5217 30.3014 27.5055 30.3468 27.5054 30.4194C27.5054 30.426 27.5117 30.4506 27.5357 30.4956C27.5579 30.5372 27.5908 30.5885 27.6334 30.646C27.7188 30.7612 27.8388 30.8975 27.9752 31.0259L27.9771 31.0269C28.1647 31.2145 28.3009 31.3263 28.4205 31.3823ZM30.5025 28.4448C30.427 28.4514 30.3595 28.4112 30.3043 28.356C30.1864 28.238 30.1625 28.0416 30.2457 27.9146V27.9136C30.2919 27.8398 30.3526 27.7874 30.4293 27.7808C30.5047 27.7742 30.5723 27.8144 30.6275 27.8696C30.7459 27.9882 30.7688 28.187 30.6841 28.314C30.6382 28.3867 30.5783 28.4381 30.5025 28.4448Z" fill="black" stroke="black" stroke-width="0.133333"/>
<path d="M29.2387 27.229C29.3334 27.229 29.396 27.2035 29.435 27.1646C29.4739 27.1256 29.4994 27.063 29.4994 26.9683C29.4994 26.8735 29.4739 26.8109 29.435 26.772C29.396 26.733 29.3335 26.7075 29.2387 26.7075C29.1439 26.7075 29.0813 26.733 29.0424 26.772C29.0035 26.8109 28.9779 26.8735 28.9779 26.9683C28.9779 27.063 29.0034 27.1256 29.0424 27.1646C29.0813 27.2035 29.1439 27.229 29.2387 27.229Z" fill="black" stroke="black" stroke-width="0.133333"/>
<path d="M70.776 27.5566C70.9135 27.5707 71.056 27.5068 71.108 27.3701V27.3682C71.152 27.2614 71.1137 27.147 71.026 27.0645C70.938 26.9818 70.813 26.9441 70.7028 26.9824C70.6637 27.0002 70.6216 27.0396 70.5885 27.0986C70.555 27.1585 70.5329 27.2335 70.5328 27.3115C70.5328 27.4559 70.64 27.5427 70.776 27.5566Z" fill="black" stroke="black" stroke-width="0.133333"/>
<path d="M70.2048 30.501C70.2039 30.501 70.2075 30.5006 70.2175 30.4971C70.227 30.4937 70.24 30.4879 70.2556 30.4795C70.2867 30.4626 70.326 30.4368 70.3728 30.4023C70.4668 30.3332 70.5863 30.2334 70.7214 30.1113C70.9915 29.8674 71.3222 29.5387 71.6394 29.2041C71.9566 28.8696 72.2595 28.5296 72.4744 28.2617C72.582 28.1275 72.6665 28.0127 72.7195 27.9268C72.746 27.8838 72.7626 27.8505 72.7712 27.8271C72.7735 27.8211 72.7743 27.8159 72.7751 27.8125C72.7261 27.739 72.6791 27.7078 72.6257 27.7031C72.5644 27.6978 72.4766 27.7242 72.3464 27.8105C72.0865 27.9832 71.7028 28.362 71.1042 29.0098H71.1033C70.5212 29.6411 70.193 30.0355 70.0691 30.2695C70.0386 30.3272 70.0227 30.3711 70.0173 30.4033C70.0122 30.4343 70.0182 30.4492 70.0232 30.457C70.0286 30.4653 70.0412 30.4771 70.072 30.4863C70.103 30.4955 70.1467 30.501 70.2048 30.501Z" fill="black" stroke="black" stroke-width="0.133333"/>
<path d="M33.0701 29.064H33.0711L33.075 29.0649C33.2061 29.1159 33.3378 29.1075 33.4344 29.061C33.5302 29.0149 33.5897 28.9334 33.5897 28.8325C33.5897 28.7398 33.6415 28.6636 33.7137 28.6138C33.7857 28.5641 33.8818 28.5366 33.9832 28.5366C34.0779 28.5366 34.1413 28.5119 34.1805 28.4741C34.2193 28.4367 34.244 28.3777 34.244 28.2925C34.2438 28.1044 34.1476 27.9956 34.0399 27.9644C33.9316 27.9331 33.7881 27.9735 33.6785 28.1343L33.6756 28.1372L33.5652 28.2583C33.5234 28.2988 33.4777 28.3387 33.4315 28.3755C33.3392 28.4488 33.2398 28.5144 33.159 28.5503H33.16L33.1531 28.5522L33.1014 28.5737C32.9863 28.6302 32.9234 28.7296 32.9119 28.8228C32.8993 28.9265 32.9484 29.0254 33.0701 29.064Z" fill="black" stroke="black" stroke-width="0.133333"/>
<path d="M72.0103 32.353C72.2979 32.4535 72.6263 32.2998 72.8931 31.9712C73.1576 31.6455 73.3443 31.1653 73.3443 30.6655C73.3443 30.4277 73.2456 30.2879 73.1451 30.2466C73.0955 30.2263 73.0403 30.2275 72.9849 30.2544C72.9288 30.2817 72.8683 30.3375 72.816 30.4341C72.7788 30.5086 72.7396 30.6334 72.7095 30.7759C72.6796 30.9178 72.6597 31.0724 72.6597 31.2056C72.6597 31.3644 72.6411 31.4945 72.5972 31.5894C72.5514 31.6883 72.4759 31.7511 72.3707 31.7622C72.2728 31.7724 72.16 31.7369 72.0367 31.6694C71.9115 31.601 71.7663 31.4953 71.6011 31.355V31.354C71.4595 31.2326 71.3375 31.1408 71.2349 31.0776C71.1313 31.0138 71.0523 30.9825 70.9957 30.9751C70.943 30.9682 70.9163 30.9822 70.899 31.0054C70.8771 31.0347 70.8599 31.0916 70.8599 31.189C70.8599 31.2507 70.8957 31.3449 70.9693 31.4604C71.0411 31.5732 71.143 31.6975 71.2603 31.8179C71.4966 32.0602 71.7866 32.2762 72.0093 32.353H72.0103Z" fill="black" stroke="black" stroke-width="0.133333"/>
<path d="M34.245 32.7109L33.8196 33.0381V41.7744C33.8196 46.568 33.8687 50.6253 33.9178 50.7726C34.2123 51.5251 34.0159 51.5088 50.0162 51.5088C66.0165 51.5088 65.8202 51.5251 66.1147 50.7726C66.1637 50.6253 66.2128 46.568 66.2128 41.7744V33.0381L65.7875 32.7109C65.3457 32.3673 65.2803 32.3673 50.0162 32.3673C34.7521 32.3673 34.6867 32.3673 34.245 32.7109ZM65.0185 33.578L65.4766 33.9706V41.8235V49.6764L65.084 50.1018L64.6913 50.5271H50.0162H35.3411L34.9485 50.1018L34.5558 49.6764V41.8235V33.9706L35.0139 33.578L35.472 33.1853H50.0162H64.5604L65.0185 33.578Z" fill="black" stroke="black"/>
<path d="M33.8195 52.5064C33.2633 52.8336 32.9688 53.2098 29.206 58.756C27.7663 60.8501 27.5209 61.5045 27.9626 61.9462C28.2407 62.2243 71.7916 62.2243 72.0697 61.9462C72.5114 61.5045 72.266 60.8501 70.8427 58.756C66.9326 53.0299 66.7854 52.8336 66.1637 52.4736C65.8201 52.2937 65.4929 52.1628 65.4438 52.2119C65.3947 52.2609 65.6074 52.6209 65.9183 53.0135C66.9817 54.3387 70.7772 59.983 70.8754 60.392C70.9409 60.6537 70.8918 60.8828 70.7118 61.0627C70.4664 61.3081 68.7486 61.3245 50.0161 61.3245C31.2837 61.3245 29.5659 61.3081 29.3205 61.0627C29.1405 60.8828 29.0914 60.6537 29.1569 60.392C29.255 59.983 33.0506 54.3551 34.0977 53.0299C34.8829 52.0483 34.8175 51.9337 33.8195 52.5064Z" fill="black" stroke="black"/>
<path d="M47.153 58.87L46.744 59.688H49.8361H52.9282L52.5846 58.87L52.241 58.052H49.9015H47.562L47.153 58.87Z" fill="black" stroke="black"/>
<path d="M24.1728 64.3008C24.2904 64.3043 24.4328 64.2578 24.6962 64.1426L24.6982 64.1416C25.1046 63.979 25.246 63.8144 25.246 63.6309C25.246 63.5509 25.2213 63.49 25.1845 63.4463C25.1473 63.4022 25.0939 63.3712 25.0292 63.3584C24.8994 63.3329 24.7248 63.3797 24.5741 63.5303C24.5025 63.6019 24.4236 63.6501 24.3271 63.6445C24.2353 63.6391 24.1435 63.5857 24.0429 63.502C23.8836 63.3707 23.7981 63.1202 23.7812 62.8936C23.7726 62.7784 23.7813 62.6634 23.8095 62.5654C23.8304 62.4928 23.864 62.4243 23.914 62.374L23.9687 62.3301L23.9735 62.3281C23.9991 62.3153 24.0325 62.2743 24.0595 62.2012C24.0852 62.1313 24.1005 62.0446 24.1005 61.9619C24.1005 61.8806 24.0778 61.8256 24.0448 61.79C24.0118 61.7545 23.9614 61.7308 23.8925 61.7256C23.7515 61.715 23.5457 61.7833 23.3232 61.9502C23.1006 62.1231 22.9289 62.2167 22.7011 62.1768C22.5914 62.1575 22.4727 62.1085 22.3329 62.0312C22.1928 61.9538 22.0277 61.8451 21.8232 61.7061C21.6114 61.5635 21.4365 61.4559 21.2939 61.3809C21.1501 61.3052 21.0439 61.2655 20.9677 61.2549C20.8942 61.2446 20.8605 61.2622 20.8407 61.2871C20.8158 61.3188 20.7978 61.3804 20.7978 61.4873C20.7978 61.5522 20.843 61.6485 20.9413 61.7656C21.0369 61.8796 21.1741 62.0025 21.3339 62.1211C21.6543 62.3588 22.0592 62.5703 22.3993 62.6494L22.4003 62.6504C22.6876 62.7224 22.962 62.9865 23.1308 63.3408C23.2016 63.4902 23.3089 63.6531 23.4267 63.7969C23.5154 63.9052 23.6085 64.0007 23.6942 64.0703L23.7773 64.1309C23.9582 64.246 24.0585 64.2972 24.1728 64.3008Z" fill="black" stroke="black" stroke-width="0.133333"/>
<path d="M75.3112 68.752H75.3121C75.3895 68.7365 75.4616 68.6791 75.5231 68.5762C75.5845 68.4731 75.631 68.3299 75.6578 68.1582C75.7047 67.858 75.6898 67.4805 75.5992 67.1006L75.5563 66.9385C75.4588 66.6216 75.4057 66.4155 75.4078 66.25C75.4101 66.0785 75.4714 65.9553 75.5797 65.8047V65.8037C75.6348 65.7172 75.6906 65.6105 75.7321 65.5098C75.7746 65.4064 75.7985 65.318 75.7985 65.2666C75.7986 65.1917 75.8344 65.1018 75.8815 65.0225C75.9298 64.9412 75.9969 64.8602 76.0709 64.8047L76.0739 64.8027C76.1333 64.7631 76.1959 64.6807 76.2467 64.5771C76.2844 64.5003 76.3137 64.4165 76.3287 64.3389L76.3385 64.2637C76.3396 64.1375 76.3802 64.0023 76.4401 63.8848C76.4854 63.7957 76.5442 63.7129 76.61 63.6494L76.6774 63.5928C76.8517 63.4693 76.9389 63.2597 76.9332 63.0273C76.9275 62.795 76.8288 62.545 76.6364 62.3525C76.4662 62.1824 76.2541 62.0832 76.067 62.0586C75.8791 62.034 75.7316 62.0853 75.6608 62.1924C75.6461 62.2191 75.6455 62.2688 75.6881 62.3447C75.7294 62.4183 75.804 62.5013 75.9049 62.5791C76.1104 62.7332 76.2148 62.9313 76.191 63.0869C76.1785 63.1685 76.1298 63.2359 76.0485 63.2676C75.9705 63.2977 75.8717 63.2916 75.7614 63.252L75.7809 63.1963L75.7604 63.252L75.7574 63.251C75.6976 63.2258 75.6485 63.2311 75.609 63.2529C75.5674 63.2759 75.5299 63.3207 75.5055 63.3818C75.4565 63.5048 75.4677 63.6745 75.5729 63.8008L75.5719 63.8018C75.6323 63.8711 75.674 63.9401 75.6862 64.0088C75.6991 64.0821 75.6785 64.149 75.6266 64.2012C75.5775 64.2503 75.5041 64.2829 75.4176 64.3037C75.3301 64.3248 75.2223 64.3359 75.0963 64.3359C74.9935 64.3359 74.9208 64.347 74.8727 64.3662C74.8272 64.3845 74.8079 64.408 74.8004 64.4346C74.7918 64.4658 74.7948 64.5152 74.8229 64.5908C74.8506 64.6656 74.8998 64.7584 74.9723 64.8711L74.9733 64.8721C75.1242 65.1206 75.1083 65.3675 74.9528 65.5352C74.8012 65.6985 74.5331 65.7689 74.2164 65.709L74.2155 65.708C73.9619 65.656 73.6836 65.7532 73.4869 65.9189C73.2879 66.0867 73.1938 66.3049 73.2614 66.4873V66.4883C73.3861 66.8389 73.6598 67.1162 73.9352 67.25C74.0728 67.3169 74.2064 67.3454 74.319 67.334C74.4288 67.3228 74.5202 67.2742 74.5817 67.1797V67.1787C74.614 67.127 74.6466 67.0834 74.6793 67.0508C74.7115 67.0187 74.748 66.9938 74.7877 66.9824C74.83 66.9704 74.8721 66.9753 74.9098 66.998C74.9451 67.0194 74.9718 67.0535 74.9928 67.0918C75.0346 67.1681 75.0641 67.2824 75.0836 67.4258C75.1033 67.5708 75.1139 67.7523 75.1139 67.9668C75.1139 68.1583 75.1166 68.3086 75.1246 68.4258C75.1327 68.544 75.146 68.6246 75.1637 68.6777C75.1811 68.7298 75.1998 68.7464 75.2135 68.7529C75.2299 68.7607 75.258 68.7633 75.3112 68.752ZM73.9283 66.7197C73.8705 66.6966 73.8357 66.6419 73.8356 66.5762C73.8356 66.4453 73.9434 66.3291 74.066 66.3291C74.1215 66.3291 74.1718 66.3379 74.2106 66.3545C74.2297 66.3627 74.2488 66.3743 74.2643 66.3896C74.2797 66.405 74.2954 66.4295 74.2955 66.4609C74.2955 66.5101 74.2659 66.5583 74.234 66.5947C74.1996 66.6341 74.152 66.6728 74.0953 66.7012H74.0944C74.0416 66.7311 73.9811 66.7408 73.9283 66.7197Z" fill="black" stroke="black" stroke-width="0.133333"/>
<path d="M74.3145 63.5356C74.4191 63.5214 74.5392 63.4377 74.624 63.2729L74.6582 63.1978C74.7003 63.0883 74.7549 62.9742 74.8125 62.8804C74.8413 62.8334 74.8719 62.7906 74.9023 62.7554C74.9299 62.7234 74.9609 62.6947 74.9941 62.6763V62.6753C75.0581 62.6324 75.0906 62.5248 75.0371 62.4175L75.0967 62.3872L75.0361 62.4175L75.0332 62.4087C75.0153 62.3549 74.9728 62.3084 74.9121 62.2739C74.8514 62.2394 74.7761 62.2189 74.7031 62.2144C74.6297 62.2098 74.5645 62.2219 74.5205 62.2456C74.4791 62.2679 74.459 62.2983 74.459 62.3384C74.459 62.3766 74.4566 62.4146 74.4453 62.4448C74.4394 62.4606 74.4291 62.4784 74.4121 62.4927C74.3938 62.508 74.3718 62.5151 74.3496 62.5151C74.3115 62.5151 74.2765 62.4944 74.25 62.4751C74.2205 62.4536 74.1871 62.4229 74.1494 62.3853C74.0204 62.2563 73.8835 62.2065 73.7734 62.2163C73.6666 62.226 73.5717 62.2936 73.5225 62.4272V62.4282L73.5068 62.48C73.4829 62.6021 73.5363 62.7369 73.6309 62.8081L73.6299 62.8091C73.7113 62.864 73.7895 62.9467 73.8545 63.0327C73.9204 63.1199 73.9767 63.2137 74.0117 63.2925L74.0137 63.2983C74.0797 63.4889 74.2022 63.5508 74.3145 63.5356Z" fill="black" stroke="black" stroke-width="0.133333"/>
<path d="M26.1136 63.7124C26.2579 63.7124 26.3851 63.6222 26.4467 63.5132C26.4771 63.4592 26.4888 63.405 26.4828 63.3599C26.477 63.3168 26.4544 63.2771 26.4056 63.2466C26.3717 63.2282 26.3399 63.198 26.3119 63.1655C26.2816 63.1304 26.2517 63.0873 26.223 63.0405C26.1654 62.9466 26.1099 62.8327 26.0677 62.7231C25.9835 62.509 25.8442 62.4001 25.723 62.3804C25.6629 62.3706 25.6045 62.382 25.5541 62.4146C25.5161 62.4392 25.48 62.4774 25.4506 62.5317L25.4242 62.5913C25.3794 62.7148 25.4179 62.846 25.5511 62.9692L25.6136 63.022L25.6156 63.0229C25.6987 63.0894 25.7747 63.1574 25.8285 63.2134C25.855 63.241 25.8781 63.2677 25.8939 63.2915C25.9016 63.3031 25.9095 63.3169 25.9144 63.3315C25.9187 63.3444 25.9254 63.372 25.9115 63.3999L25.9105 63.4028L25.8773 63.4741C25.8556 63.5401 25.8644 63.5906 25.8861 63.6245C25.9161 63.6713 25.9871 63.7123 26.1136 63.7124Z" fill="black" stroke="black" stroke-width="0.133333"/>
<path d="M29.7066 71.8564C29.8081 71.8459 29.9152 71.7959 30.0679 71.6914L30.0699 71.6904C30.5082 71.4086 30.6094 71.027 30.4976 70.7471C30.3854 70.4665 30.0453 70.2536 29.5279 70.3398H29.5259C29.2968 70.3726 29.1316 70.3794 28.9947 70.333C28.8543 70.2854 28.754 70.1859 28.6451 70.0352L28.6441 70.0332C28.5514 69.8984 28.4917 69.7746 28.4732 69.6523C28.4591 69.5591 28.4691 69.4698 28.5015 69.3818L28.5415 69.2939C28.6253 69.134 28.6003 69.0389 28.5474 68.9932C28.4861 68.9404 28.3517 68.9163 28.146 68.9795H28.147C27.8674 69.0725 27.6144 68.9477 27.4546 68.7236C27.2957 68.5007 27.2227 68.1744 27.2915 67.8389L27.2925 67.8379C27.3213 67.7145 27.3403 67.6246 27.3482 67.5596C27.3521 67.5273 27.3537 67.504 27.3521 67.4873C27.3505 67.4707 27.3461 67.465 27.3452 67.4639V67.4629C27.3447 67.4625 27.3428 67.461 27.3394 67.46C27.3315 67.4575 27.3172 67.456 27.2935 67.457C27.2454 67.459 27.177 67.4717 27.0786 67.4922H27.0796C26.7749 67.5727 26.4805 67.4555 26.3003 67.2598C26.1426 67.0884 26.0659 66.8479 26.1558 66.6211L26.2046 66.5244C26.3444 66.2908 26.4025 66.0271 26.3833 65.8008C26.3664 65.6014 26.2909 65.4392 26.1695 65.3457L26.1158 65.3105C25.9101 65.2036 25.7981 65.1598 25.6812 65.165C25.5916 65.1691 25.4939 65.2024 25.3462 65.2744L25.1802 65.3594C25.0297 65.4386 24.9404 65.5128 24.8882 65.6084C24.8356 65.7049 24.8149 65.8334 24.8228 66.0332C24.8311 66.1865 24.8245 66.3136 24.7935 66.4092C24.7612 66.5085 24.7 66.5798 24.6021 66.6064C24.5111 66.6311 24.3986 66.6135 24.2701 66.5713C24.1399 66.5285 23.982 66.4567 23.7935 66.3584C23.5211 66.2222 23.2823 66.1748 23.1343 66.1982C23.0609 66.2099 23.0196 66.2374 23.0005 66.2676C22.9824 66.2963 22.974 66.3441 23.0015 66.4209C23.0322 66.4958 23.1032 66.5804 23.2105 66.667C23.3167 66.7527 23.4539 66.8361 23.6089 66.9111C23.9195 67.0614 24.2958 67.1734 24.6294 67.1973H24.6304C24.9838 67.2233 25.4538 67.4484 25.8316 67.7168C26.0216 67.8518 26.1921 68.0007 26.3159 68.1455C26.4371 68.2872 26.5238 68.4366 26.524 68.5723C26.524 68.5897 26.5323 68.6211 26.5542 68.666C26.5754 68.7092 26.6063 68.76 26.646 68.8154C26.7259 68.9267 26.8368 69.0531 26.9566 69.1719C27.0762 69.2905 27.2036 69.4 27.3169 69.4795C27.3737 69.5193 27.4264 69.5511 27.4712 69.5723C27.5171 69.5939 27.5498 69.6015 27.5699 69.6016C27.6592 69.6016 27.7273 69.6603 27.7691 69.7314C27.8109 69.803 27.8326 69.8972 27.8326 69.9961C27.8326 70.0218 27.8439 70.0639 27.8716 70.1211C27.8987 70.1769 27.9394 70.2414 27.9898 70.3096C28.0907 70.4461 28.2298 70.594 28.3804 70.7129C28.539 70.8381 28.6853 70.9803 28.7925 71.1064C28.846 71.1694 28.8915 71.2291 28.9234 71.2822C28.9533 71.3322 28.9781 71.3872 28.9781 71.4355C28.9781 71.4473 28.9828 71.4668 28.9995 71.4941C29.016 71.5209 29.0419 71.551 29.0757 71.583C29.1433 71.6468 29.2389 71.7138 29.3482 71.7686L29.3492 71.7676C29.5005 71.8393 29.6059 71.8669 29.7066 71.8564ZM25.6392 66.1357C25.5768 66.1356 25.52 66.1054 25.48 66.0654C25.4401 66.0255 25.4098 65.9687 25.4097 65.9062C25.4097 65.7671 25.5251 65.6759 25.6392 65.6758C25.7034 65.6758 25.7624 65.6974 25.8052 65.7402C25.848 65.783 25.8697 65.8421 25.8697 65.9062C25.8694 66.0203 25.7783 66.1357 25.6392 66.1357ZM29.7456 71.3711C29.6113 71.371 29.5014 71.2888 29.4449 71.1904C29.389 71.0932 29.3755 70.9594 29.4693 70.8652C29.5697 70.7648 29.6917 70.7224 29.7974 70.7646C29.9034 70.8072 29.9595 70.9213 29.9595 71.0596C29.9595 71.135 29.941 71.2081 29.9077 71.2646C29.8753 71.3195 29.8201 71.3711 29.7456 71.3711Z" fill="black" stroke="black" stroke-width="0.133333"/>
<path d="M73.1299 70.7163C73.1907 70.7269 73.2501 70.7068 73.3135 70.6313C73.3804 70.5517 73.4462 70.4145 73.5108 70.2046L73.5118 70.2036C73.7823 69.3758 73.6068 68.5841 73.003 67.9644C72.7334 67.6866 72.5302 67.5288 72.378 67.4731C72.3038 67.446 72.2473 67.445 72.2032 67.4604C72.1592 67.4759 72.1167 67.5111 72.0772 67.5757L72.0762 67.5786L72.0821 67.6401C72.0937 67.6839 72.1179 67.741 72.1544 67.8081C72.2272 67.9421 72.3435 68.1059 72.4805 68.2671L72.4796 68.2681C72.716 68.529 72.8531 68.7053 72.919 68.9272C72.9679 69.092 72.9766 69.278 72.9678 69.5356L72.9542 69.8188C72.9377 70.1887 72.9386 70.4079 72.9688 70.5405C72.9835 70.605 73.0043 70.6421 73.0274 70.6655C73.05 70.6885 73.0808 70.7057 73.1299 70.7163Z" fill="black" stroke="black" stroke-width="0.133333"/>
<path d="M71.8372 70.7261C71.8504 70.7181 71.8707 70.6913 71.8714 70.605C71.8711 70.6043 71.8718 70.603 71.8714 70.6021C71.8684 70.5954 71.8629 70.5858 71.8548 70.5728C71.8384 70.5462 71.813 70.5106 71.7796 70.4673C71.7131 70.381 71.6171 70.2673 71.5003 70.1353C71.2666 69.871 70.9518 69.5363 70.6312 69.2075C70.3106 68.8788 69.985 68.5557 69.7269 68.3159C69.5979 68.1961 69.4862 68.0981 69.4017 68.0298C69.3592 67.9955 69.3241 67.9694 69.2982 67.9526C69.2883 67.9463 69.2798 67.9431 69.2737 67.9399C69.2723 67.9409 69.2706 67.9417 69.2689 67.9429C69.2533 67.9535 69.2327 67.9703 69.2083 67.9917C69.1601 68.0342 69.1012 68.093 69.0462 68.1558C68.9993 68.2135 68.9828 68.2567 68.9925 68.3101C69.0037 68.3714 69.051 68.4578 69.1693 68.5933C69.4045 68.8627 69.8867 69.2885 70.7718 70.0425C71.2064 70.4115 71.5016 70.6255 71.6849 70.7026C71.7795 70.7424 71.8213 70.7357 71.8372 70.7261Z" fill="black" stroke="black" stroke-width="0.133333"/>
<path d="M25.7209 69.6016C26.0115 69.6016 26.121 69.2336 25.927 69.0684L25.884 69.0381C25.794 68.9923 25.7174 68.9256 25.6633 68.8535C25.6096 68.7819 25.5725 68.6982 25.5725 68.6211C25.5725 68.5204 25.5138 68.439 25.4172 68.3906C25.3196 68.3418 25.1866 68.3292 25.0549 68.373H25.0559C24.9475 68.4114 24.892 68.5059 24.8918 68.6123C24.8918 68.72 24.9493 68.8376 25.0676 68.9072L25.0666 68.9082C25.1443 68.9482 25.217 69.0203 25.2756 69.0977C25.3361 69.1776 25.3864 69.2687 25.4211 69.3467L25.4231 69.3457L25.425 69.3545C25.4453 69.4218 25.4899 69.4845 25.5461 69.5303C25.6028 69.5764 25.6664 69.6015 25.7209 69.6016Z" fill="black" stroke="black" stroke-width="0.133333"/>
<path d="M26.2273 71.1743C26.3435 71.2271 26.4919 71.2274 26.6189 71.1499C26.6875 71.1022 26.7824 71.072 26.8767 71.0552C26.9742 71.0378 27.0793 71.0327 27.1677 71.0415L27.1716 71.0425C27.3305 71.069 27.4416 70.9794 27.4822 70.853C27.5231 70.7251 27.4891 70.5639 27.3513 70.4595C27.2637 70.3981 27.189 70.3231 27.1355 70.2495C27.084 70.1787 27.0449 70.0992 27.0447 70.0288C27.0447 69.9573 26.982 69.8834 26.863 69.8462C26.7478 69.8102 26.6048 69.8184 26.4929 69.8882L26.49 69.8901C26.452 69.912 26.4201 69.9564 26.4031 70.0142C26.3861 70.0719 26.3863 70.135 26.405 70.1851L26.406 70.187C26.465 70.3639 26.3879 70.5514 26.2195 70.6147C26.1165 70.6534 26.0331 70.7737 26.033 70.895C26.033 71.0192 26.1111 71.1215 26.2273 71.1743Z" fill="black" stroke="black" stroke-width="0.133333"/>
<path d="M68.9285 74.4136C69.3161 74.5124 69.7817 74.343 70.1804 74.0044C70.5774 73.6672 70.895 73.1724 70.99 72.6499C71.086 72.1212 70.978 71.7315 70.7683 71.5347C70.5645 71.3436 70.2401 71.3138 69.8474 71.5571H69.8484C69.7193 71.6404 69.6068 71.6887 69.5164 71.6938C69.4695 71.6965 69.4234 71.6875 69.3855 71.6606C69.3475 71.6335 69.3253 71.5935 69.3142 71.5493C69.2931 71.4648 69.3105 71.3516 69.3533 71.2222C69.397 71.0899 69.4704 70.9299 69.574 70.7476C69.6555 70.6049 69.7172 70.4926 69.7605 70.4009C69.804 70.3086 69.8279 70.2403 69.8367 70.187C69.845 70.1358 69.839 70.0988 69.824 70.0649C69.808 70.029 69.7793 69.992 69.7322 69.9448C69.6328 69.8455 69.5882 69.8285 69.5437 69.8394C69.5161 69.8461 69.48 69.8657 69.4285 69.9077C69.403 69.9285 69.3747 69.9536 69.3435 69.9839L69.239 70.0903C68.9961 70.3489 68.8422 70.7037 68.7927 71.0601C68.7432 71.4169 68.7991 71.7673 68.9675 72.02H68.9685C69.1029 72.2256 69.2228 72.3212 69.3865 72.3403C69.5593 72.3605 69.7942 72.2987 70.1628 72.1431C70.272 72.0969 70.3755 72.08 70.4509 72.1265C70.5323 72.177 70.5444 72.2757 70.53 72.3677C70.5005 72.5562 70.3474 72.8342 70.0916 73.1313C69.7985 73.4826 69.4668 73.6738 69.1521 73.6782C68.8328 73.6826 68.5505 73.495 68.3621 73.1353V73.1343C68.2869 72.9879 68.2058 72.878 68.1287 72.8032C68.0505 72.7275 67.9812 72.6917 67.9285 72.6851C67.8809 72.679 67.8421 72.6956 67.8113 72.7397C67.7777 72.7881 67.7518 72.8734 67.7517 73.0054C67.7517 73.1184 67.7905 73.2561 67.8611 73.4028C67.9312 73.5486 68.0307 73.6998 68.1472 73.8403C68.3535 74.0889 68.6058 74.2952 68.8328 74.3833L68.9285 74.4136Z" fill="black" stroke="black" stroke-width="0.133333"/>
<path d="M31.6005 73.7041C32.2584 74.1833 32.7837 74.2725 33.1112 74.085C33.3969 73.9213 33.5676 73.5267 33.5351 72.9033L33.5077 72.6221L33.3935 71.8047L33.3778 71.6943L33.4823 71.7324L34.4149 72.0762C34.7412 72.1985 34.9816 72.2704 35.1542 72.2959C35.3303 72.3219 35.4154 72.2962 35.4569 72.2549C35.5163 72.1955 35.5304 72.1453 35.5214 72.1006C35.5112 72.0507 35.4691 71.9879 35.3739 71.915C35.1839 71.7697 34.8215 71.6135 34.2743 71.4502C33.9353 71.3481 33.6735 71.2806 33.4716 71.2568C33.2683 71.2329 33.1386 71.2541 33.0536 71.3135C32.9702 71.3718 32.914 71.4782 32.8847 71.6631C32.8554 71.8479 32.8556 72.0987 32.872 72.4297C32.8884 72.7582 32.8845 73.0127 32.8612 73.1865C32.8497 73.2726 32.8321 73.3438 32.8075 73.3955C32.784 73.4448 32.7422 73.498 32.6737 73.498C32.6253 73.4979 32.5684 73.4801 32.5116 73.4561C32.4531 73.4312 32.3875 73.3961 32.3183 73.3545C32.1793 73.271 32.0218 73.158 31.8739 73.0391C31.7261 72.9202 31.5861 72.7937 31.4823 72.6826C31.4306 72.6272 31.3859 72.5747 31.3544 72.5273C31.3251 72.4834 31.2987 72.4319 31.2987 72.3838C31.2988 72.3557 31.3109 72.3253 31.3222 72.3008C31.3348 72.2733 31.3523 72.2408 31.3739 72.2051C31.4175 72.1332 31.4795 72.0424 31.5546 71.9395C31.7051 71.7333 31.9112 71.4745 32.1327 71.2119L32.1337 71.2109C32.3609 70.9513 32.5634 70.6878 32.7089 70.4736C32.7816 70.3666 32.8395 70.2724 32.8788 70.1982C32.8985 70.1611 32.9134 70.1293 32.9228 70.1045C32.9328 70.0781 32.9345 70.0644 32.9345 70.0605C32.9344 69.9419 32.9029 69.9103 32.8837 69.9023C32.8712 69.8973 32.8497 69.8944 32.8144 69.9033C32.7787 69.9124 32.7337 69.9325 32.6796 69.9648C32.4609 70.0958 32.1361 70.4074 31.7274 70.8896H31.7265C31.3793 71.3063 31.1204 71.636 30.9462 71.9102C30.7715 72.1851 30.6871 72.3974 30.6796 72.5811C30.6723 72.761 30.7385 72.9239 30.8896 73.1016C31.0423 73.2811 31.2777 73.4712 31.6005 73.7041Z" fill="black" stroke="black" stroke-width="0.133333"/>
<path d="M56.1559 80.9849C56.6347 81.3089 57.2263 81.2829 57.8473 80.853L57.8482 80.8521C58.32 80.5402 58.6099 80.1201 58.6871 79.7827C58.7257 79.614 58.7098 79.4736 58.648 79.3765C58.6029 79.3058 58.5286 79.2506 58.4166 79.2241L58.2916 79.2075C58.2641 79.2074 58.2386 79.2057 58.2174 79.2007C58.2065 79.1981 58.1941 79.1939 58.1822 79.187C58.1702 79.18 58.155 79.1677 58.1461 79.1479C58.1264 79.1035 58.1521 79.0657 58.1637 79.0522C58.1781 79.0354 58.1986 79.0207 58.2193 79.0073C58.2608 78.9804 58.3233 78.9494 58.4039 78.9146L58.6978 78.8003C58.9075 78.7277 59.122 78.6341 59.2975 78.5454C59.3849 78.5011 59.462 78.4579 59.524 78.4194C59.5871 78.3802 59.6309 78.3477 59.6539 78.3247C59.7132 78.2654 59.8144 78.2125 59.9225 78.1743C60.0321 78.1356 60.1584 78.1089 60.274 78.1089C60.5062 78.1089 60.8773 78.0064 61.1939 77.8765C61.351 77.812 61.4909 77.7426 61.5904 77.6782C61.6402 77.646 61.6776 77.6164 61.7018 77.5913C61.7283 77.5636 61.7291 77.5517 61.7291 77.5542C61.7291 77.5224 61.7437 77.4965 61.7584 77.479C61.7733 77.4612 61.7926 77.4456 61.8131 77.4321C61.8543 77.4051 61.9105 77.3793 61.9752 77.356C62.0403 77.3325 62.1173 77.311 62.2018 77.2915L62.4742 77.2427C62.6638 77.219 62.8542 77.1634 63.0123 77.0942C63.1723 77.0242 63.2909 76.9435 63.3463 76.8745C63.408 76.7873 63.487 76.7128 63.5631 76.6636C63.6015 76.6387 63.6411 76.6189 63.6793 76.6079C63.7131 76.5982 63.7516 76.5964 63.7887 76.6079L63.7896 76.606C63.8124 76.611 63.8509 76.6095 63.9068 76.5972C63.9614 76.5852 64.027 76.5636 64.1012 76.5337C64.2495 76.4738 64.4268 76.3822 64.61 76.272C64.9766 76.0512 65.3582 75.762 65.5728 75.5161V75.5151C65.8136 75.2262 65.9397 74.9685 65.9644 74.7251C65.989 74.4835 65.9142 74.2458 65.733 73.9937V73.9927C65.4494 73.59 64.8766 73.5522 64.4762 73.9526C64.3943 74.0346 64.3042 74.1779 64.2281 74.3462C64.1524 74.5136 64.0934 74.6997 64.0699 74.8638V74.8657L63.9547 75.4868C63.9214 75.635 63.888 75.7432 63.8443 75.8081C63.8214 75.842 63.7913 75.8709 63.7506 75.8833C63.7094 75.8957 63.6691 75.8876 63.6344 75.8726C63.57 75.8445 63.4984 75.7805 63.4195 75.7056C63.2723 75.5732 63.1193 75.5683 63.0269 75.6206C62.9391 75.6704 62.8816 75.7865 62.9527 75.9575H62.9537L62.9547 75.9604C62.9952 76.0706 62.9486 76.1777 62.8766 76.2612C62.8038 76.3455 62.6949 76.4184 62.5777 76.4712C62.46 76.5241 62.3278 76.5594 62.2057 76.563C62.0848 76.5666 61.9632 76.5393 61.8795 76.4556C61.7406 76.3167 61.6056 76.2757 61.5172 76.2925C61.4744 76.3007 61.4395 76.3227 61.4146 76.3579C61.3893 76.3939 61.3717 76.4478 61.3717 76.5229C61.3717 76.6305 61.3233 76.7541 61.2545 76.8638C61.185 76.9745 61.0882 77.0804 60.981 77.1519C60.8969 77.2119 60.8268 77.2599 60.7672 77.2886C60.7071 77.3175 60.6433 77.3334 60.5807 77.3091C60.5215 77.2858 60.48 77.2326 60.4449 77.1704C60.4088 77.1063 60.3714 77.0184 60.3268 76.9087C60.2721 76.7841 60.1898 76.6499 60.0992 76.5356C60.0074 76.4199 59.911 76.3304 59.8326 76.2876C59.6896 76.2108 59.551 76.2042 59.4254 76.2476C59.2978 76.2917 59.1788 76.3894 59.0836 76.5269C58.8931 76.8022 58.8062 77.2263 58.9312 77.6489C58.9686 77.7734 58.8917 77.8815 58.774 77.9692C58.6535 78.0591 58.4661 78.1483 58.2193 78.2388H58.2184C57.6616 78.4377 57.3 78.8329 57.1969 79.1665C57.1456 79.3328 57.1603 79.4749 57.233 79.5737C57.3055 79.6721 57.4479 79.7446 57.6891 79.7446L57.692 79.7456L58.1168 79.7612L58.2906 79.7681L58.1568 79.8794L57.7643 80.2065C57.5307 80.3968 57.2288 80.4919 56.9586 80.4897C56.6906 80.4876 56.4352 80.3885 56.3209 80.1694V80.1685C56.2864 80.0995 56.2444 79.986 56.2027 79.8569L56.0865 79.4517L56.0855 79.4487C56.0627 79.3346 56.0172 79.2336 55.9644 79.1626C55.9092 79.0883 55.8571 79.0601 55.8238 79.0601C55.7665 79.0601 55.7211 79.079 55.6842 79.1118C55.6461 79.1458 55.6142 79.198 55.5904 79.2681C55.5427 79.409 55.5342 79.6083 55.565 79.8286C55.5958 80.0479 55.6644 80.2825 55.7662 80.4897C55.8682 80.6975 56.0014 80.8738 56.1568 80.9839L56.1559 80.9849ZM64.6422 75.3491C64.6022 75.3483 64.5639 75.3318 64.5387 75.2964C64.5159 75.2644 64.5091 75.2243 64.5094 75.187C64.5096 75.1488 64.5171 75.105 64.5299 75.0571C64.5556 74.961 64.6066 74.8381 64.6812 74.6929L64.6822 74.6919C64.7749 74.5234 64.8882 74.4022 65.0113 74.3638C65.0752 74.3439 65.1405 74.3469 65.2018 74.3765C65.2601 74.4047 65.3086 74.4549 65.3492 74.521L65.3502 74.52L65.3512 74.5229C65.3518 74.524 65.3534 74.5248 65.3541 74.5259L65.3531 74.5269C65.3669 74.5482 65.3723 74.5711 65.3727 74.5913C65.3731 74.6135 65.3691 74.6362 65.3629 74.6577C65.3504 74.7008 65.3267 74.7497 65.2965 74.7993C65.2356 74.8993 65.1412 75.0148 65.0309 75.1167C64.923 75.2162 64.8297 75.2846 64.7545 75.3198C64.7172 75.3373 64.679 75.3499 64.6422 75.3491ZM59.5865 77.4243C59.4429 77.4242 59.3247 77.369 59.2867 77.2583C59.2503 77.1516 59.3033 77.0339 59.4068 76.937V76.936C59.5045 76.8296 59.6248 76.775 59.733 76.812C59.8437 76.85 59.8989 76.9683 59.899 77.1118C59.899 77.2795 59.7542 77.4243 59.5865 77.4243Z" fill="black" stroke="black" stroke-width="0.133333"/>
<path d="M36.4372 76.6855C36.8633 76.6855 37.1476 76.4858 37.2711 76.1787C37.3965 75.867 37.3618 75.4299 37.1139 74.9502V74.9492C36.9935 74.7084 36.8686 74.5534 36.7419 74.4707C36.6196 74.391 36.4914 74.377 36.3473 74.4268C36.3078 74.4445 36.2646 74.4838 36.2311 74.542C36.1976 74.6003 36.1765 74.6704 36.1764 74.7393C36.1764 74.8407 36.1495 74.9458 36.1042 75.0342C36.0596 75.121 35.9941 75.1989 35.9128 75.2402C35.8671 75.2668 35.8001 75.331 35.7301 75.4189C35.661 75.5058 35.5942 75.6087 35.5475 75.7021L35.5465 75.7041L35.5085 75.7891C35.4374 75.9881 35.4923 76.1927 35.6383 76.3584C35.8064 76.549 36.0943 76.6855 36.4372 76.6855ZM36.4538 76.1152C36.3193 76.1152 36.2086 76.033 36.152 75.9346C36.096 75.8372 36.0831 75.7027 36.1774 75.6084C36.2777 75.5082 36.3989 75.4657 36.5045 75.5078C36.6106 75.5502 36.6675 75.6645 36.6676 75.8027C36.6676 75.8784 36.6484 75.9522 36.6149 76.0088C36.5825 76.0635 36.5281 76.1151 36.4538 76.1152Z" fill="black" stroke="black" stroke-width="0.133333"/>
<path d="M60.8671 75.6846C60.958 75.7408 61.0894 75.7582 61.243 75.709C61.2755 75.6922 61.316 75.6524 61.3485 75.5928C61.3808 75.5336 61.4012 75.4625 61.4012 75.3936C61.4012 75.2594 61.3424 75.159 61.2528 75.1025C61.1631 75.0461 61.0349 75.0289 60.8885 75.0791H60.8895C60.8494 75.0963 60.8055 75.1371 60.7714 75.1963C60.7379 75.2546 60.7167 75.3248 60.7167 75.3936C60.7167 75.5276 60.7759 75.6281 60.8671 75.6846Z" fill="black" stroke="black" stroke-width="0.133333"/>
<path d="M58.9979 75.8184C59.1995 75.8184 59.318 75.7522 59.3641 75.6748C59.4075 75.6021 59.4023 75.4908 59.2909 75.3564C59.1766 75.2258 59.0946 75.1624 59.0302 75.1455C59.0009 75.1379 58.9748 75.1394 58.9481 75.1504C58.92 75.162 58.8874 75.1859 58.8505 75.2266H58.8514L58.8475 75.2305L58.8124 75.2676C58.7404 75.3606 58.7246 75.4881 58.7557 75.6006C58.7916 75.7298 58.8823 75.8184 58.9979 75.8184Z" fill="black" stroke="black" stroke-width="0.133333"/>
<path d="M47.9709 79.9082C48.3602 79.9082 48.6068 79.8241 48.7941 79.6611L48.8713 79.5859C49.0995 79.3016 49.1618 78.8911 49.0978 78.5791C49.0657 78.4226 49.0034 78.2994 48.924 78.2295C48.8489 78.1635 48.754 78.1405 48.634 78.1885H48.633C48.5942 78.203 48.5458 78.2548 48.507 78.3496C48.4697 78.441 48.4465 78.5595 48.4465 78.6826C48.4465 78.7895 48.443 78.878 48.4289 78.9492C48.4146 79.0212 48.3885 79.0823 48.34 79.1279C48.2919 79.1733 48.2289 79.1966 48.1564 79.209C48.0845 79.2212 47.9953 79.2236 47.8889 79.2236C47.7294 79.2236 47.5957 79.2029 47.4992 79.1582C47.4005 79.1124 47.3322 79.0356 47.3322 78.9277C47.3321 78.7612 47.2535 78.664 47.1691 78.6328C47.0861 78.6022 46.9716 78.6268 46.8791 78.7549C46.7302 78.9643 46.5261 79.0664 46.3478 79.0518C46.258 79.0443 46.1753 79.0065 46.1154 78.9385C46.0557 78.8705 46.0226 78.7771 46.0226 78.666C46.0225 78.5095 45.9312 78.4286 45.8351 78.415C45.7377 78.4013 45.6192 78.4549 45.5637 78.6074L45.5627 78.6084L45.5246 78.6855C45.4238 78.8501 45.2416 78.9169 45.0783 78.8984C44.8906 78.8771 44.7141 78.7401 44.7141 78.5029C44.7141 78.4133 44.689 78.3514 44.6545 78.3115C44.6202 78.272 44.5717 78.2483 44.5129 78.2441C44.3931 78.2359 44.2285 78.3091 44.0988 78.4922L44.0978 78.4941C44.0031 78.6202 43.8855 78.6933 43.7482 78.7031C43.6135 78.7128 43.4721 78.6602 43.3283 78.5615C43.0418 78.3648 42.7204 77.966 42.384 77.3916C42.2202 77.1132 42.0682 76.8463 41.9572 76.6387C41.9018 76.5349 41.8564 76.4445 41.8244 76.375C41.8086 76.3406 41.7954 76.3103 41.7863 76.2852C41.7782 76.2628 41.7697 76.2352 41.7697 76.2119C41.7699 76.1694 41.7982 76.1416 41.8166 76.1279C41.8374 76.1125 41.8646 76.1006 41.8928 76.0898C41.9501 76.0681 42.0299 76.0479 42.1242 76.0303C42.3139 75.9948 42.5746 75.9657 42.8625 75.9492H42.8635C43.2477 75.9329 43.4941 75.9047 43.6428 75.8604C43.7167 75.8383 43.7602 75.814 43.7844 75.791C43.8058 75.7705 43.8146 75.749 43.8146 75.7217C43.8146 75.6888 43.8048 75.6657 43.7834 75.6455C43.7588 75.6224 43.7141 75.5984 43.6349 75.5771C43.4756 75.5344 43.2087 75.5105 42.7824 75.4941L42.7814 75.4932C42.4821 75.477 42.1699 75.4855 41.9113 75.5098C41.7823 75.5219 41.6674 75.5379 41.5744 75.5566C41.5268 75.5663 41.4863 75.5768 41.4533 75.5869L41.3771 75.6162C41.1831 75.7242 41.0895 75.9142 41.1027 76.1719C41.1145 76.4009 41.2115 76.6807 41.3976 76.9902L41.4826 77.124C41.6104 77.3137 41.6977 77.4746 41.7404 77.6045C41.782 77.7311 41.788 77.8504 41.7141 77.9336C41.6428 78.0137 41.5196 78.0334 41.3762 78.0234C41.2284 78.0132 41.0366 77.9696 40.8019 77.8955H40.801C40.6306 77.8387 40.496 77.7933 40.3908 77.7432C40.2839 77.6922 40.2025 77.6336 40.1389 77.5488C40.0762 77.4652 40.0344 77.3607 39.9982 77.2236C39.9622 77.0866 39.9296 76.9107 39.8889 76.6826V76.6816C39.7987 76.1655 39.7061 75.8431 39.5998 75.6758C39.5476 75.5937 39.4978 75.5589 39.4523 75.5488C39.4066 75.5388 39.3481 75.5501 39.2697 75.5986C39.2089 75.6425 39.1679 75.7094 39.1516 75.833C39.1346 75.962 39.1452 76.146 39.1857 76.4141C39.219 76.6219 39.2321 76.823 39.2258 76.9795C39.2226 77.0574 39.2148 77.1271 39.2014 77.1816C39.1946 77.2089 39.1854 77.2349 39.174 77.2568C39.1631 77.2778 39.1472 77.3013 39.1223 77.3164C39.0864 77.3379 39.0343 77.3453 38.9846 77.3477C38.9311 77.3502 38.8657 77.3472 38.7941 77.3398C38.7224 77.3325 38.6426 77.3202 38.5588 77.3037L38.3 77.2412C37.8599 77.1108 37.68 77.1385 37.5617 77.2432C37.533 77.2726 37.52 77.3014 37.5158 77.3281C37.5116 77.356 37.5163 77.3885 37.5334 77.4248C37.5686 77.4994 37.6515 77.5833 37.7775 77.6631C38.028 77.8216 38.4202 77.9452 38.8254 77.9453C39.0166 77.9453 39.2093 77.9617 39.3615 77.9912C39.4374 78.006 39.506 78.0246 39.5598 78.0469C39.5867 78.058 39.6119 78.0709 39.633 78.0859C39.6526 78.0999 39.6709 78.1188 39.6838 78.1426L39.6848 78.1416C39.6861 78.1431 39.6909 78.1488 39.7033 78.1582C39.7179 78.1693 39.7393 78.1821 39.7658 78.1973C39.8188 78.2275 39.8912 78.2636 39.9787 78.3008C40.0662 78.338 40.1677 78.3765 40.2775 78.4141L40.6262 78.5205H40.6281C40.9797 78.6268 41.2144 78.6816 41.3937 78.6914C41.5251 78.6985 41.6264 78.6814 41.7228 78.6406L41.8185 78.5928L41.8215 78.5908C41.9761 78.5095 42.0991 78.464 42.216 78.4932C42.3313 78.522 42.4208 78.6199 42.5256 78.7568L42.5266 78.7559C42.9069 79.2311 43.4715 79.4615 43.965 79.3535H43.966C44.0953 79.3277 44.2296 79.3235 44.342 79.3389C44.398 79.3466 44.4508 79.3589 44.4953 79.3779C44.5171 79.3873 44.5387 79.3991 44.5578 79.4131L44.6076 79.4639L44.6115 79.4707C44.6141 79.4758 44.625 79.4892 44.6574 79.5049C44.6881 79.5197 44.7306 79.5334 44.7834 79.5439C44.889 79.5651 45.0263 79.5733 45.1691 79.5654C45.3118 79.557 45.4709 79.5608 45.6105 79.5732C45.6794 79.5794 45.7458 79.5884 45.8039 79.5986L45.9494 79.6348C46.3271 79.7746 47.0811 79.8919 47.7092 79.9082H47.9709Z" fill="black" stroke="black" stroke-width="0.133333"/>
<path d="M46.3309 77.77C46.4357 77.7527 46.5377 77.6842 46.5848 77.5767C46.6011 77.5302 46.5991 77.4623 46.5741 77.3872C46.5489 77.3115 46.5026 77.2353 46.4384 77.1782L46.4354 77.1763C46.3656 77.1064 46.3043 77.0234 46.2626 76.9487C46.2417 76.9114 46.2244 76.874 46.2137 76.8403C46.2044 76.811 46.1973 76.7751 46.204 76.7417V76.7407C46.2499 76.4722 46.1474 76.3149 46.0438 76.272C45.9923 76.2506 45.9335 76.2533 45.8759 76.2876C45.8171 76.3226 45.7561 76.3933 45.7108 76.5142L45.7098 76.5151L45.6366 76.6577C45.6066 76.7066 45.5718 76.756 45.535 76.8032C45.4613 76.898 45.3759 76.9887 45.2968 77.0503L45.2938 77.0522C45.1052 77.1883 45.0767 77.3404 45.12 77.436C45.1639 77.5326 45.3011 77.6164 45.537 77.5708L45.5399 77.5698C45.6522 77.5526 45.7655 77.5527 45.8583 77.5659C45.9044 77.5725 45.9471 77.5831 45.9833 77.5972C46.0178 77.6106 46.0537 77.6306 46.077 77.6616L46.078 77.6606L46.0819 77.6685C46.1301 77.7527 46.2262 77.7872 46.3309 77.77Z" fill="black" stroke="black" stroke-width="0.133333"/>
<path d="M50.1724 80.1499C50.1762 80.1402 50.1825 80.1226 50.189 80.0942C50.1969 80.0598 50.2051 80.0148 50.2134 79.9604C50.2299 79.8518 50.2462 79.7085 50.2622 79.5415C50.2943 79.2077 50.3238 78.7818 50.3462 78.354C50.3687 77.9262 50.3837 77.4968 50.3872 77.1567C50.389 76.9868 50.3879 76.8394 50.3833 76.7261C50.381 76.6695 50.3785 76.6218 50.3745 76.5845C50.3706 76.5476 50.3654 76.5248 50.3618 76.5132C50.3113 76.3927 50.2213 76.3151 50.1275 76.2886C50.0347 76.2625 49.933 76.2839 49.8521 76.3716V76.3726C49.855 76.3689 49.855 76.3672 49.8531 76.3716C49.8511 76.3762 49.8476 76.3847 49.8443 76.3979C49.8376 76.4241 49.8305 76.4625 49.8238 76.5122C49.8103 76.6112 49.7988 76.7497 49.7886 76.9175C49.7683 77.2532 49.7554 77.7019 49.7554 78.1753C49.7554 78.8293 49.7719 79.28 49.8081 79.5825C49.8263 79.7336 49.8495 79.8451 49.8765 79.9253C49.9037 80.0059 49.933 80.0485 49.9595 80.0698L49.9615 80.0718C50.0205 80.1234 50.0763 80.1492 50.1167 80.1567C50.1513 80.1631 50.1662 80.1552 50.1724 80.1499Z" fill="black" stroke="black" stroke-width="0.133333"/>
<path d="M48.7068 77.5361C48.744 77.5361 48.7924 77.5118 48.8387 77.4531C48.884 77.3957 48.9206 77.3121 48.9354 77.2158L48.9363 77.2148C48.9606 77.0775 48.9462 77.0156 48.9207 76.9854C48.8949 76.955 48.8371 76.9326 48.7068 76.9326C48.5769 76.9327 48.5198 76.9551 48.494 76.9854C48.4684 77.0155 48.4541 77.0773 48.4783 77.2148V77.2158C48.4931 77.3121 48.5307 77.3957 48.576 77.4531C48.6221 77.5115 48.6698 77.536 48.7068 77.5361Z" fill="black" stroke="black" stroke-width="0.133333"/>
<path d="M51.68 80.167C51.8418 80.1487 52.0224 80.105 52.1985 80.043C52.3745 79.981 52.5445 79.901 52.6868 79.8115C52.8299 79.7216 52.9411 79.625 53.0032 79.5303C53.143 79.3128 53.1893 79.1138 53.137 78.8896C53.0834 78.6604 52.9245 78.3968 52.6321 78.0557L52.6312 78.0537C52.4079 77.7828 52.1635 77.6317 51.9847 77.6006C51.896 77.5852 51.8313 77.6009 51.7903 77.6338C51.7503 77.6661 51.7191 77.7265 51.7191 77.832C51.7191 77.9033 51.7556 78.005 51.8245 78.1133C51.892 78.2193 51.9851 78.3228 52.0843 78.3994C52.2496 78.5192 52.3736 78.6294 52.4525 78.7314C52.531 78.833 52.5725 78.9377 52.5472 79.042C52.5222 79.1444 52.4382 79.224 52.3216 79.2891C52.2033 79.355 52.0388 79.4131 51.8323 79.4668H51.8314C51.4601 79.5556 51.2137 79.7026 51.1194 79.8359C51.0744 79.8999 51.0698 79.9525 51.0882 79.9951C51.1085 80.0417 51.1646 80.0955 51.2835 80.1416L51.2825 80.1426C51.3787 80.1781 51.517 80.1853 51.68 80.167Z" fill="black" stroke="black" stroke-width="0.133333"/>
</g>
<defs>
<clipPath id="clip0_490_44">
<rect width="100" height="100" fill="white"/>
</clipPath>
</defs>
</svg>
