<svg width="100" height="100" viewBox="0 0 100 100" fill="none" xmlns="http://www.w3.org/2000/svg">
<g clip-path="url(#clip0_264_21)">
<path opacity="0.996" fill-rule="evenodd" clip-rule="evenodd" d="M49.7913 3C56.3226 3.12198 61.8072 5.51049 66.2449 10.1655C70.0248 14.3111 71.9437 19.1818 72.0015 24.7776C71.9511 25.7726 71.4402 26.4049 70.4693 26.6744C69.7361 26.8281 69.0009 26.8373 68.264 26.7025C67.345 26.4889 66.8057 25.9221 66.6459 25.0024C66.5665 24.2535 66.4904 23.5044 66.4168 22.7544C65.8388 18.5986 63.9534 15.1469 60.7604 12.3995C57.2357 9.57023 53.188 8.28698 48.6171 8.54978C44.3921 8.98106 40.817 10.6905 37.8915 13.6781C35.5338 16.16 34.1018 19.0918 33.5955 22.4734C33.513 23.2785 33.4368 24.0841 33.3664 24.89C33.2 26.0087 32.5461 26.6317 31.4045 26.7587C30.8784 26.8163 30.3532 26.807 29.8293 26.7306C28.7602 26.5715 28.1539 25.9674 28.0107 24.9181C27.9257 21.8423 28.5271 18.9011 29.815 16.0947C32.1059 11.1588 35.7383 7.51047 40.7125 5.14966C42.4589 4.36763 44.2822 3.83373 46.1827 3.54795C47.3907 3.37134 48.5936 3.18869 49.7913 3Z" fill="#7EE4F1"/>
<path opacity="0.997" fill-rule="evenodd" clip-rule="evenodd" d="M49.1899 13.4813C53.483 13.324 57.0773 14.7852 59.9728 17.8649C61.7479 19.8654 62.7311 22.1977 62.9227 24.8619C63.0273 26.3588 63.0797 27.8573 63.0803 29.3579C63.0321 31.9712 62.994 34.5845 62.9657 37.1978C62.9711 38.8468 62.9952 40.4951 63.0373 42.1435C63.0697 44.1299 63.0505 46.1157 62.98 48.1007C62.8786 52.1946 61.1648 55.459 57.8392 57.8936C54.4565 60.2377 50.7428 60.9495 46.6983 60.0292C43.0467 58.9934 40.2924 56.853 38.4357 53.6083C37.6019 52.0594 37.1151 50.4111 36.975 48.6627C36.922 48.1485 36.8837 47.6334 36.8605 47.1172C36.8413 42.2466 36.8413 37.3757 36.8605 32.5051C36.8848 29.8991 36.9707 27.2953 37.1182 24.6933C37.2462 22.3545 38.0387 20.2658 39.4953 18.4269C41.7149 15.752 44.574 14.1456 48.073 13.6078C48.449 13.5615 48.8213 13.5194 49.1899 13.4813ZM49.3331 18.0897C52.0336 17.975 54.3199 18.8648 56.1924 20.7593C57.3342 22.0075 58.031 23.4687 58.2831 25.1429C58.4529 26.2916 58.4815 27.4437 58.369 28.5992C57.2297 28.6158 56.089 28.6391 54.9465 28.6694C53.8734 28.7625 53.0285 29.2354 52.4119 30.0885C51.9362 30.9576 51.8695 31.8568 52.2114 32.7861C52.6708 33.7359 53.4298 34.3119 54.4883 34.5143C54.6682 34.5514 54.8497 34.5795 55.0325 34.5986C56.1397 34.6497 57.2472 34.6542 58.3547 34.6126C58.3547 35.2308 58.3547 35.849 58.3547 36.4672C57.2371 36.456 56.1202 36.47 55.0038 36.5094C54.0149 36.5942 53.1986 37.0017 52.5551 37.7317C51.9909 38.5531 51.8477 39.443 52.1255 40.4013C52.4824 41.351 53.1554 41.9737 54.1446 42.2699C54.4448 42.3551 54.7501 42.4113 55.0611 42.4385C56.1589 42.4868 57.2566 42.4916 58.3547 42.4526C58.3547 44.0169 58.3547 45.5809 58.3547 47.1453C52.7891 47.1453 47.2232 47.1453 41.6576 47.1453C41.6576 45.5809 41.6576 44.0169 41.6576 42.4526C42.7081 42.4916 43.7581 42.4868 44.808 42.4385C45.797 42.3536 46.6132 41.9462 47.2567 41.2162C47.9805 40.1582 48.0283 39.0718 47.3999 37.9565C46.7701 37.1017 45.9155 36.6193 44.8367 36.5094C43.7678 36.458 42.6984 36.4532 41.629 36.4953C41.629 35.8679 41.629 35.2401 41.629 34.6126C42.7365 34.6534 43.844 34.6486 44.9512 34.5986C45.7586 34.5314 46.4746 34.2504 47.0992 33.7556C47.9169 32.9395 48.189 31.9701 47.9154 30.8472C47.674 29.9826 47.1344 29.3691 46.2973 29.0066C45.8769 28.8254 45.4375 28.713 44.9799 28.6694C43.8635 28.6295 42.7465 28.6155 41.629 28.6273C41.5402 27.5581 41.5545 26.4903 41.672 25.4239C42.0534 22.654 43.4617 20.5606 45.8963 19.1435C46.9698 18.5566 48.1154 18.2054 49.3331 18.0897Z" fill="#7EE4F1"/>
<path opacity="0.997" fill-rule="evenodd" clip-rule="evenodd" d="M21.266 28.6554C24.4754 28.5705 27.559 29.1373 30.5167 30.3554C30.8936 30.526 31.2467 30.7323 31.5764 30.9736C32.1262 31.4311 32.3219 32.0072 32.1635 32.7018C31.959 33.5527 31.5867 34.3207 31.0465 35.006C30.6917 35.3531 30.2621 35.5312 29.7577 35.5399C29.463 35.5205 29.172 35.4784 28.8842 35.4135C28.0671 35.1401 27.246 34.8776 26.4212 34.6267C21.64 33.4195 17.1531 34.0843 12.9605 36.6218C8.99873 39.2258 6.58823 42.846 5.72889 47.4825C4.7539 52.7066 6.09044 57.2588 9.73847 61.1391C11.0786 62.5394 12.5917 63.7148 14.2779 64.6657C17.4691 66.3694 20.8582 66.9219 24.445 66.3236C25.0711 66.2177 25.6914 66.0864 26.3066 65.9302C27.0833 65.7074 27.8566 65.4733 28.6265 65.2277C29.1033 65.0847 29.5902 65.0285 30.0871 65.0591C30.543 65.1212 30.9105 65.332 31.1897 65.6914C31.6371 66.307 31.9616 66.9814 32.1635 67.7146C32.3284 68.541 32.0658 69.2013 31.3759 69.6956C30.9509 69.9884 30.4926 70.2225 30.0012 70.3981C24.7836 72.3449 19.5519 72.3826 14.3065 70.5105C9.48661 68.666 5.73 65.5798 3.03674 61.2515C0.38953 56.7305 -0.526946 51.8877 0.287314 46.7238C1.17103 41.7509 3.50517 37.578 7.28976 34.2052C11.2769 30.7663 15.9357 28.9162 21.266 28.6554Z" fill="#7EE4F1"/>
<path opacity="0.997" fill-rule="evenodd" clip-rule="evenodd" d="M77.2856 28.6552C82.5499 28.5771 87.2755 30.0805 91.4623 33.1653C95.4885 36.2999 98.1377 40.3227 99.4099 45.2343C100.408 49.5367 100.14 53.761 98.608 57.9075C96.4047 63.3665 92.6002 67.3615 87.195 69.8922C82.124 72.1231 76.921 72.4695 71.5863 70.9319C70.711 70.6863 69.871 70.3584 69.0659 69.9484C68.211 69.4648 67.8911 68.7482 68.1065 67.7987C68.2915 67.1077 68.5779 66.4614 68.9657 65.8598C69.4239 65.2444 70.0397 64.9963 70.813 65.1152C71.0444 65.1511 71.2735 65.1981 71.5003 65.2557C73.2276 65.9017 75.0127 66.2951 76.856 66.4359C81.5873 66.6933 85.7209 65.2978 89.257 62.249C92.121 59.5941 93.8251 56.3392 94.3693 52.4842C95.1477 46.9813 93.4912 42.3307 89.4002 38.5324C84.6724 34.2323 79.2022 32.9863 72.9896 34.7951C72.2896 35.0491 71.5737 35.2458 70.8416 35.3852C70.1061 35.5193 69.4998 35.3085 69.023 34.753C68.4794 33.9771 68.15 33.1201 68.0349 32.1818C68.0547 31.5622 68.3219 31.0752 68.8368 30.7206C69.3942 30.3789 69.9859 30.1075 70.6125 29.9057C72.7745 29.147 74.9987 28.7303 77.2856 28.6552Z" fill="#7EE4F1"/>
<path opacity="0.996" fill-rule="evenodd" clip-rule="evenodd" d="M16.3686 47.2294C17.562 47.2412 18.7553 47.2553 19.9486 47.2716C20.398 47.2766 20.8468 47.2955 21.2947 47.3278C23.0039 47.5998 23.911 48.5833 24.0155 50.2783C23.9244 51.81 23.1225 52.7654 21.6097 53.1445C21.3082 53.2136 21.0029 53.251 20.6933 53.2569C18.2302 53.2757 15.7672 53.2757 13.3042 53.2569C12.3356 53.2527 11.5002 52.9295 10.7982 52.2875C10.0677 51.4394 9.84816 50.4747 10.1395 49.3931C10.5375 48.2537 11.3442 47.5745 12.5595 47.3559C12.7113 47.3297 12.8641 47.3109 13.0178 47.2997C14.1394 47.2758 15.2564 47.2525 16.3686 47.2294Z" fill="#7EE4F1"/>
<path opacity="0.997" fill-rule="evenodd" clip-rule="evenodd" d="M30.3734 47.2579C30.9474 47.2286 31.5107 47.2893 32.0632 47.4405C32.5999 47.6395 32.9771 48 33.1944 48.5224C33.2695 48.7236 33.3268 48.9298 33.3663 49.1406C33.4396 49.9181 33.5158 50.6956 33.5954 51.4729C34.3065 56.1454 36.6026 59.8501 40.4833 62.5865C44.4654 65.2077 48.8186 66.088 53.5431 65.2279C57.2831 64.3472 60.3714 62.4597 62.8081 59.5657C64.6542 57.3287 65.8187 54.7808 66.3021 51.9225C66.411 50.9567 66.5255 49.992 66.6458 49.0282C66.8068 48.1773 67.308 47.6293 68.1494 47.3843C69.0487 47.1901 69.9365 47.2275 70.8129 47.4967C71.3974 47.7426 71.7652 48.1686 71.9155 48.7753C71.9516 48.9332 71.9803 49.0925 72.0015 49.253C72.0172 53.7734 70.719 57.8853 68.1064 61.5889C64.4062 66.659 59.3991 69.7127 53.0848 70.7496C53.0699 75.3867 53.0462 80.0232 53.0132 84.6591C52.9144 85.5508 52.5372 86.3047 51.882 86.9212C50.9423 87.6094 49.9207 87.7499 48.8175 87.3427C47.9388 86.9299 47.3709 86.2603 47.1134 85.3335C47.0364 85.0573 46.9885 84.7763 46.9702 84.4905C46.9608 79.9383 46.951 75.3861 46.9416 70.8339C45.7997 70.5363 44.659 70.2317 43.5191 69.9206C37.8032 68.1183 33.4929 64.6479 30.5882 59.5095C28.8661 56.3098 28.0069 52.9004 28.0106 49.2811C28.0387 48.6502 28.2916 48.1304 28.7696 47.7215C29.2619 47.42 29.7966 47.2654 30.3734 47.2579Z" fill="#7EE4F1"/>
<path opacity="0.997" fill-rule="evenodd" clip-rule="evenodd" d="M80.1497 47.2576C82.4219 47.2472 84.6939 47.2612 86.9659 47.2997C88.0597 47.3652 88.9235 47.8289 89.5579 48.6907C90.0009 49.4941 90.0963 50.3371 89.8443 51.2197C89.5138 52.1153 88.8885 52.7194 87.9683 53.0322C87.6702 53.13 87.3646 53.1957 87.0519 53.2289C84.4746 53.2747 81.897 53.2839 79.3191 53.257C78.4275 53.2528 77.6351 52.981 76.942 52.4421C76.1346 51.6494 75.8437 50.6987 76.0685 49.5899C76.3681 48.4341 77.1081 47.7083 78.2881 47.4121C78.4402 47.3804 78.5928 47.3523 78.7463 47.3278C79.2183 47.2992 79.686 47.2759 80.1497 47.2576Z" fill="#7EE4F1"/>
<path opacity="0.996" fill-rule="evenodd" clip-rule="evenodd" d="M30.1445 73.7562C30.5266 73.7514 30.9083 73.7562 31.2901 73.7702C32.4815 73.8433 33.1738 74.4567 33.3665 75.6108C33.4395 76.3695 33.516 77.1282 33.5956 77.8869C34.2893 82.4872 36.5186 86.1728 40.283 88.9443C44.3797 91.7321 48.8761 92.6313 53.7724 91.6419C58.3155 90.489 61.8047 87.9555 64.2403 84.0408C65.7215 81.5534 66.4948 78.8651 66.5601 75.9761C66.6042 75.4813 66.7569 75.0224 67.0183 74.5992C67.3929 74.1319 67.8847 73.8649 68.4933 73.7983C69.136 73.7287 69.7755 73.7475 70.4122 73.8545C71.3885 74.106 71.9183 74.729 72.0017 75.7232C72.0435 80.1709 70.7928 84.2266 68.2499 87.8906C64.9846 92.4518 60.5884 95.4256 55.0612 96.8123C49.365 98.0533 43.9807 97.2664 38.9083 94.4519C33.6927 91.3545 30.28 86.9101 28.6696 81.1184C28.2646 79.5361 28.0306 77.9296 27.9679 76.2993C27.9693 75.8216 28.0504 75.3579 28.2113 74.9083C28.4462 74.4061 28.8328 74.0737 29.3712 73.9107C29.6293 73.8405 29.8871 73.7891 30.1445 73.7562Z" fill="#7EE4F1"/>
</g>
<defs>
<clipPath id="clip0_264_21">
<rect width="100" height="100" fill="white"/>
</clipPath>
</defs>
</svg>
