<svg width="100" height="100" viewBox="0 0 100 100" fill="none" xmlns="http://www.w3.org/2000/svg">
<g clip-path="url(#clip0_509_981)">
<path d="M95.3888 30.6701C95.3888 29.8691 96.0442 29.2138 96.8451 29.2138H80.583V32.1264H96.8451C96.0442 32.1264 95.3888 31.4711 95.3888 30.6701ZM96.8451 29.2138C97.6461 29.2138 98.3014 29.8691 98.3014 30.6701V29.2138H96.8451ZM96.8451 32.1264H98.3014V30.6701C98.3014 31.4711 97.6461 32.1264 96.8451 32.1264ZM96.8451 27.5148C95.6315 27.5148 94.5636 28.1944 94.0539 29.2138C93.8354 29.6507 93.6898 30.1361 93.6898 30.6701C93.6898 31.2041 93.8111 31.6895 94.0539 32.1264C94.5878 33.1458 95.6315 33.8254 96.8451 33.8254C98.5927 33.8254 100 32.4177 100 30.6701C100 28.9225 98.5927 27.5148 96.8451 27.5148ZM96.8451 32.1264C96.0442 32.1264 95.3888 31.4711 95.3888 30.6701C95.3888 29.8691 96.0442 29.2138 96.8451 29.2138C97.6461 29.2138 98.3014 29.8691 98.3014 30.6701C98.3014 31.4711 97.6461 32.1264 96.8451 32.1264Z" fill="#BBBBBB"/>
<path d="M94.4179 36.7379C93.2043 36.7379 92.1364 37.4175 91.6267 38.4369C91.4082 38.8738 91.2626 39.3593 91.2626 39.8933C91.2626 40.4272 91.384 40.9127 91.6267 41.3496C92.1607 42.369 93.2043 43.0486 94.4179 43.0486C96.1655 43.0486 97.5733 41.6408 97.5733 39.8933C97.5733 38.1457 96.1655 36.7379 94.4179 36.7379ZM94.4179 41.3496C93.617 41.3496 92.9616 40.6942 92.9616 39.8933C92.9616 39.0923 93.617 38.4369 94.4179 38.4369C95.2189 38.4369 95.8742 39.0923 95.8742 39.8933C95.8742 40.6942 95.2189 41.3496 94.4179 41.3496ZM94.4179 41.3496H95.8742V39.8933C95.8742 40.6942 95.2189 41.3496 94.4179 41.3496ZM94.4179 38.4369C95.2189 38.4369 95.8742 39.0923 95.8742 39.8933V38.4369H94.4179ZM92.9616 39.8933C92.9616 39.0923 93.617 38.4369 94.4179 38.4369H80.583V41.3496H94.4179C93.617 41.3496 92.9616 40.6942 92.9616 39.8933Z" fill="#BBBBBB"/>
<path d="M91.9908 45.9612C90.7772 45.9612 89.7092 46.6408 89.1995 47.6602C88.9811 48.0971 88.8354 48.5825 88.8354 49.1165C88.8354 49.6505 88.9568 50.1359 89.1995 50.5728C89.7335 51.5922 90.7772 52.2719 91.9908 52.2719C93.7383 52.2719 95.1461 50.8641 95.1461 49.1165C95.1461 47.3689 93.7383 45.9612 91.9908 45.9612ZM91.9908 50.5728C91.1898 50.5728 90.5345 49.9175 90.5345 49.1165C90.5345 48.3155 91.1898 47.6602 91.9908 47.6602C92.7917 47.6602 93.4471 48.3155 93.4471 49.1165C93.4471 49.9175 92.7917 50.5728 91.9908 50.5728ZM91.9908 50.5728H93.4471V49.1165C93.4471 49.9175 92.7917 50.5728 91.9908 50.5728ZM91.9908 47.6602C92.7917 47.6602 93.4471 48.3155 93.4471 49.1165V47.6602H91.9908ZM90.5345 49.1165C90.5345 48.3155 91.1898 47.6602 91.9908 47.6602H80.583V50.5728H91.9908C91.1898 50.5728 90.5345 49.9175 90.5345 49.1165Z" fill="#BBBBBB"/>
<path d="M5.94659 29.2138C5.41261 28.1944 4.36893 27.5148 3.15534 27.5148C1.40777 27.5148 0 28.9225 0 30.6701C0 32.4177 1.40777 33.8254 3.15534 33.8254C4.36893 33.8254 5.43689 33.1458 5.94659 32.1264C6.16504 31.6895 6.31067 31.2041 6.31067 30.6701C6.31067 30.1361 6.18931 29.6507 5.94659 29.2138ZM1.69903 30.6701C1.69903 29.8691 2.35437 29.2138 3.15534 29.2138C3.95631 29.2138 4.61164 29.8691 4.61164 30.6701C4.61164 31.4711 3.95631 32.1264 3.15534 32.1264C2.35437 32.1264 1.69903 31.4711 1.69903 30.6701ZM3.15534 29.2138C3.95631 29.2138 4.61164 29.8691 4.61164 30.6701C4.61164 31.4711 3.95631 32.1264 3.15534 32.1264H19.1747V29.2138H3.15534ZM3.15534 29.2138H1.69903V30.6701C1.69903 29.8691 2.35437 29.2138 3.15534 29.2138ZM1.69903 30.6701V32.1264H3.15534C2.35437 32.1264 1.69903 31.4711 1.69903 30.6701Z" fill="#BBBBBB"/>
<path d="M8.37335 38.4369C7.83937 37.4175 6.79568 36.7379 5.58209 36.7379C3.83452 36.7379 2.42676 38.1457 2.42676 39.8933C2.42676 41.6408 3.83452 43.0486 5.58209 43.0486C6.79568 43.0486 7.86364 42.369 8.37335 41.3496C8.5918 40.9127 8.73743 40.4272 8.73743 39.8933C8.73743 39.3593 8.61607 38.8738 8.37335 38.4369ZM4.12578 39.8933C4.12578 39.0923 4.78112 38.4369 5.58209 38.4369C6.38306 38.4369 7.0384 39.0923 7.0384 39.8933C7.0384 40.6942 6.38306 41.3496 5.58209 41.3496C4.78112 41.3496 4.12578 40.6942 4.12578 39.8933ZM5.58209 38.4369C6.38306 38.4369 7.0384 39.0923 7.0384 39.8933C7.0384 40.6942 6.38306 41.3496 5.58209 41.3496H19.1743V38.4369H5.58209ZM5.58209 38.4369H4.12578V39.8933C4.12578 39.0923 4.78112 38.4369 5.58209 38.4369ZM4.12578 39.8933V41.3496H5.58209C4.78112 41.3496 4.12578 40.6942 4.12578 39.8933Z" fill="#BBBBBB"/>
<path d="M10.8011 47.6602C10.2671 46.6408 9.22342 45.9612 8.00983 45.9612C6.26226 45.9612 4.85449 47.3689 4.85449 49.1165C4.85449 50.8641 6.26226 52.2719 8.00983 52.2719C9.22342 52.2719 10.2914 51.5922 10.8011 50.5728C11.0195 50.1359 11.1652 49.6505 11.1652 49.1165C11.1652 48.5825 11.0438 48.0971 10.8011 47.6602ZM6.55352 49.1165C6.55352 48.3155 7.20886 47.6602 8.00983 47.6602C8.8108 47.6602 9.46614 48.3155 9.46614 49.1165C9.46614 49.9175 8.8108 50.5728 8.00983 50.5728C7.20886 50.5728 6.55352 49.9175 6.55352 49.1165ZM8.00983 47.6602C8.8108 47.6602 9.46614 48.3155 9.46614 49.1165C9.46614 49.9175 8.8108 50.5728 8.00983 50.5728H19.1749V47.6602H8.00983ZM8.00983 47.6602H6.55352V49.1165C6.55352 48.3155 7.20886 47.6602 8.00983 47.6602ZM6.55352 49.1165V50.5728H8.00983C7.20886 50.5728 6.55352 49.9175 6.55352 49.1165Z" fill="#BBBBBB"/>
<path d="M49.8784 15.6214V3C49.8784 3 41.2377 8.53398 32.8639 10.8883C25.0484 13.0971 17.4756 11.8835 17.4756 11.8835V66.0825L49.8784 97.4174V94.0194L19.9028 65.0873V24.0437L49.8784 15.6214ZM66.893 10.8883C58.5435 8.53398 49.8784 3 49.8784 3V15.6214L79.8541 24.0437V65.0873L49.8784 94.0194V97.4174L82.2813 66.0582V11.8592C82.2813 11.8592 74.7085 13.0728 66.893 10.8883Z" fill="#BBBBBB"/>
<path d="M32.5242 53.9711C31.7233 53.9711 31.0679 54.6264 31.0679 55.4274C31.0679 56.2284 31.7233 56.8837 32.5242 56.8837C33.3252 56.8837 33.9805 56.2284 33.9805 55.4274C33.9805 54.6264 33.3252 53.9711 32.5242 53.9711ZM32.5242 53.9711C31.7233 53.9711 31.0679 54.6264 31.0679 55.4274C31.0679 56.2284 31.7233 56.8837 32.5242 56.8837C33.3252 56.8837 33.9805 56.2284 33.9805 55.4274C33.9805 54.6264 33.3252 53.9711 32.5242 53.9711ZM32.5242 53.9711C31.7233 53.9711 31.0679 54.6264 31.0679 55.4274C31.0679 56.2284 31.7233 56.8837 32.5242 56.8837C33.3252 56.8837 33.9805 56.2284 33.9805 55.4274C33.9805 54.6264 33.3252 53.9711 32.5242 53.9711ZM32.5242 53.9711C31.7233 53.9711 31.0679 54.6264 31.0679 55.4274C31.0679 56.2284 31.7233 56.8837 32.5242 56.8837C33.3252 56.8837 33.9805 56.2284 33.9805 55.4274C33.9805 54.6264 33.3252 53.9711 32.5242 53.9711ZM32.5242 41.3497C31.7233 41.3497 31.0679 42.0051 31.0679 42.8061C31.0679 43.607 31.7233 44.2624 32.5242 44.2624C33.3252 44.2624 33.9805 43.607 33.9805 42.8061C33.9805 42.0051 33.3252 41.3497 32.5242 41.3497ZM32.5242 41.3497C31.7233 41.3497 31.0679 42.0051 31.0679 42.8061C31.0679 43.607 31.7233 44.2624 32.5242 44.2624C33.3252 44.2624 33.9805 43.607 33.9805 42.8061C33.9805 42.0051 33.3252 41.3497 32.5242 41.3497ZM32.5242 41.3497C31.7233 41.3497 31.0679 42.0051 31.0679 42.8061C31.0679 43.607 31.7233 44.2624 32.5242 44.2624C33.3252 44.2624 33.9805 43.607 33.9805 42.8061C33.9805 42.0051 33.3252 41.3497 32.5242 41.3497ZM55.8252 73.1458C55.0242 73.1458 54.3689 73.8012 54.3689 74.6022C54.3689 75.4031 55.0242 76.0585 55.8252 76.0585C56.6262 76.0585 57.2815 75.4031 57.2815 74.6022C57.2815 73.8012 56.6262 73.1458 55.8252 73.1458ZM55.8252 73.1458C55.0242 73.1458 54.3689 73.8012 54.3689 74.6022C54.3689 75.4031 55.0242 76.0585 55.8252 76.0585C56.6262 76.0585 57.2815 75.4031 57.2815 74.6022C57.2815 73.8012 56.6262 73.1458 55.8252 73.1458ZM55.8252 73.1458C55.0242 73.1458 54.3689 73.8012 54.3689 74.6022C54.3689 75.4031 55.0242 76.0585 55.8252 76.0585C56.6262 76.0585 57.2815 75.4031 57.2815 74.6022C57.2815 73.8012 56.6262 73.1458 55.8252 73.1458ZM67.4757 53.9711C66.6747 53.9711 66.0193 54.6264 66.0193 55.4274C66.0193 56.2284 66.6747 56.8837 67.4757 56.8837C68.2766 56.8837 68.932 56.2284 68.932 55.4274C68.932 54.6264 68.2766 53.9711 67.4757 53.9711ZM67.4757 53.9711C66.6747 53.9711 66.0193 54.6264 66.0193 55.4274C66.0193 56.2284 66.6747 56.8837 67.4757 56.8837C68.2766 56.8837 68.932 56.2284 68.932 55.4274C68.932 54.6264 68.2766 53.9711 67.4757 53.9711ZM67.4757 53.9711C66.6747 53.9711 66.0193 54.6264 66.0193 55.4274C66.0193 56.2284 66.6747 56.8837 67.4757 56.8837C68.2766 56.8837 68.932 56.2284 68.932 55.4274C68.932 54.6264 68.2766 53.9711 67.4757 53.9711ZM55.8252 73.1458C55.0242 73.1458 54.3689 73.8012 54.3689 74.6022C54.3689 75.4031 55.0242 76.0585 55.8252 76.0585C56.6262 76.0585 57.2815 75.4031 57.2815 74.6022C57.2815 73.8012 56.6262 73.1458 55.8252 73.1458ZM67.4757 53.9711C66.6747 53.9711 66.0193 54.6264 66.0193 55.4274C66.0193 56.2284 66.6747 56.8837 67.4757 56.8837C68.2766 56.8837 68.932 56.2284 68.932 55.4274C68.932 54.6264 68.2766 53.9711 67.4757 53.9711ZM68.932 23.607V52.6361C69.9514 53.1701 70.631 54.2138 70.631 55.4274C70.631 57.175 69.2232 58.5827 67.4757 58.5827C65.7281 58.5827 64.3203 57.175 64.3203 55.4274C64.3203 54.2138 64.9999 53.1459 66.0193 52.6361V22.7818L57.2815 20.3303V71.7866C58.3009 72.3206 58.9805 73.3643 58.9805 74.5779C58.9805 76.3255 57.5728 77.7332 55.8252 77.7332C54.0776 77.7332 52.6698 76.3255 52.6698 74.5779C52.6698 73.3643 53.3495 72.2963 54.3689 71.7866V19.5051L49.9999 18.2915V90.6216L66.0193 75.1604V67.3206L77.6698 56.0827V26.0585L68.932 23.607ZM32.5242 41.3497C31.7233 41.3497 31.0679 42.0051 31.0679 42.8061C31.0679 43.607 31.7233 44.2624 32.5242 44.2624C33.3252 44.2624 33.9805 43.607 33.9805 42.8061C33.9805 42.0051 33.3252 41.3497 32.5242 41.3497ZM32.5242 53.9711C31.7233 53.9711 31.0679 54.6264 31.0679 55.4274C31.0679 56.2284 31.7233 56.8837 32.5242 56.8837C33.3252 56.8837 33.9805 56.2284 33.9805 55.4274C33.9805 54.6264 33.3252 53.9711 32.5242 53.9711ZM32.5242 53.9711C31.7233 53.9711 31.0679 54.6264 31.0679 55.4274C31.0679 56.2284 31.7233 56.8837 32.5242 56.8837C33.3252 56.8837 33.9805 56.2284 33.9805 55.4274C33.9805 54.6264 33.3252 53.9711 32.5242 53.9711ZM32.5242 53.9711C31.7233 53.9711 31.0679 54.6264 31.0679 55.4274C31.0679 56.2284 31.7233 56.8837 32.5242 56.8837C33.3252 56.8837 33.9805 56.2284 33.9805 55.4274C33.9805 54.6264 33.3252 53.9711 32.5242 53.9711ZM32.5242 53.9711C31.7233 53.9711 31.0679 54.6264 31.0679 55.4274C31.0679 56.2284 31.7233 56.8837 32.5242 56.8837C33.3252 56.8837 33.9805 56.2284 33.9805 55.4274C33.9805 54.6264 33.3252 53.9711 32.5242 53.9711ZM32.5242 53.9711C31.7233 53.9711 31.0679 54.6264 31.0679 55.4274C31.0679 56.2284 31.7233 56.8837 32.5242 56.8837C33.3252 56.8837 33.9805 56.2284 33.9805 55.4274C33.9805 54.6264 33.3252 53.9711 32.5242 53.9711ZM33.9805 22.7818V39.9905C35 40.5245 35.6796 41.5682 35.6796 42.7818C35.6796 44.5294 34.2718 45.9371 32.5242 45.9371C30.7767 45.9371 29.3689 44.5294 29.3689 42.7818C29.3689 41.5682 30.0485 40.5002 31.0679 39.9905V23.5828L22.3301 26.0585V63.9225L31.0679 72.3449V58.2187C30.0485 57.6847 29.3689 56.641 29.3689 55.4274C29.3689 53.6798 30.7767 52.2721 32.5242 52.2721C34.2718 52.2721 35.6796 53.6798 35.6796 55.4274C35.6796 56.641 35 57.709 33.9805 58.2187V75.1604L42.7184 83.5827V20.3303L33.9805 22.7818ZM32.5242 53.9711C31.7233 53.9711 31.0679 54.6264 31.0679 55.4274C31.0679 56.2284 31.7233 56.8837 32.5242 56.8837C33.3252 56.8837 33.9805 56.2284 33.9805 55.4274C33.9805 54.6264 33.3252 53.9711 32.5242 53.9711ZM32.5242 53.9711C31.7233 53.9711 31.0679 54.6264 31.0679 55.4274C31.0679 56.2284 31.7233 56.8837 32.5242 56.8837C33.3252 56.8837 33.9805 56.2284 33.9805 55.4274C33.9805 54.6264 33.3252 53.9711 32.5242 53.9711ZM45.631 19.5051V86.3983L49.9999 90.6216V18.2915L45.631 19.5051ZM32.5242 53.9711C31.7233 53.9711 31.0679 54.6264 31.0679 55.4274C31.0679 56.2284 31.7233 56.8837 32.5242 56.8837C33.3252 56.8837 33.9805 56.2284 33.9805 55.4274C33.9805 54.6264 33.3252 53.9711 32.5242 53.9711ZM32.5242 53.9711C31.7233 53.9711 31.0679 54.6264 31.0679 55.4274C31.0679 56.2284 31.7233 56.8837 32.5242 56.8837C33.3252 56.8837 33.9805 56.2284 33.9805 55.4274C33.9805 54.6264 33.3252 53.9711 32.5242 53.9711ZM32.5242 53.9711C31.7233 53.9711 31.0679 54.6264 31.0679 55.4274C31.0679 56.2284 31.7233 56.8837 32.5242 56.8837C33.3252 56.8837 33.9805 56.2284 33.9805 55.4274C33.9805 54.6264 33.3252 53.9711 32.5242 53.9711ZM32.5242 53.9711C31.7233 53.9711 31.0679 54.6264 31.0679 55.4274C31.0679 56.2284 31.7233 56.8837 32.5242 56.8837C33.3252 56.8837 33.9805 56.2284 33.9805 55.4274C33.9805 54.6264 33.3252 53.9711 32.5242 53.9711Z" fill="#C51A14"/>
</g>
<defs>
<clipPath id="clip0_509_981">
<rect width="100" height="100" fill="white"/>
</clipPath>
</defs>
</svg>
