<svg width="100" height="100" viewBox="0 0 100 100" fill="none" xmlns="http://www.w3.org/2000/svg">
<g clip-path="url(#clip0_2004_2)">
<path d="M38.1134 4.88393C44.7091 -1.62796 55.3122 -1.628 61.8244 4.88393L95.0538 38.1134C101.649 44.7091 101.649 55.3122 95.0538 61.8244L61.8244 95.0538C55.3122 101.566 44.7091 101.566 38.1134 95.0538L4.88392 61.8244C-1.62799 55.3122 -1.62796 44.7091 4.88392 38.1134L38.1134 4.88393ZM67.4181 21.2492C67.3473 21.2592 59.1344 22.4312 54.8117 25.507C50.4238 28.5702 49.9761 29.6627 49.9689 29.6808C49.9595 29.6574 49.5045 28.5626 45.2101 25.507C40.8051 22.4318 32.6768 21.2597 32.6037 21.2492C32.5901 21.2672 30.7623 23.7003 29.5978 31.8517C28.2664 41.3379 34.2329 47.5071 34.2726 47.548C34.2278 47.5292 29.9008 45.7227 24.004 47.965C16.5734 50.7201 13.7345 58.6525 13.7345 58.6525C13.7448 58.6553 14.6658 58.9082 16.9904 59.8214C19.3281 60.6563 21.9165 62.4928 26.9259 68.838C31.0169 74.0978 38.2809 72.0104 38.5314 71.9269C38.4479 72.0939 37.1117 77.437 40.8683 81.4445C44.6944 85.5201 49.9295 85.4529 49.9689 85.4523C49.9689 85.4523 55.3124 85.5355 59.0695 81.4445C62.8263 77.437 61.4904 72.0939 61.4904 71.9269C61.6573 72.0104 68.9208 74.0975 73.0119 68.838C78.0212 62.4928 80.6102 60.6563 83.0314 59.8214C85.3354 58.9163 86.1794 58.6597 86.2033 58.6525C86.2033 58.6525 83.4483 50.7201 76.0177 47.965C70.0901 45.711 65.6652 47.548 65.6652 47.548C65.6652 47.548 71.7603 41.3695 70.341 31.8517C69.1771 23.7046 67.4329 21.2697 67.4181 21.2492ZM49.9689 64.4132C49.9689 64.4132 58.2341 68.1698 57.0656 75.1828C56.4811 78.6893 53.559 80.3591 49.9689 80.7765C46.4624 80.359 43.5406 78.6892 42.9562 75.1828C41.7085 68.194 49.9123 64.439 49.9689 64.4132ZM55.6466 58.7355C56.3159 58.15 64.5804 51.222 71.5929 52.0568C77.3537 52.6412 79.1906 56.6486 79.1906 56.6486C79.1719 56.655 74.8423 58.1609 71.5099 62.6593C68.0868 67.1678 65.4144 67.6695 62.1583 66.7511C59.2362 65.916 56.3145 60.0713 55.6466 58.7355ZM28.3449 51.9728C35.358 51.1379 43.6242 58.0681 44.2921 58.6525C43.6241 59.9885 40.7019 65.8319 37.8634 66.6671C34.5239 67.5855 31.8519 67.0846 28.4288 62.5763C25.0893 58.0679 20.7472 56.5646 20.7472 56.5646C20.7566 56.5442 22.599 52.5559 28.3449 51.9728ZM49.9689 39.1994C49.9689 39.1994 54.2273 40.4512 55.9806 47.798C57.7339 55.0616 49.9689 56.9826 49.9689 56.9826C49.9282 56.9725 42.2095 55.0425 43.9581 47.798C45.7029 40.4873 49.9276 39.2117 49.9689 39.1994ZM63.8283 28.1779C63.8283 28.1779 66.166 34.1895 64.3292 39.6163C63.2439 42.789 61.4068 44.7932 59.9874 45.9621C59.6535 44.9602 59.2364 43.791 58.5685 42.4552C56.2308 37.8634 53.4761 35.7755 51.7228 34.9406C53.3091 33.1038 55.897 30.6826 58.5685 29.6808C63.0289 28.0288 63.8121 28.1746 63.8283 28.1779ZM36.1095 28.0949C36.1095 28.0949 36.9446 27.9281 41.3693 29.5978C44.0409 30.5996 46.6292 33.0208 48.299 34.8576C46.5457 35.6925 43.7073 37.7798 41.4533 42.3712C40.7854 43.707 40.2843 44.8762 39.9503 45.8781C38.531 44.7092 36.6939 42.7058 35.6085 39.5333C33.7764 34.1201 36.0979 28.1249 36.1095 28.0949Z" fill="#152757"/>
</g>
<defs>
<clipPath id="clip0_2004_2">
<rect width="100" height="100" fill="white"/>
</clipPath>
</defs>
</svg>
