<svg width="100" height="100" viewBox="0 0 100 100" fill="none" xmlns="http://www.w3.org/2000/svg">
<path d="M3.5305 36H3.82569C4.32282 36.0744 4.75005 36.4855 4.8122 36.9903C4.89239 37.4918 4.602 38.0222 4.13456 38.2196C3.47224 38.5375 2.62051 38.0401 2.55129 37.3127C2.45122 36.698 2.92255 36.0898 3.5305 36ZM6.06695 36H6.38429C6.89513 36.0879 7.3251 36.5281 7.36074 37.0528C7.41763 37.5807 7.06374 38.1163 6.55471 38.2647C5.92003 38.4802 5.18391 38.0094 5.09801 37.3471C4.97716 36.7248 5.44825 36.0941 6.06695 36ZM8.62555 36H8.92072C9.55449 36.0944 10.0308 36.7548 9.8837 37.3876C9.77359 38.0517 9.00982 38.4963 8.38177 38.2471C7.87663 38.073 7.54878 37.5149 7.63559 36.9877C7.69979 36.4832 8.12726 36.071 8.62555 36ZM11.1618 36H11.4567C11.9598 36.0808 12.3914 36.5043 12.4393 37.0196C12.5115 37.5415 12.1796 38.0822 11.6813 38.2498C11.0302 38.5029 10.2483 38.0124 10.1768 37.32C10.0715 36.7012 10.5472 36.084 11.1618 36ZM13.6973 36H13.9927C14.4896 36.076 14.918 36.4867 14.9778 36.993C15.0605 37.5117 14.7443 38.06 14.2506 38.2393C13.6004 38.5139 12.7994 38.03 12.7201 37.3324C12.607 36.712 13.0818 36.0891 13.6973 36ZM16.2335 36H16.5284C17.066 36.0737 17.5141 36.5506 17.5296 37.0984C17.5643 37.6116 17.2147 38.1195 16.7213 38.2643C16.0937 38.4777 15.3651 38.0206 15.2668 37.3679C15.1323 36.7399 15.6073 36.0944 16.2335 36ZM18.7697 36H19.0872C19.7135 36.0941 20.1869 36.7399 20.0533 37.3674C19.9542 38.0339 19.1981 38.4921 18.5649 38.2533C18.044 38.0838 17.7051 37.5065 17.8041 36.9674C17.8753 36.4768 18.2891 36.0852 18.7697 36ZM21.3283 36H21.6235C22.1263 36.0811 22.5567 36.5052 22.6052 37.0198C22.6794 37.5539 22.3281 38.1083 21.8113 38.2611C21.1664 38.4885 20.416 37.9988 20.342 37.3228C20.2359 36.7033 20.7121 36.0827 21.3283 36ZM23.8643 36H24.1595C24.6564 36.0763 25.0829 36.4876 25.1434 36.9932C25.2246 37.5053 24.9183 38.0469 24.4339 38.2327C23.782 38.5205 22.9678 38.0389 22.8857 37.3352C22.7718 36.7136 23.2467 36.0879 23.8643 36ZM26.4003 36H26.6955C27.2236 36.0749 27.6681 36.5366 27.6936 37.0755C27.7394 37.5958 27.3888 38.1172 26.8881 38.2643C26.261 38.4775 25.5296 38.0217 25.4332 37.3677C25.2981 36.7395 25.7731 36.0932 26.4003 36ZM28.9364 36H29.2541C29.7567 36.0863 30.188 36.5125 30.2301 37.0301C30.2966 37.5413 29.976 38.0675 29.4926 38.2418C28.8545 38.5066 28.0728 38.0442 27.9734 37.3654C27.8412 36.7393 28.3132 36.0971 28.9364 36ZM38.372 36H38.6669C39.3233 36.0946 39.8045 36.7983 39.6184 37.4442C39.4757 38.1076 38.6787 38.5109 38.0632 38.2207C37.5886 38.0213 37.2947 37.4781 37.3864 36.9701C37.4565 36.4729 37.8809 36.0721 38.372 36ZM40.908 36H41.2029C41.7354 36.0808 42.1808 36.5535 42.194 37.0993C42.2289 37.6095 41.8828 38.1152 41.3934 38.2617C40.7471 38.4878 39.9959 37.9977 39.9244 37.3198C39.8203 36.7022 40.2942 36.085 40.908 36ZM43.444 36H43.739C44.2363 36.0742 44.6633 36.4855 44.7257 36.9903C44.8047 37.4858 44.5223 38.0105 44.0636 38.2125C43.4001 38.5439 42.5341 38.0467 42.4647 37.3127C42.3646 36.698 42.836 36.0898 43.444 36ZM45.9801 36H46.2976C46.8083 36.0879 47.2387 36.5281 47.274 37.0528C47.331 37.5807 46.9769 38.1166 46.468 38.2645C45.8333 38.4805 45.0978 38.0089 45.0115 37.3471C44.8905 36.7248 45.3617 36.0944 45.9801 36ZM48.5389 36H48.8336C49.4681 36.0941 49.9445 36.7544 49.7971 37.3876C49.6875 38.052 48.9226 38.496 48.2947 38.2471C47.7829 38.0708 47.4544 37.5 47.5523 36.9674C47.6239 36.4713 48.0475 36.0703 48.5389 36ZM51.0747 36H51.3696C51.8657 36.079 52.2918 36.4912 52.3504 36.9969C52.4323 37.5193 52.1085 38.0678 51.6112 38.2441C50.9714 38.5036 50.1899 38.0398 50.096 37.3583C49.968 36.7296 50.4457 36.085 51.0747 36ZM53.6107 36H53.9059C54.4028 36.0758 54.8312 36.4869 54.8912 36.993C54.969 37.4877 54.6876 38.0103 54.2301 38.2123C53.5675 38.5434 52.702 38.0488 52.6306 37.3157C52.5298 36.6999 53.0007 36.0889 53.6107 36ZM56.1467 36H56.4416C56.963 36.0724 57.4035 36.5222 57.4399 37.0528C57.4969 37.5802 57.1434 38.1159 56.6345 38.2645C55.9998 38.4807 55.2637 38.0094 55.177 37.3473C55.0557 36.7246 55.5279 36.0937 56.1467 36ZM58.6828 36H59.0005C59.6189 36.0939 60.0918 36.7246 59.97 37.3473C59.8828 38.0229 59.1184 38.4956 58.4784 38.253C57.9644 38.0859 57.6265 37.5213 57.7149 36.9877C57.7774 36.4889 58.1952 36.0863 58.6828 36ZM61.2418 36H61.5367C62.0396 36.0811 62.4702 36.505 62.5187 37.0198C62.5927 37.5539 62.2418 38.1085 61.7246 38.2611C61.079 38.4887 60.3268 37.9975 60.2562 37.32C60.1506 36.701 60.6266 36.0834 61.2418 36ZM63.7778 36H64.0727C64.6148 36.0797 65.0644 36.5661 65.0673 37.1213C65.0913 37.6194 64.756 38.1079 64.2803 38.2569C63.6373 38.4926 62.8801 38.0114 62.7992 37.3352C62.6856 36.7136 63.1599 36.0879 63.7778 36ZM73.2819 36H73.5769C74.1143 36.0737 74.5622 36.5506 74.5778 37.0984C74.6122 37.6118 74.263 38.1195 73.7697 38.2645C73.142 38.4775 72.4131 38.0208 72.3153 37.3677C72.1804 36.7399 72.6554 36.0941 73.2819 36ZM75.8178 36H76.1355C76.7616 36.0944 77.2353 36.7399 77.1014 37.3677C77.0027 38.0339 76.2461 38.4921 75.6134 38.2533C75.0924 38.084 74.7533 37.5067 74.8526 36.9674C74.9232 36.4768 75.3372 36.0854 75.8178 36ZM78.3764 36H78.6717C79.1746 36.0811 79.6047 36.5052 79.6537 37.0198C79.7274 37.5539 79.3768 38.1085 78.8595 38.2611C78.2145 38.4885 77.4642 37.9988 77.3905 37.3228C77.2851 36.7033 77.7599 36.0827 78.3764 36ZM80.9124 36H81.2075C81.7046 36.0763 82.1311 36.4876 82.1917 36.9932C82.2728 37.5053 81.9664 38.0472 81.482 38.2327C80.8302 38.5205 80.0158 38.0389 79.9342 37.3349C79.8204 36.7136 80.2949 36.0879 80.9124 36ZM83.4484 36H83.7435C84.2884 36.0758 84.7402 36.5652 84.7443 37.1215C84.7676 37.6271 84.4217 38.1211 83.9364 38.2643C83.3091 38.4777 82.5783 38.0215 82.4813 37.3679C82.3463 36.7395 82.8213 36.0934 83.4484 36ZM85.9847 36H86.3023C86.8048 36.0863 87.2363 36.5125 87.2783 37.0301C87.3448 37.5413 87.0242 38.0678 86.5408 38.2418C85.9027 38.5066 85.1213 38.0442 85.0219 37.3654C84.8896 36.7393 85.3617 36.0971 85.9847 36ZM88.5433 36H88.8384C89.3352 36.082 89.7608 36.4947 89.8168 37.0029C89.8986 37.5408 89.549 38.1065 89.0265 38.2606C88.3812 38.4892 87.6299 37.9991 87.5559 37.323C87.4489 36.7031 87.9272 36.0824 88.5433 36ZM91.0793 36H91.3744C91.8717 36.0769 92.2976 36.4901 92.3573 36.996C92.4393 37.5191 92.1157 38.0708 91.6157 38.2448C90.9614 38.51 90.1708 38.0169 90.0965 37.3198C89.9938 36.7026 90.4662 36.0861 91.0793 36ZM93.6153 36H93.9104C94.336 36.0676 94.7183 36.3712 94.8508 36.7867C95.0466 37.3354 94.7567 37.997 94.2193 38.2201C93.5629 38.5331 92.7197 38.0495 92.64 37.3303C92.5293 36.7113 93.0015 36.0916 93.6153 36ZM96.1513 36H96.469C97.224 36.104 97.6986 37.0164 97.323 37.6888C96.9861 38.433 95.8451 38.5274 95.3936 37.8461C94.8677 37.1861 95.3199 36.1063 96.1513 36ZM98.7101 36H99.0053C99.5237 36.0834 99.9333 36.5235 100 37.0429V37.2701C99.9328 37.7673 99.5524 38.2171 99.0475 38.2963C98.5368 38.3971 97.9933 38.0907 97.8004 37.6095C97.4895 36.9362 97.9796 36.0859 98.7101 36ZM0 39.5852C0.0753941 39.0429 0.549234 38.5824 1.10395 38.5746C1.6027 38.5517 2.0843 38.8989 2.22778 39.377C2.46105 40.0323 1.97327 40.8164 1.27919 40.8801C0.667581 40.9728 0.0801919 40.4836 0 39.8806V39.5852ZM3.64359 38.575C4.44049 38.5176 5.06558 39.4309 4.7432 40.1591C4.49645 40.8762 3.49303 41.1308 2.93968 40.6108C2.60362 40.3249 2.46242 39.8392 2.58442 39.416C2.70802 38.9458 3.15696 38.5847 3.64359 38.575ZM6.17958 38.5753C6.95202 38.5162 7.57757 39.3734 7.30775 40.0968C7.10053 40.8274 6.1115 41.14 5.52867 40.6497C5.15307 40.3636 4.98835 39.8353 5.13525 39.3858C5.26731 38.9305 5.70574 38.5876 6.17958 38.5753ZM8.71578 38.5753C9.17135 38.5501 9.62166 38.832 9.80351 39.2506C10.1412 39.9251 9.64176 40.8279 8.88737 40.8812C8.15742 40.9888 7.48915 40.253 7.63994 39.5348C7.71921 39.0161 8.19032 38.5892 8.71578 38.5753ZM11.2515 38.5755C12.1101 38.4981 12.7498 39.5431 12.3114 40.2812C11.957 41.0296 10.7928 41.0921 10.3633 40.3836C9.84899 39.6917 10.3861 38.5817 11.2515 38.5755ZM13.8104 38.575C14.6637 38.5107 15.289 39.552 14.8515 40.2835C14.4955 41.0324 13.3299 41.0903 12.9022 40.3799C12.3873 39.6821 12.9397 38.5675 13.8104 38.575ZM16.3464 38.5753C17.1385 38.5146 17.7678 39.4174 17.4558 40.1456C17.2219 40.8459 16.2625 41.126 15.6952 40.6504C15.2819 40.3396 15.1298 39.7371 15.3441 39.2662C15.5106 38.8691 15.9162 38.5876 16.3464 38.5753ZM18.8826 38.5753C19.5984 38.521 20.2118 39.2571 20.0502 39.9537C19.9589 40.4924 19.4414 40.9176 18.8944 40.8872C18.2428 40.8858 17.7013 40.2388 17.7973 39.596C17.8484 39.0512 18.3346 38.5881 18.8826 38.5753ZM21.4181 38.5755C22.1892 38.5107 22.8216 39.3603 22.5588 40.0854C22.3619 40.8132 21.3857 41.1398 20.7971 40.6653C20.3982 40.3769 20.2282 39.8207 20.3922 39.3567C20.5341 38.9188 20.958 38.5929 21.4181 38.5755ZM23.9543 38.5755C24.3987 38.5487 24.8418 38.81 25.0338 39.2128C25.4049 39.8926 24.9025 40.8345 24.1266 40.8826C23.3878 40.9854 22.7229 40.2272 22.8932 39.5058C22.9837 39.0017 23.4428 38.5959 23.9543 38.5755ZM26.5134 38.575C27.2531 38.5224 27.8717 39.3127 27.66 40.0222C27.5374 40.5432 27.0144 40.9341 26.4793 40.8849C25.834 40.862 25.3165 40.2063 25.4244 39.5717C25.4871 39.034 25.9714 38.5851 26.5134 38.575ZM29.0492 38.5753C29.8446 38.5116 30.4755 39.4183 30.1611 40.1486C29.921 40.8672 28.9198 41.1322 28.3617 40.6174C28.0063 40.3222 27.8648 39.806 28.0122 39.3686C28.151 38.9236 28.5824 38.5883 29.0492 38.5753ZM35.926 38.5753C36.3758 38.551 36.8179 38.8274 37.0036 39.2369C37.3569 39.9194 36.8442 40.8414 36.0752 40.883C35.3201 40.9815 34.6552 40.1868 34.8627 39.4572C34.9726 38.9708 35.4263 38.5874 35.926 38.5753ZM38.4621 38.5753C38.9183 38.5496 39.3689 38.8311 39.5509 39.2504C39.8888 39.9249 39.3898 40.8304 38.6338 40.8812C37.904 40.9888 37.2378 40.2521 37.3879 39.5353C37.4659 39.0159 37.9375 38.5918 38.4621 38.5753ZM40.9979 38.5753C41.7855 38.5072 42.4236 39.3912 42.1294 40.1227C41.9052 40.8469 40.91 41.1386 40.3398 40.6334C39.9328 40.3144 39.798 39.7098 40.019 39.2438C40.1892 38.8615 40.5807 38.5941 40.9979 38.5753ZM43.5567 38.575C44.3466 38.5185 44.9712 39.4158 44.6628 40.1427C44.4289 40.8576 43.4416 41.1315 42.878 40.6316C42.5252 40.3488 42.372 39.8497 42.4978 39.416C42.6215 38.9458 43.0701 38.5847 43.5567 38.575ZM46.093 38.5753C46.5483 38.5505 46.995 38.8357 47.1767 39.2527C47.5108 39.9262 47.0158 40.8226 46.2647 40.881C45.5161 40.9946 44.8377 40.2235 45.0211 39.4929C45.1158 38.9896 45.5804 38.5869 46.093 38.5753ZM48.629 38.5753C49.0845 38.5498 49.5348 38.832 49.7171 39.2506C50.0598 39.9326 49.5423 40.8459 48.7779 40.8833C48.0475 40.976 47.3946 40.2301 47.5565 39.5158C47.6434 39.0054 48.1103 38.5895 48.629 38.5753ZM51.1647 38.5753C52.0228 38.4979 52.6635 39.5431 52.2248 40.2812C51.8677 41.0363 50.69 41.0905 50.2675 40.3696C49.7675 39.6759 50.3065 38.5826 51.1647 38.5753ZM53.7236 38.575C54.5769 38.5107 55.2024 39.552 54.7647 40.2835C54.4092 41.0324 53.2428 41.0901 52.8156 40.3797C52.3009 39.6821 52.8532 38.5675 53.7236 38.575ZM56.2598 38.575C57.0447 38.5155 57.6732 39.4025 57.3754 40.1294C57.1496 40.8395 56.1809 41.1311 55.6086 40.6501C55.1914 40.3359 55.0406 39.7233 55.2644 39.2509C55.4352 38.8618 55.8348 38.5874 56.2598 38.575ZM58.7957 38.5753C59.5111 38.521 60.1261 39.2568 59.9638 39.9533C59.872 40.4921 59.355 40.9176 58.8076 40.8872C58.1729 40.8849 57.6381 40.2702 57.7061 39.6406C57.737 39.0786 58.2323 38.5883 58.7957 38.5753ZM61.3312 38.5755C62.1023 38.5107 62.7349 39.3601 62.4724 40.0854C62.2728 40.8258 61.2687 41.146 60.6845 40.6449C60.3031 40.3524 60.146 39.8099 60.3057 39.3569C60.4476 38.919 60.8711 38.5931 61.3312 38.5755ZM63.8675 38.5755C64.3119 38.5487 64.7551 38.8098 64.9471 39.2126C65.3187 39.8919 64.8156 40.8354 64.0396 40.8826C63.3007 40.9852 62.6369 40.2272 62.8069 39.5058C62.8986 39.0026 63.3559 38.5957 63.8675 38.5755ZM70.8588 38.575C71.712 38.5107 72.3372 39.552 71.8998 40.2835C71.5442 41.0326 70.3777 41.0903 69.9507 40.3797C69.4354 39.6821 69.9882 38.5673 70.8588 38.575ZM73.3946 38.575C74.1866 38.5146 74.8161 39.4174 74.5043 40.1456C74.2699 40.8457 73.311 41.126 72.7437 40.6504C72.331 40.3396 72.1777 39.7371 72.3922 39.2664C72.5586 38.8691 72.9644 38.5879 73.3946 38.575ZM75.9306 38.5753C76.6468 38.5208 77.2598 39.2568 77.0987 39.9537C77.0068 40.4924 76.4899 40.9174 75.9426 40.8872C75.2913 40.8858 74.7497 40.2388 74.8456 39.596C74.8963 39.0512 75.3831 38.5886 75.9306 38.5753ZM78.4662 38.5755C79.2373 38.5109 79.8698 39.3601 79.6071 40.0852C79.4104 40.813 78.434 41.1398 77.8453 40.6653C77.4517 40.3806 77.2801 39.8344 77.4351 39.3738C77.5714 38.9277 78 38.5931 78.4662 38.5755ZM81.0026 38.5755C81.4469 38.5487 81.8902 38.81 82.0821 39.2126C82.4532 39.8926 81.9507 40.8345 81.1746 40.8826C80.4357 40.9857 79.7712 40.2269 79.9419 39.5058C80.0331 39.0019 80.4906 38.5957 81.0026 38.5755ZM83.5613 38.5753C84.3384 38.5176 84.9652 39.388 84.6814 40.112C84.4673 40.8327 83.4871 41.1363 82.91 40.6508C82.5257 40.3607 82.3628 39.8193 82.5204 39.364C82.6612 38.919 83.0941 38.5863 83.5613 38.5753ZM86.0975 38.5753C86.8929 38.5116 87.5235 39.4183 87.2092 40.1486C86.9693 40.8672 85.9678 41.1322 85.4099 40.6172C85.0596 40.3259 84.9164 39.8197 85.055 39.3862C85.1883 38.933 85.6242 38.5881 86.0975 38.5753ZM88.6333 38.5753C89.4255 38.5086 90.0605 39.405 89.7553 40.136C89.5269 40.8464 88.5543 41.1299 87.9851 40.6458C87.61 40.3556 87.4489 39.8239 87.6011 39.3736C87.7359 38.9263 88.1674 38.5934 88.6333 38.5753ZM91.1693 38.5753C91.8912 38.5155 92.5139 39.2573 92.3461 39.9606C92.2503 40.4983 91.7288 40.9227 91.1815 40.8869C90.5279 40.8805 89.9918 40.2244 90.0954 39.5813C90.1523 39.0443 90.6304 38.5954 91.1693 38.5753ZM93.7284 38.575C94.2195 38.5508 94.6989 38.8872 94.8477 39.3564C95.0248 39.847 94.8175 40.4388 94.3751 40.7127C93.7663 41.1308 92.8423 40.7653 92.6705 40.0494C92.4515 39.3647 93.0069 38.5776 93.7284 38.575ZM96.2644 38.5753C96.708 38.5515 97.1448 38.8203 97.3345 39.2213C97.6444 39.8142 97.3185 40.624 96.6799 40.826C96.1986 41.0024 95.6205 40.7965 95.3518 40.3611C94.859 39.6633 95.4064 38.5739 96.2644 38.5753ZM98.273 38.7344C98.9566 38.2892 99.9227 38.8137 100 39.6081V39.8575C99.9212 40.6375 98.9878 41.1606 98.3024 40.7468C97.5386 40.3614 97.5182 39.1412 98.273 38.7344ZM0 42.1502C0.0804203 41.6548 0.481152 41.2195 0.987433 41.1604C1.50765 41.0777 2.04455 41.4148 2.21385 41.9111C2.4727 42.5617 2.00822 43.3642 1.313 43.4515C0.694997 43.5634 0.0918437 43.0775 0 42.4685V42.1502ZM3.50399 41.1638C3.96962 41.0832 4.46379 41.3306 4.68244 41.7496C5.05483 42.3799 4.66256 43.2884 3.94289 43.4334C3.23281 43.6308 2.47887 42.9829 2.54284 42.253C2.55517 41.7229 2.9799 41.2394 3.50399 41.1638ZM6.06237 41.1622C6.52754 41.0878 7.01736 41.3422 7.23052 41.762C7.60315 42.4069 7.1773 43.3239 6.44117 43.4427C5.73086 43.609 5.00732 42.9494 5.08545 42.2274C5.10898 41.7006 5.53941 41.2279 6.06237 41.1622ZM8.59835 41.1627C9.36395 41.0163 10.0784 41.8117 9.87915 42.5599C9.74731 43.3051 8.79825 43.7203 8.16905 43.2932C7.7432 43.0376 7.5282 42.4878 7.66232 42.0093C7.77108 41.5745 8.15399 41.2234 8.59835 41.1627ZM11.1346 41.1629C11.9776 40.9955 12.7185 41.9617 12.3658 42.7397C12.095 43.5247 10.9417 43.7189 10.4373 43.0562C9.85264 42.4218 10.2735 41.2579 11.1346 41.1629ZM13.6708 41.1638C14.3971 41.0214 15.1003 41.727 14.9801 42.4536C14.9244 42.9655 14.4905 43.4063 13.9769 43.4567C13.3263 43.5515 12.692 42.9767 12.7076 42.321C12.6872 41.7661 13.1213 41.2408 13.6708 41.1638ZM16.2291 41.1618C17.0119 41.0173 17.7298 41.8536 17.4913 42.6091C17.3278 43.3395 16.3804 43.7146 15.7686 43.2781C15.3745 43.0248 15.1668 42.5159 15.2748 42.0584C15.3665 41.5996 15.7647 41.2206 16.2291 41.1618ZM18.7654 41.1624C19.4818 41.0298 20.1725 41.7196 20.0653 42.4365C20.0159 42.9728 19.5483 43.4352 19.0087 43.4608C18.3559 43.5257 17.7507 42.9282 17.7898 42.275C17.7928 41.7325 18.2269 41.2321 18.7654 41.1624ZM21.3014 41.1629C22.1496 40.9946 22.8915 41.9757 22.5252 42.7532C22.2474 43.5288 21.1049 43.713 20.6033 43.0578C20.0176 42.4227 20.4387 41.257 21.3014 41.1629ZM23.8376 41.1634C24.2913 41.086 24.7724 41.3202 24.9979 41.721C25.3902 42.3448 25.0146 43.2676 24.2945 43.4283C23.5881 43.6388 22.8223 43.0051 22.8732 42.2739C22.8766 41.7357 23.3043 41.2378 23.8376 41.1634ZM26.3735 41.164C27.1472 41.0083 27.8765 41.814 27.6662 42.5711C27.5264 43.3147 26.5745 43.7203 25.9493 43.2875C25.5332 43.0321 25.322 42.4933 25.4494 42.0217C25.5517 41.5854 25.9313 41.2316 26.3735 41.164ZM28.932 41.1624C29.3907 41.0887 29.8747 41.3337 30.0932 41.7435C30.4854 42.3955 30.0473 43.3413 29.2918 43.4469C28.5694 43.6019 27.8556 42.9101 27.9616 42.1832C28.005 41.6743 28.4256 41.2286 28.932 41.1624ZM35.8089 41.1622C36.273 41.088 36.7623 41.3402 36.9772 41.7581C37.3552 42.4103 36.9172 43.3413 36.1686 43.4466C35.4464 43.6019 34.7301 42.9105 34.8376 42.1829C34.8801 41.6734 35.3023 41.2279 35.8089 41.1622ZM38.3449 41.1627C39.1177 41.014 39.8377 41.8264 39.6223 42.5787C39.48 43.3152 38.5386 43.7157 37.9157 43.2927C37.5087 43.0461 37.2908 42.531 37.3968 42.0661C37.4858 41.6067 37.8813 41.2261 38.3449 41.1627ZM40.8813 41.1631C41.7246 40.9937 42.4668 41.9622 42.1131 42.7401C41.8444 43.5185 40.7044 43.7183 40.1952 43.0678C39.5972 42.4371 40.0144 41.26 40.8813 41.1631ZM43.4172 41.1638C43.8826 41.0832 44.3771 41.3305 44.5956 41.7494C44.9745 42.3858 44.5667 43.304 43.8374 43.4377C43.1229 43.6228 42.3811 42.9611 42.4572 42.2317C42.4796 41.7098 42.9004 41.2387 43.4172 41.1638ZM45.9755 41.162C46.4407 41.0878 46.9306 41.3422 47.1439 41.762C47.5163 42.4069 47.0905 43.3239 46.3545 43.443C45.6587 43.6049 44.9465 42.9749 44.9964 42.2668C45.0036 41.7254 45.4388 41.2305 45.9755 41.162ZM48.5115 41.1627C49.2771 41.0163 49.9918 41.8117 49.7923 42.5601C49.6609 43.3056 48.7113 43.7201 48.0822 43.2932C47.6564 43.0374 47.4414 42.4878 47.5756 42.0093C47.6842 41.5747 48.0672 41.2236 48.5115 41.1627ZM51.0478 41.1629C51.8986 40.9923 52.6402 41.9773 52.2728 42.7559C51.9919 43.5298 50.8513 43.7125 50.3508 43.0559C49.7656 42.4218 50.1871 41.2584 51.0478 41.1629ZM53.584 41.1638C54.3633 41.0081 55.0903 41.828 54.8691 42.5865C54.7198 43.3342 53.7483 43.7244 53.1311 43.271C52.7757 43.0372 52.5742 42.5958 52.6283 42.1729C52.6758 41.6727 53.087 41.2355 53.584 41.1638ZM56.1426 41.162C56.9841 41.0028 57.7176 41.9732 57.3586 42.7465C57.0824 43.5362 55.9123 43.7162 55.4188 43.0383C54.8501 42.3964 55.285 41.246 56.1426 41.162ZM58.6785 41.1624C59.4435 41.0179 60.1575 41.8117 59.9582 42.5601C59.8261 43.3051 58.878 43.7201 58.2488 43.2937C57.8108 43.0321 57.5971 42.4596 57.7517 41.9734C57.8705 41.5536 58.2461 41.2215 58.6785 41.1624ZM61.2145 41.1629C61.6352 41.0933 62.0783 41.2898 62.3189 41.6402C62.7788 42.2521 62.434 43.2405 61.6893 43.4228C60.9609 43.6564 60.1626 42.985 60.2476 42.2278C60.2721 41.7047 60.6952 41.233 61.2145 41.1629ZM63.7507 41.1634C64.2044 41.086 64.6859 41.3202 64.9111 41.721C65.3083 42.3508 64.9198 43.2836 64.1893 43.4331C63.4697 43.6344 62.7085 42.9678 62.7889 42.2292C62.8127 41.7073 63.2332 41.236 63.7507 41.1634ZM70.719 41.1636C71.4455 41.0214 72.1487 41.727 72.0283 42.4536C71.9728 42.9728 71.5266 43.4171 71.0055 43.459C70.3518 43.5415 69.7267 42.9545 69.756 42.2974C69.7469 41.7508 70.178 41.2401 70.719 41.1636ZM73.2774 41.162C74.1187 41.0031 74.8525 41.9734 74.4935 42.7465C74.2174 43.5362 73.0473 43.7162 72.5538 43.0385C71.9842 42.3966 72.4196 41.246 73.2774 41.162ZM75.8134 41.1624C76.586 41.0163 77.3028 41.8264 77.0889 42.5784C76.9445 43.32 75.9923 43.7201 75.3699 43.2849C74.9349 43.0172 74.7293 42.4403 74.8919 41.9562C75.0151 41.544 75.3873 41.2211 75.8134 41.1624ZM78.3496 41.1629C79.1979 40.9943 79.9399 41.9757 79.5732 42.7534C79.2956 43.5286 78.153 43.713 77.6516 43.0578C77.066 42.4229 77.4868 41.257 78.3496 41.1629ZM80.8857 41.1634C81.6338 41.0173 82.3473 41.7689 82.1857 42.5102C82.1055 43.0124 81.6595 43.4281 81.1516 43.4606C80.4949 43.5327 79.8806 42.9314 79.9219 42.2739C79.9246 41.7359 80.3525 41.2376 80.8857 41.1634ZM83.422 41.164C84.1955 41.0083 84.9246 41.814 84.7144 42.5711C84.5745 43.315 83.6225 43.7203 82.9974 43.2875C82.5924 43.0385 82.3806 42.5212 82.4892 42.0584C82.5793 41.6063 82.9666 41.233 83.422 41.164ZM85.9801 41.1624C86.4387 41.0887 86.9232 41.3335 87.1414 41.7435C87.5337 42.3955 87.0954 43.3413 86.34 43.4466C85.6175 43.6019 84.9039 42.9098 85.0101 42.1832C85.0547 41.6745 85.4731 41.2286 85.9801 41.1624ZM88.5161 41.1629C88.9363 41.0937 89.3811 41.2898 89.6198 41.642C90.0786 42.253 89.7346 43.2401 88.9913 43.4226C88.262 43.6573 87.4638 42.985 87.5475 42.2278C87.5716 41.7041 87.9966 41.2325 88.5161 41.1629ZM91.0526 41.1631C91.4954 41.0882 91.9638 41.3093 92.1955 41.6931C92.616 42.3222 92.2337 43.2801 91.4913 43.4329C90.7553 43.6399 89.9836 42.9407 90.092 42.1882C90.1338 41.6812 90.5488 41.2344 91.0526 41.1631ZM93.5888 41.1638C94.1074 41.0713 94.6546 41.394 94.8333 41.8889C95.0355 42.3907 94.8302 43.0143 94.3667 43.2927C93.7846 43.6844 92.9073 43.3699 92.6962 42.7026C92.4385 42.0558 92.8977 41.255 93.5888 41.1638ZM96.1468 41.1622C96.6054 41.0892 97.0893 41.3337 97.3076 41.7439C97.6414 42.3137 97.3694 43.1276 96.7553 43.3729C96.2911 43.5804 95.7034 43.4228 95.4044 43.0113C94.8669 42.3625 95.3052 41.2495 96.1468 41.1622ZM97.787 41.8887C97.9676 41.3873 98.5269 41.064 99.0505 41.1673C99.5488 41.2463 99.9193 41.6869 100 42.1731V42.4227C99.9273 43.041 99.3351 43.554 98.7065 43.4546C97.9895 43.385 97.5051 42.5507 97.787 41.8887ZM0.980579 43.7366C1.48641 43.6546 2.01576 43.9663 2.1983 44.4445C2.48778 45.0969 2.02947 45.934 1.31962 46.0249C0.697281 46.1433 0.0838473 45.6498 0 45.0337V44.738C0.0715101 44.2397 0.474068 43.7989 0.980579 43.7366ZM3.59676 43.7281C4.38268 43.6379 5.0409 44.5065 4.76696 45.2444C4.56362 45.9679 3.59128 46.2885 3.00526 45.8133C2.6043 45.5236 2.43866 44.9627 2.60543 44.4983C2.74731 44.0757 3.15125 43.7565 3.59676 43.7281ZM6.13228 43.7283C6.59128 43.6848 7.05483 43.9571 7.24971 44.3744C7.5995 45.0344 7.13799 45.9379 6.39501 46.0263C5.66758 46.1653 4.96619 45.453 5.09321 44.7273C5.15079 44.2047 5.60773 43.7624 6.13228 43.7283ZM8.66827 43.7286C9.51863 43.6195 10.196 44.6293 9.79392 45.3825C9.47383 46.1534 8.29861 46.2665 7.84395 45.5643C7.30775 44.891 7.80649 43.7673 8.66827 43.7286ZM35.8787 43.7286C36.7272 43.6223 37.401 44.629 37.0021 45.3814C36.6861 46.1387 35.543 46.2676 35.0718 45.5937C34.5051 44.9254 34.9991 43.7634 35.8787 43.7286ZM38.438 43.7279C38.8616 43.6926 39.286 43.9273 39.4969 44.2947C39.9046 44.9384 39.4885 45.8918 38.7356 46.0173C37.9947 46.1953 37.2514 45.4734 37.3818 44.7273C37.4419 44.2003 37.9066 43.7526 38.438 43.7279ZM40.974 43.7281C41.7046 43.6493 42.3446 44.4014 42.1734 45.113C42.0768 45.6424 41.5721 46.0602 41.0327 46.0389C40.3782 46.0448 39.8286 45.3992 39.9203 44.7529C39.9683 44.2175 40.4357 43.7556 40.974 43.7281ZM43.5099 43.7279C44.2884 43.639 44.946 44.4916 44.6856 45.2272C44.4935 45.9544 43.5248 46.2903 42.9315 45.8227C42.5324 45.5426 42.3573 44.9955 42.5074 44.5326C42.6395 44.0943 43.0523 43.7574 43.5099 43.7279ZM70.8117 43.7279C71.6681 43.6264 72.3353 44.6572 71.9145 45.4056C71.5759 46.1682 70.4032 46.2546 69.9611 45.5458C69.4441 44.8652 69.9525 43.7558 70.8117 43.7279ZM73.3473 43.7283C74.0756 43.6447 74.7243 44.3895 74.5584 45.1024C74.4669 45.6397 73.9522 46.0659 73.4064 46.0386C72.7608 46.0384 72.2207 45.4063 72.3016 44.7681C72.3429 44.2292 72.8074 43.7622 73.3473 43.7283ZM75.8833 43.7286C76.6599 43.6333 77.3263 44.4779 77.072 45.2153C76.8867 45.9523 75.9042 46.2956 75.3084 45.8188C74.9268 45.5451 74.7491 45.0264 74.878 44.5748C74.9952 44.1197 75.4145 43.7631 75.8833 43.7286ZM0 47.303C0.0776787 46.8141 0.466986 46.3828 0.965045 46.3132C1.49166 46.2196 2.04501 46.5578 2.21453 47.0637C2.47315 47.7155 2.00389 48.5207 1.30637 48.6013C0.690884 48.7103 0.0927575 48.2271 0 47.6211V47.303ZM3.50355 46.3146C4.26753 46.1607 4.99315 46.9494 4.79803 47.7013C4.67123 48.4536 3.71145 48.8745 3.07973 48.4398C2.70231 48.2083 2.48915 47.745 2.55084 47.3069C2.60543 46.8138 3.01256 46.3856 3.50355 46.3146ZM6.03953 46.3148C6.50012 46.2315 6.99268 46.4728 7.21499 46.8846C7.60362 47.5169 7.20745 48.4415 6.47863 48.585C5.77382 48.7749 5.02947 48.1394 5.08271 47.4155C5.09162 46.8835 5.51246 46.3924 6.03953 46.3148ZM8.57574 46.3157C9.3555 46.1497 10.0932 46.9705 9.87411 47.7313C9.72812 48.4717 8.77793 48.8686 8.15581 48.4362C7.72904 48.1698 7.52 47.6074 7.67192 47.1265C7.78775 46.7126 8.15216 46.3842 8.57574 46.3157ZM11.1119 46.3164C11.9534 46.1314 12.7151 47.0887 12.3715 47.8735C12.1165 48.6558 10.979 48.8731 10.4599 48.2326C9.8531 47.6122 10.2486 46.4309 11.1119 46.3164ZM13.6703 46.3144C14.1362 46.2315 14.631 46.4836 14.8492 46.9022C15.2289 47.546 14.8074 48.4712 14.0683 48.5924C13.3587 48.7598 12.6342 48.1043 12.7094 47.3823C12.732 46.8599 13.1524 46.3876 13.6703 46.3144ZM16.2063 46.3148C17.0487 46.1376 17.7999 47.1013 17.4515 47.8826C17.1873 48.6677 16.0368 48.8715 15.5278 48.215C14.9351 47.587 15.3473 46.4188 16.2063 46.3148ZM18.7425 46.3157C19.5224 46.1502 20.2575 46.97 20.0404 47.7313C19.8943 48.4573 18.9746 48.8599 18.3502 48.4538C17.95 48.2198 17.7243 47.7292 17.8038 47.2721C17.8734 46.7969 18.2665 46.3886 18.7425 46.3157ZM21.2788 46.3164C21.7277 46.2319 22.2096 46.4554 22.4426 46.8477C22.8638 47.4819 22.469 48.4476 21.7181 48.5871C21.0108 48.771 20.2706 48.1284 20.3324 47.4036C20.3436 46.878 20.761 46.3993 21.2788 46.3164ZM23.8148 46.3173C24.2694 46.2294 24.7596 46.458 24.9906 46.8592C25.3991 47.4892 25.0111 48.4362 24.2733 48.5837C23.5718 48.7758 22.8245 48.1492 22.8732 47.4267C22.8747 46.8951 23.2904 46.4025 23.8148 46.3173ZM26.373 46.3146C27.2219 46.1369 27.9745 47.1168 27.6107 47.8987C27.3346 48.6792 26.1837 48.8654 25.6833 48.2035C25.1035 47.5714 25.5197 46.4179 26.373 46.3146ZM35.786 46.3148C36.2349 46.2335 36.7156 46.4598 36.9457 46.8535C37.3603 47.4855 36.9693 48.441 36.225 48.5853C35.4991 48.7809 34.7418 48.1016 34.835 47.3591C34.8662 46.8473 35.2803 46.3924 35.786 46.3148ZM38.3223 46.316C39.1624 46.1334 39.9191 47.0891 39.5792 47.8721C39.322 48.6608 38.1739 48.8741 37.6573 48.223C37.0603 47.5982 37.4625 46.4268 38.3223 46.316ZM40.8583 46.3169C41.5807 46.1621 42.298 46.8551 42.189 47.5831C42.1426 48.1174 41.678 48.58 41.1417 48.6098C40.495 48.6801 39.889 48.0979 39.9136 47.4507C39.9042 46.9098 40.324 46.4018 40.8583 46.3169ZM43.4167 46.3146C44.2639 46.1396 45.0135 47.1148 44.6525 47.8962C44.3775 48.6769 43.227 48.8663 42.725 48.2053C42.1451 47.5717 42.56 46.4151 43.4167 46.3146ZM45.9527 46.3151C46.4131 46.2312 46.9034 46.4728 47.1282 46.8821C47.5087 47.5027 47.1384 48.4108 46.4282 48.5761C45.7368 48.7873 44.9765 48.1893 44.9959 47.4704C44.9781 46.9192 45.4064 46.3945 45.9527 46.3151ZM48.4889 46.3157C49.2617 46.1518 49.9954 46.9554 49.7922 47.7127C49.6566 48.4628 48.6976 48.8734 48.0691 48.4362C47.6422 48.1696 47.4332 47.6074 47.5852 47.1265C47.701 46.7129 48.0653 46.3844 48.4889 46.3157ZM51.0252 46.3164C51.7779 46.1557 52.5057 46.9105 52.3446 47.6587C52.2651 48.1616 51.8182 48.5805 51.3084 48.6098C50.6614 48.6815 50.0543 48.0982 50.0793 47.4503C50.0706 46.9091 50.4906 46.4014 51.0252 46.3164ZM53.5834 46.3144C54.0207 46.2374 54.4859 46.4531 54.7204 46.829C55.1467 47.4462 54.7882 48.403 54.0564 48.5747C53.3487 48.795 52.5708 48.1646 52.6217 47.4278C52.6218 46.8887 53.05 46.3897 53.5834 46.3144ZM56.1193 46.3148C56.9546 46.1396 57.7053 47.0859 57.371 47.8662C57.1186 48.6558 55.9705 48.8768 55.4518 48.2271C54.8458 47.6026 55.2534 46.4199 56.1193 46.3148ZM58.6558 46.3157C59.4354 46.1502 60.1713 46.9703 59.9536 47.7311C59.8079 48.4573 58.8878 48.8599 58.2634 48.4536C57.8641 48.2193 57.6376 47.7292 57.7171 47.2721C57.7863 46.7967 58.1803 46.3893 58.6558 46.3157ZM61.1919 46.3164C61.6465 46.2308 62.1345 46.4614 62.3646 46.8624C62.7774 47.5034 62.3669 48.4655 61.6115 48.5912C60.8912 48.7657 60.1575 48.0894 60.2486 47.3575C60.2815 46.8491 60.6897 46.3975 61.1919 46.3164ZM70.7185 46.3144C71.1556 46.2376 71.621 46.4531 71.8552 46.8292C72.286 47.4521 71.9152 48.419 71.1729 48.5795C70.451 48.7912 69.6785 48.1268 69.7575 47.3823C69.7802 46.8599 70.2006 46.3876 70.7185 46.3144ZM73.2545 46.3148C74.0896 46.1394 74.8401 47.0859 74.5058 47.8662C74.2538 48.6558 73.1054 48.8768 72.5867 48.2273C71.9801 47.603 72.3885 46.419 73.2545 46.3148ZM75.7908 46.3157C76.5704 46.1502 77.3064 46.9703 77.0886 47.7313C76.9424 48.4573 76.0228 48.8599 75.3984 48.4538C75.005 48.223 74.7784 47.7439 74.8492 47.2925C74.9107 46.8088 75.3077 46.3895 75.7908 46.3157ZM0 49.8682C0.0927575 49.2625 0.690884 48.7783 1.30637 48.8878C2.01074 48.9691 2.47978 49.7885 2.20836 50.4423C2.03312 50.9395 1.48526 51.2684 0.965045 51.1759C0.466986 51.1065 0.0779073 50.6753 0 50.1863V49.8682ZM3.57277 48.8812C3.99405 48.8328 4.42473 49.0527 4.64633 49.4125C5.07791 50.0457 4.68494 51.019 3.93031 51.1617C3.17387 51.3641 2.40279 50.6155 2.55449 49.8522C2.6244 49.3474 3.06306 48.9201 3.57277 48.8812ZM6.10898 48.8814C6.89856 48.7682 7.58328 49.6358 7.31139 50.3826C7.11424 51.1207 6.11789 51.4468 5.53141 50.9521C5.13777 50.6562 4.97807 50.0965 5.15057 49.6358C5.29404 49.2299 5.67901 48.9192 6.10898 48.8814ZM8.64496 48.8816C9.36189 48.7792 10.0245 49.4887 9.89445 50.198C9.82843 50.7362 9.34018 51.1848 8.79666 51.1892C8.14714 51.2249 7.5714 50.6155 7.62531 49.9692C7.64359 49.4223 8.09823 48.9286 8.64496 48.8816ZM11.1809 48.8821C12.0286 48.7497 12.7309 49.7432 12.3477 50.5058C12.048 51.2842 10.8773 51.4276 10.4037 50.7392C9.85036 50.0807 10.3196 48.9416 11.1809 48.8821ZM13.7395 48.8812C14.5984 48.7586 15.2853 49.7858 14.8727 50.5424C14.5472 51.3018 13.3914 51.412 12.9331 50.7236C12.3925 50.0565 12.8775 48.9251 13.7395 48.8812ZM16.2755 48.8812C16.7197 48.8301 17.1748 49.0733 17.3854 49.4672C17.7731 50.1091 17.3557 51.0415 16.615 51.1665C15.8979 51.3415 15.1668 50.6691 15.2513 49.9415C15.2828 49.4031 15.7366 48.9242 16.2755 48.8812ZM18.8117 48.8814C19.5889 48.7685 20.2728 49.6071 20.0283 50.3501C19.8532 51.0889 18.878 51.4466 18.275 50.9796C17.8802 50.7053 17.695 50.1703 17.8343 49.7095C17.9543 49.2693 18.3571 48.9235 18.8117 48.8814ZM21.3475 48.8821C22.1953 48.7502 22.8943 49.7432 22.5141 50.5056C22.2171 51.2705 21.078 51.4278 20.59 50.7664C20.007 50.1139 20.471 48.9412 21.3475 48.8821ZM23.9063 48.8812C24.6767 48.776 25.3496 49.6048 25.1133 50.3418C24.9436 51.0813 23.9714 51.4466 23.3651 50.9847C22.989 50.7279 22.799 50.2365 22.8967 49.7919C22.9892 49.3119 23.4179 48.9183 23.9063 48.8812ZM26.4423 48.8812C26.8919 48.8289 27.3518 49.0811 27.5593 49.4823C27.9337 50.124 27.5146 51.0405 26.7819 51.1663C26.0706 51.3399 25.3418 50.6803 25.4159 49.9568C25.4399 49.412 25.8972 48.9242 26.4423 48.8812ZM28.9786 48.8814C29.8223 48.7566 30.5159 49.7423 30.1396 50.5026C29.843 51.2741 28.6909 51.4299 28.207 50.7575C27.6325 50.1004 28.1033 48.9345 28.9786 48.8814ZM35.8554 48.8812C36.7121 48.7541 37.4071 49.7725 37.0009 50.5326C36.6863 51.2893 35.5442 51.4168 35.0728 50.7458C34.512 50.0856 34.9856 48.9334 35.8554 48.8812ZM38.3914 48.8816C39.1725 48.7657 39.8567 49.6099 39.61 50.3546C39.433 51.0772 38.4882 51.4393 37.884 50.9968C37.4597 50.7236 37.2666 50.1529 37.4268 49.6751C37.5572 49.2519 37.95 48.924 38.3914 48.8816ZM40.95 48.8809C41.7923 48.7646 42.4757 49.7548 42.0948 50.5099C41.791 51.2856 40.6239 51.4264 40.1508 50.7387C39.5924 50.0736 40.0783 48.9224 40.95 48.8809ZM43.486 48.8812C44.3377 48.7586 45.0272 49.7706 44.6277 50.5275C44.3125 51.2915 43.1578 51.4189 42.6897 50.7359C42.1372 50.072 42.6177 48.926 43.486 48.8812ZM46.0219 48.8814C46.8055 48.7696 47.4873 49.622 47.2305 50.367C47.0413 51.1136 46.0362 51.4516 45.4447 50.9519C45.0512 50.6558 44.8922 50.0968 45.0639 49.6358C45.2072 49.2302 45.5922 48.9194 46.0219 48.8814ZM48.5581 48.8816C49.2748 48.7792 49.9381 49.4885 49.8079 50.198C49.7423 50.7366 49.2534 51.1848 48.7096 51.1892C48.0603 51.2249 47.4847 50.6153 47.5387 49.9692C47.5567 49.4221 48.0117 48.9288 48.5581 48.8816ZM51.0941 48.8823C51.5499 48.8248 52.0197 49.0793 52.2277 49.4885C52.602 50.1403 52.163 51.0671 51.4162 51.1718C50.6767 51.3323 49.9534 50.6031 50.0905 49.8639C50.1556 49.3598 50.5869 48.9304 51.0941 48.8823ZM53.6527 48.8812C54.5115 48.7584 55.1989 49.7853 54.7863 50.5424C54.4608 51.3016 53.3048 51.4122 52.8463 50.7233C52.3069 50.0562 52.7904 48.9254 53.6527 48.8812ZM56.1887 48.8812C56.6383 48.8292 57.0989 49.0797 57.3065 49.4816C57.6859 50.13 57.2541 51.0575 56.5101 51.1702C55.7815 51.3355 55.0564 50.6329 55.1688 49.8998C55.2193 49.3779 55.6643 48.9238 56.1887 48.8812ZM58.725 48.8814C59.4409 48.7802 60.103 49.4887 59.9734 50.1973C59.9088 50.7357 59.4196 51.1841 58.8765 51.1894C58.2181 51.2265 57.6374 50.6001 57.7058 49.9465C57.7349 49.4077 58.1859 48.9281 58.725 48.8814ZM61.261 48.8821C62.109 48.7499 62.8079 49.7429 62.4272 50.5056C62.1302 51.2705 60.9911 51.4276 60.5031 50.7664C59.9214 50.1135 60.3843 48.9414 61.261 48.8821ZM63.8196 48.8812C64.605 48.7728 65.2815 49.6346 65.0165 50.3775C64.8232 51.1099 63.8439 51.4429 63.2522 50.9657C62.8814 50.697 62.7061 50.1973 62.8185 49.7542C62.9253 49.2911 63.3442 48.9178 63.8196 48.8812ZM70.7877 48.8812C71.6465 48.7586 72.334 49.7853 71.921 50.5424C71.5954 51.3018 70.4395 51.412 69.9813 50.7233C69.4409 50.0562 69.9258 48.9251 70.7877 48.8812ZM73.3237 48.8812C73.7676 48.8299 74.2229 49.0733 74.4337 49.4672C74.8254 50.1153 74.3953 51.0563 73.6451 51.1702C72.9166 51.3355 72.1911 50.6331 72.3036 49.8998C72.3532 49.3777 72.7993 48.9235 73.3237 48.8812ZM75.86 48.8814C76.5757 48.7806 77.2383 49.4887 77.1085 50.1973C77.0437 50.7357 76.5545 51.1844 76.0117 51.1892C75.3532 51.2267 74.7724 50.6001 74.8405 49.9465C74.8696 49.4077 75.3209 48.9279 75.86 48.8814ZM3.48069 51.4681C3.94769 51.3758 4.45122 51.6197 4.67649 52.0381C5.06352 52.6762 4.65661 53.606 3.92072 53.739C3.23418 53.9124 2.51222 53.3078 2.54215 52.6036C2.5305 52.0633 2.94837 51.556 3.48069 51.4681ZM6.01689 51.4688C6.43934 51.3852 6.89582 51.5712 7.14438 51.9227C7.62097 52.5307 7.28283 53.5383 6.53026 53.7218C5.80192 53.9586 5.00296 53.2872 5.08453 52.5303C5.10989 52.0187 5.51199 51.5556 6.01689 51.4688ZM8.55288 51.4699C9.26821 51.3064 9.98789 51.977 9.9029 52.7007C9.8709 53.2407 9.4142 53.7161 8.87457 53.7592C8.23098 53.8405 7.61456 53.2735 7.62348 52.6267C7.60475 52.0837 8.01645 51.5622 8.55288 51.4699ZM11.1113 51.4672C11.5609 51.3822 12.0446 51.6053 12.2778 51.9985C12.6847 52.6162 12.3274 53.5531 11.6045 53.7242C10.9059 53.9444 10.1339 53.3307 10.1659 52.6031C10.1547 52.0612 10.5769 51.5517 11.1113 51.4672ZM13.6475 51.4681C14.4261 51.2943 15.1736 52.1082 14.9591 52.8726C14.817 53.6199 13.8583 54.023 13.233 53.5828C12.8227 53.3247 12.6182 52.7914 12.7416 52.323C12.843 51.8925 13.2118 51.5423 13.6475 51.4681ZM16.1839 51.4686C17.0187 51.276 17.788 52.2145 17.4632 53.0018C17.2207 53.7936 16.0797 54.0313 15.5499 53.3913C14.9367 52.7767 15.3219 51.5918 16.1839 51.4686ZM18.7198 51.4697C19.4997 51.2888 20.251 52.0988 20.044 52.8658C19.9076 53.6057 18.9666 54.0189 18.3384 53.5961C17.952 53.3643 17.732 52.8914 17.8004 52.4455C17.8588 51.968 18.2462 51.5531 18.7198 51.4697ZM21.2783 51.467C22.1205 51.2812 22.8809 52.2408 22.5362 53.0252C22.2788 53.8121 21.1316 54.0234 20.6163 53.3731C20.0214 52.749 20.419 51.5789 21.2783 51.467ZM23.8144 51.4679C24.6594 51.2771 25.4265 52.2424 25.0766 53.0293C24.8161 53.808 23.6847 54.0218 23.166 53.3827C22.5615 52.7634 22.9529 51.584 23.8144 51.4679ZM26.3504 51.4686C27.079 51.306 27.8017 52.0083 27.6888 52.741C27.6379 53.2688 27.1825 53.7235 26.6527 53.7608C26.0036 53.8345 25.3915 53.2544 25.4131 52.6036C25.4035 52.0647 25.8192 51.5579 26.3504 51.4686ZM28.8867 51.4695C29.6559 51.2927 30.4052 52.0814 30.2133 52.8433C30.1201 53.3382 29.6724 53.7374 29.1691 53.7623C28.5533 53.8178 27.9734 53.2888 27.9568 52.6723C27.9114 52.1126 28.3336 51.5634 28.8867 51.4695ZM38.2995 51.4699C39.1311 51.2728 39.9068 52.201 39.5906 52.9899C39.3571 53.7846 38.2152 54.0358 37.6808 53.3978C37.0608 52.7891 37.4385 51.5991 38.2995 51.4699ZM40.8576 51.4672C41.6271 51.2993 42.3655 52.0919 42.1707 52.8502C42.0459 53.595 41.1044 54.0193 40.471 53.6019C40.1001 53.3822 39.8759 52.9416 39.9172 52.5115C39.9494 52.004 40.3555 51.5483 40.8576 51.4672ZM43.3941 51.4683C44.1359 51.3041 44.8663 52.0358 44.7245 52.7788C44.6575 53.2986 44.1976 53.7355 43.6731 53.7615C43.0317 53.8242 42.432 53.246 42.4553 52.6036C42.444 52.0635 42.8617 51.556 43.3941 51.4683ZM45.9303 51.4688C46.3525 51.3852 46.8089 51.5712 47.0576 51.9225C47.5293 52.525 47.2034 53.5224 46.4613 53.7168C45.745 53.9621 44.9424 53.3217 44.9967 52.571C45.0022 52.0445 45.4114 51.5574 45.9303 51.4688ZM48.4662 51.4699C49.1828 51.3062 49.9039 51.9793 49.8165 52.7043C49.7819 53.2427 49.3264 53.7163 48.7877 53.7592C48.1441 53.8405 47.5278 53.2731 47.5368 52.6267C47.518 52.0839 47.9296 51.562 48.4662 51.4699ZM51.0247 51.4672C51.4745 51.3813 51.958 51.6051 52.1914 51.9985C52.5985 52.6162 52.2404 53.5533 51.5177 53.7242C50.8101 53.9476 50.0315 53.3154 50.0795 52.5795C50.0793 52.0454 50.499 51.5515 51.0247 51.4672ZM53.5607 51.4681C54.3991 51.2776 55.1666 52.2271 54.83 53.0135C54.5792 53.8096 53.4195 54.0282 52.9032 53.3698C52.3144 52.7469 52.7073 51.5856 53.5607 51.4681ZM56.0968 51.4686C56.932 51.276 57.7013 52.2142 57.3763 53.0018C57.1342 53.7937 55.9926 54.0313 55.4632 53.3911C54.8499 52.7765 55.2358 51.5925 56.0968 51.4686ZM58.6331 51.4697C59.4786 51.2693 60.2543 52.2321 59.9102 53.0227C59.6547 53.8027 58.5243 54.0239 58.0019 53.3879C57.395 52.7737 57.7754 51.5957 58.6331 51.4697ZM61.1912 51.467C61.6294 51.3848 62.102 51.5941 62.3394 51.9715C62.7757 52.5928 62.4105 53.5641 61.6674 53.7285C60.9536 53.9416 60.1832 53.2943 60.2459 52.5562C60.2565 52.031 60.6725 51.5483 61.1912 51.467ZM63.7274 51.4679C64.5798 51.2746 65.3489 52.2577 64.983 53.0458C64.7114 53.82 63.578 54.0157 63.0687 53.3705C62.4784 52.7476 62.8732 51.5838 63.7274 51.4679ZM70.6957 51.4681C71.4517 51.3007 72.1887 52.0642 72.0192 52.8161C71.9361 53.3192 71.4858 53.7352 70.9748 53.7613C70.3322 53.8254 69.732 53.2477 69.7558 52.6036C69.7449 52.0633 70.1623 51.5549 70.6957 51.4681ZM73.2318 51.4686C74.067 51.2757 74.8364 52.2145 74.5113 53.0018C74.2688 53.7937 73.128 54.031 72.5982 53.3913C71.9849 52.7765 72.3703 51.592 73.2318 51.4686ZM75.7682 51.4697C76.483 51.3071 77.201 51.9772 77.1172 52.7004C77.085 53.24 76.629 53.7156 76.0896 53.7592C75.4455 53.841 74.8278 53.2735 74.8376 52.6262C74.8168 52.0821 75.2315 51.562 75.7682 51.4697ZM21.3247 54.0347C22.1796 53.8839 22.9015 54.887 22.5129 55.6582C22.2106 56.4334 21.0454 56.5771 20.5708 55.8918C20.0218 55.2401 20.4724 54.111 21.3247 54.0347ZM23.8833 54.033C24.6614 53.9114 25.3542 54.7482 25.1126 55.4947C24.9405 56.2381 23.9568 56.5995 23.3535 56.1263C22.9801 55.8643 22.7963 55.3697 22.9001 54.9258C22.9979 54.4602 23.4094 54.0809 23.8833 54.033ZM26.4193 54.034C27.1475 53.9181 27.8261 54.6465 27.6815 55.3666C27.6078 55.9025 27.1136 56.3425 26.5714 56.3384C25.9234 56.3686 25.3569 55.7525 25.4154 55.11C25.4385 54.5715 25.8819 54.088 26.4193 54.034ZM28.9554 54.0342C29.8059 53.8887 30.5218 54.8853 30.1386 55.6534C29.8412 56.4299 28.6758 56.5778 28.1983 55.8959C27.6429 55.2439 28.098 54.1041 28.9554 54.0342ZM56.1657 54.034C56.9542 53.9049 57.6575 54.7633 57.3955 55.5157C57.2106 56.2499 56.2346 56.5928 55.6381 56.1235C55.2692 55.8611 55.0858 55.3703 55.1892 54.9293C55.285 54.4648 55.6929 54.0839 56.1657 54.034ZM58.7019 54.0342C59.4734 53.9056 60.1715 54.7214 59.9506 55.4674C59.7983 56.2037 58.8492 56.5919 58.2315 56.158C57.8035 55.8915 57.599 55.3247 57.7526 54.8444C57.8744 54.4184 58.2625 54.0857 58.7019 54.0342ZM61.2378 54.0347C61.6726 53.9719 62.1263 54.1934 62.3532 54.5686C62.7779 55.2013 62.3859 56.1666 61.6366 56.3113C60.908 56.5062 60.1513 55.8198 60.2495 55.0766C60.285 54.5543 60.7181 54.0948 61.2378 54.0347ZM63.774 54.0349C64.4988 53.9111 65.1857 54.6222 65.0571 55.3435C64.994 55.8784 64.5122 56.3281 63.9724 56.3377C63.3192 56.3855 62.7332 55.7712 62.7877 55.1218C62.8031 54.5851 63.2413 54.0995 63.774 54.0349ZM70.7421 54.0351C71.5874 53.8824 72.3124 54.8573 71.9488 55.6304C71.6691 56.408 70.5202 56.5878 70.0224 55.9263C69.4378 55.2845 69.8747 54.1182 70.7421 54.0351ZM73.3007 54.034C74.1407 53.8935 74.8547 54.8688 74.488 55.6342C74.2041 56.4164 73.0411 56.5861 72.5512 55.9117C71.9781 55.2614 72.4327 54.1015 73.3007 54.034ZM75.8369 54.0344C76.6009 53.9071 77.2968 54.707 77.09 55.4494C76.9486 56.1951 75.9899 56.5967 75.3662 56.1584C74.9385 55.8915 74.7339 55.3247 74.8871 54.8444C75.0091 54.4191 75.397 54.0845 75.8369 54.0344ZM0 57.6084C0.0753941 57.0876 0.51702 56.6345 1.05049 56.605C1.57985 56.5495 2.10235 56.9258 2.23806 57.4377C2.44345 58.08 1.97144 58.8277 1.30021 58.9026C0.681974 59.0084 0.0785925 58.5167 0 57.9042V57.6084ZM3.45831 56.6221C3.90358 56.5287 4.39205 56.7322 4.63422 57.1196C5.06717 57.7312 4.71945 58.6925 3.9895 58.871C3.29906 59.0957 2.52548 58.5014 2.54215 57.7791C2.51885 57.2379 2.92735 56.7218 3.45831 56.6221ZM6.01667 56.6201C6.84578 56.4277 7.61503 57.3507 7.30226 58.1378C7.06945 58.9385 5.9182 59.1872 5.38496 58.5419C4.77267 57.9284 5.15468 56.742 6.01667 56.6201ZM8.55266 56.6208C9.30958 56.4449 10.0548 57.2044 9.88943 57.9593C9.79049 58.7137 8.8499 59.1738 8.20266 58.7637C7.78182 58.529 7.54649 58.0124 7.64428 57.54C7.7231 57.0859 8.09916 56.702 8.55266 56.6208ZM11.0889 56.6211C11.8259 56.4483 12.5627 57.1616 12.4387 57.9042C12.3825 58.427 11.9285 58.875 11.4028 58.9102C10.7896 58.979 10.1997 58.4641 10.1691 57.8495C10.1101 57.2841 10.5298 56.7204 11.0889 56.6211ZM13.6251 56.6221C14.0928 56.5222 14.6043 56.7568 14.835 57.1762C15.2298 57.808 14.836 58.7424 14.1028 58.8847C13.4053 59.0744 12.6639 58.4505 12.7078 57.7331C12.7062 57.2078 13.1099 56.718 13.6251 56.6221ZM16.1835 56.6196C16.9127 56.4566 17.6388 57.1587 17.523 57.8933C17.4716 58.4308 16.9975 58.8896 16.4576 58.9129C15.8193 58.9684 15.2278 58.3957 15.2474 57.7564C15.2378 57.218 15.6511 56.7075 16.1835 56.6196ZM18.7195 56.6204C19.4592 56.4505 20.1931 57.1726 20.061 57.9152C20.0007 58.432 19.5536 58.8712 19.0341 58.91C18.3934 58.9876 17.7814 58.4229 17.7894 57.7793C17.7676 57.2345 18.1818 56.713 18.7195 56.6204ZM21.2557 56.6209C21.6959 56.5301 22.1734 56.7329 22.4183 57.1096C22.8658 57.7307 22.5015 58.7157 21.7512 58.8794C21.0481 59.0861 20.2865 58.4608 20.3317 57.7326C20.3312 57.2056 20.737 56.7135 21.2557 56.6209ZM23.7918 56.6218C24.5612 56.4366 25.3182 57.2188 25.1325 57.9839C25.0185 58.737 24.0691 59.1728 23.4304 58.752C23.006 58.5046 22.7836 57.9682 22.9025 57.4914C22.9981 57.0615 23.3591 56.7041 23.7918 56.6218ZM26.3278 56.6225C26.7517 56.5332 27.2137 56.7109 27.468 57.0622C27.9453 57.6589 27.6325 58.6572 26.8944 58.8616C26.1816 59.119 25.3686 58.4868 25.4133 57.7353C25.4138 57.2116 25.8129 56.7204 26.3278 56.6225ZM28.8861 56.6204C29.3425 56.5284 29.8376 56.7534 30.0715 57.1563C30.4847 57.7901 30.09 58.7446 29.3453 58.887C28.6318 59.0764 27.8835 58.4189 27.9573 57.6877C27.9769 57.1747 28.3809 56.7082 28.8861 56.6204ZM35.763 56.6202C36.5332 56.4437 37.2819 57.2331 37.0893 57.9957C36.9645 58.7515 36.0021 59.1786 35.3681 58.7391C35.0091 58.517 34.7958 58.0857 34.8348 57.6647C34.8638 57.1597 35.2652 56.7061 35.763 56.6202ZM38.2993 56.6208C39.1405 56.4189 39.9169 57.3684 39.5838 58.1594C39.3384 58.9419 38.2132 59.1774 37.6818 58.55C37.0608 57.9414 37.4371 56.7492 38.2993 56.6208ZM40.8353 56.6215C41.6114 56.4361 42.3699 57.2353 42.1702 58.0028C42.0423 58.7527 41.0898 59.1719 40.4573 58.7439C40.0644 58.5062 39.8487 58.0189 39.9289 57.5668C39.9971 57.1038 40.3763 56.7073 40.8353 56.6215ZM43.3713 56.6223C44.0975 56.4483 44.8328 57.135 44.7315 57.8708C44.69 58.4018 44.2399 58.8646 43.7085 58.909C43.0651 58.9921 42.4457 58.4263 42.4553 57.7788C42.4332 57.2384 42.8403 56.7218 43.3713 56.6223ZM45.9299 56.6202C46.7072 56.4423 47.4577 57.248 47.2509 58.0137C47.1158 58.753 46.1775 59.1692 45.5488 58.7485C45.1602 58.518 44.9405 58.044 45.0074 57.5977C45.0656 57.1189 45.4537 56.7008 45.9299 56.6202ZM48.4659 56.6208C49.1837 56.456 49.9066 57.1312 49.8165 57.8574C49.7812 58.3978 49.3209 58.8705 48.7805 58.91C48.1232 58.9904 47.5026 58.392 47.5368 57.7333C47.5382 57.2047 47.945 56.7116 48.4659 56.6208ZM51.0022 56.6211C51.7318 56.4504 52.4647 57.1484 52.3544 57.8851C52.3064 58.4155 51.8485 58.8746 51.3161 58.9102C50.7027 58.979 50.1131 58.4641 50.0822 57.8494C50.0235 57.2841 50.4429 56.72 51.0022 56.6211ZM53.538 56.6218C53.9835 56.5282 54.4709 56.7334 54.7137 57.1196C55.1465 57.731 54.7987 58.6922 54.0694 58.8708C53.379 59.0964 52.6054 58.5014 52.6211 57.7798C52.5968 57.2384 53.0074 56.7218 53.538 56.6218ZM56.0966 56.6196C56.8261 56.4566 57.5524 57.1589 57.4364 57.8935C57.3847 58.4311 56.9109 58.8897 56.3708 58.9129C55.7181 58.9705 55.1198 58.37 55.1612 57.718C55.172 57.1932 55.5771 56.7056 56.0966 56.6196ZM58.6326 56.6204C59.3494 56.4572 60.068 57.1292 59.9822 57.8537C59.947 58.3947 59.4892 58.8705 58.9472 58.91C58.3065 58.9878 57.6955 58.4222 57.7027 57.7793C57.6811 57.2345 58.0954 56.7135 58.6326 56.6204ZM61.1688 56.6209C61.6146 56.5287 62.0985 56.7382 62.3406 57.1237C62.7766 57.7458 62.408 58.7169 61.6643 58.8794C60.9614 59.0861 60.2001 58.4607 60.2452 57.7326C60.2445 57.2058 60.6503 56.7135 61.1688 56.6209ZM63.7051 56.6218C64.1558 56.5268 64.6482 56.7398 64.8885 57.1335C65.3065 57.7461 64.9591 58.6925 64.2363 58.8708C63.5454 59.0958 62.7712 58.5021 62.7867 57.7798C62.7637 57.2388 63.1727 56.7199 63.7051 56.6218ZM70.6732 56.6221C71.5118 56.4153 72.2969 57.3549 71.9705 58.1491C71.7315 58.9402 70.5922 59.1822 70.0612 58.5453C69.4482 57.9375 69.8185 56.7578 70.6732 56.6221ZM73.2315 56.6196C74.074 56.4244 74.8466 57.3803 74.5045 58.1694C74.25 58.956 73.109 59.1755 72.5881 58.5307C71.9877 57.9131 72.3758 56.7407 73.2315 56.6196ZM75.7676 56.6204C76.5074 56.4504 77.2413 57.1726 77.1092 57.9152C77.0488 58.432 76.602 58.8712 76.0824 58.91C75.4416 58.9878 74.83 58.4224 74.8376 57.7793C74.8158 57.2345 75.2303 56.7132 75.7676 56.6204ZM78.3038 56.6209C78.7497 56.5287 79.2332 56.7384 79.4755 57.1237C79.9107 57.7458 79.543 58.7169 78.7993 58.8794C78.0965 59.0861 77.3346 58.4608 77.3799 57.7326C77.3795 57.2058 77.785 56.7132 78.3038 56.6209ZM80.8398 56.6218C81.5646 56.4499 82.298 57.135 82.1974 57.8695C82.1576 58.4009 81.7072 58.865 81.1753 58.9083C80.532 58.9928 79.9129 58.4265 79.9213 57.7802C79.898 57.2391 80.3077 56.7199 80.8398 56.6218ZM83.3758 56.6225C84.1563 56.4311 84.9244 57.2364 84.7171 58.0089C84.5853 58.7563 83.6319 59.1731 83.0026 58.7413C82.6146 58.5043 82.3991 58.0225 82.4758 57.5744C82.5427 57.1117 82.9169 56.7116 83.3758 56.6225ZM85.9342 56.6204C86.4018 56.5256 86.909 56.7652 87.1364 57.185C87.5283 57.8258 87.1165 58.7624 86.3747 58.8909C85.6654 59.066 84.9333 58.4114 85.0057 57.6877C85.0252 57.1747 85.4291 56.7082 85.9342 56.6204ZM88.4707 56.6209C89.3048 56.4203 90.0804 57.3535 89.762 58.1429C89.529 58.9299 88.4049 59.1821 87.865 58.5611C87.2335 57.9565 87.6019 56.7506 88.4707 56.6209ZM91.0069 56.6218C91.4638 56.5247 91.959 56.748 92.1983 57.1481C92.4895 57.6101 92.3962 58.2697 91.9813 58.6264C91.4669 59.119 90.5317 58.9461 90.2219 58.3061C89.848 57.6613 90.2709 56.7441 91.0069 56.6218ZM93.5428 56.6223C94.0171 56.5205 94.5346 56.7613 94.7634 57.19C95.1746 57.8636 94.6893 58.8427 93.9008 58.9066C93.1043 59.0338 92.4064 58.1584 92.6808 57.4047C92.8007 57.0139 93.1417 56.7011 93.5428 56.6223ZM96.1013 56.6204C96.9382 56.4244 97.7114 57.3659 97.3819 58.1551C97.1379 58.9454 95.9988 59.1803 95.4702 58.5411C94.86 57.9268 95.2404 56.7446 96.1013 56.6204ZM97.785 57.3463C97.965 56.8312 98.5442 56.5041 99.0775 56.6228C99.5663 56.7123 99.926 57.1508 100 57.6318V57.8811C99.9219 58.5067 99.3105 59.0192 98.6765 58.9011C97.9772 58.8117 97.5118 57.9976 97.785 57.3463ZM0.971213 59.1886C1.51359 59.0936 2.07904 59.4591 2.23029 59.9866C2.45464 60.6355 1.97829 61.4064 1.29404 61.479C0.680603 61.5802 0.0891021 61.0951 0 60.4919V60.1736C0.0813343 59.6851 0.471556 59.2537 0.971213 59.1886ZM3.52661 59.1865C3.97349 59.1182 4.44299 59.3511 4.6653 59.7442C5.07402 60.3866 4.65845 61.3435 3.90541 61.4672C3.18711 61.6396 2.45488 60.9649 2.54536 60.2353C2.57802 59.7138 3.00754 59.2496 3.52661 59.1865ZM6.06306 59.1869C6.85264 59.0402 7.573 59.8921 7.32077 60.651C7.14805 61.373 6.2079 61.7379 5.60156 61.3023C5.20014 61.0464 4.99885 60.5252 5.11331 60.0637C5.2127 59.6132 5.60589 59.2475 6.06306 59.1869ZM8.5988 59.1872C9.43773 59.0264 10.1736 59.984 9.82635 60.7595C9.5602 61.5469 8.40439 61.7463 7.89763 61.0845C7.30843 60.4485 7.73382 59.2793 8.5988 59.1872ZM11.1574 59.1858C11.6157 59.117 12.0941 59.3683 12.3082 59.7781C12.6847 60.4189 12.2707 61.339 11.5362 61.4655C10.8138 61.6444 10.0745 60.9637 10.17 60.2293C10.2049 59.7071 10.6374 59.246 11.1574 59.1858ZM13.6934 59.1864C14.14 59.1185 14.6091 59.3512 14.8312 59.7442C15.2339 60.3804 14.8341 61.326 14.0914 61.4627C13.3669 61.6516 12.6169 60.9706 12.711 60.232C12.7453 59.7114 13.175 59.2484 13.6934 59.1864ZM16.2296 59.1869C17.019 59.0405 17.7387 59.8925 17.4868 60.6506C17.3146 61.3727 16.3742 61.7372 15.7681 61.3026C15.3724 61.0503 15.1672 60.5393 15.2751 60.0821C15.3674 59.6231 15.7661 59.2477 16.2296 59.1869ZM18.7658 59.1872C19.603 59.0271 20.3384 59.9828 19.9925 60.7575C19.7305 61.5393 18.5869 61.7468 18.0749 61.0972C17.4695 60.4655 17.8929 59.2784 18.7658 59.1872ZM21.324 59.1857C22.1734 59.0345 22.895 60.0245 22.5188 60.7949C22.2288 61.5663 21.0838 61.732 20.5922 61.0695C20.0139 60.4244 20.4572 59.2619 21.324 59.1857ZM23.8602 59.1862C24.6013 59.0567 25.2954 59.8018 25.1376 60.5338C25.0571 61.0524 24.5852 61.4776 24.0591 61.4881C23.4073 61.5342 22.8203 60.9239 22.8741 60.2745C22.8885 59.7372 23.3263 59.249 23.8602 59.1862ZM26.3963 59.1869C27.1705 59.0447 27.883 59.8622 27.6621 60.6133C27.5113 61.3621 26.5379 61.7504 25.921 61.2942C25.5269 61.0359 25.3305 60.5199 25.4453 60.0632C25.5433 59.6121 25.9395 59.2466 26.3963 59.1869ZM28.9327 59.187C29.3912 59.1135 29.8727 59.359 30.0925 59.7671C30.4813 60.4127 30.0595 61.3471 29.3144 61.4689C28.5862 61.6403 27.8518 60.9426 27.9618 60.2066C28.0074 59.6987 28.4268 59.2535 28.9327 59.187ZM35.8093 59.187C36.274 59.1128 36.7637 59.3658 36.9769 59.7853C37.3425 60.417 36.9445 61.3157 36.2291 61.4605C35.544 61.6453 34.8107 61.0508 34.8316 60.3442C34.8107 59.7848 35.255 59.2573 35.8093 59.187ZM38.3454 59.1872C39.1172 59.0423 39.8367 59.8494 39.6225 60.6022C39.4818 61.3394 38.5375 61.7428 37.9152 61.3174C37.5127 61.0744 37.2963 60.5685 37.3932 60.1084C37.4769 59.6419 37.8759 59.2518 38.3454 59.1872ZM40.9039 59.1858C41.7471 59.034 42.4695 60.0094 42.1074 60.7798C41.8266 61.5623 40.6669 61.7386 40.1734 61.0675C39.5977 60.423 40.0392 59.264 40.9039 59.1858ZM43.4399 59.1864C43.8984 59.1158 44.3789 59.3636 44.5951 59.7731C44.9824 60.4223 44.5495 61.3607 43.7997 61.4706C43.0862 61.6286 42.3703 60.9574 42.4585 60.2355C42.4914 59.7138 42.9207 59.2501 43.4399 59.1864ZM45.976 59.187C46.7147 59.0524 47.4133 59.7911 47.2634 60.5227C47.1863 61.0481 46.7075 61.483 46.1748 61.4886C45.531 61.5287 44.9536 60.9314 44.9966 60.2899C45.0053 59.7496 45.4393 59.2549 45.976 59.187ZM48.5122 59.1872C48.9315 59.1213 49.3742 59.3164 49.6129 59.6671C50.0802 60.2891 49.714 61.2958 48.9505 61.4563C48.209 61.6709 47.4299 60.9644 47.5435 60.2059C47.5903 59.6991 48.007 59.2545 48.5122 59.1872ZM51.0704 59.1858C51.92 59.0333 52.6434 60.0247 52.2664 60.7954C51.976 61.5663 50.8302 61.732 50.3393 61.0689C49.7634 60.4236 50.2042 59.2633 51.0704 59.1858ZM53.6066 59.1864C54.0535 59.1183 54.5223 59.3512 54.7445 59.7442C55.1474 60.3804 54.7473 61.3263 54.0043 61.4627C53.2796 61.6515 52.5314 60.9706 52.6244 60.2322C52.6592 59.7118 53.0879 59.2484 53.6066 59.1864ZM56.1431 59.1869C56.9248 59.0426 57.6422 59.8775 57.4051 60.6328C57.2431 61.365 56.2933 61.742 55.6813 61.3026C55.2969 61.057 55.0925 60.5682 55.1809 60.1207C55.2598 59.6458 55.6657 59.249 56.1431 59.1869ZM58.6787 59.1872C59.1427 59.1128 59.6325 59.3641 59.848 59.7813C60.2255 60.427 59.8 61.3492 59.061 61.4689C58.3322 61.6393 57.6004 60.9419 57.7094 60.2061C57.7562 59.6991 58.1734 59.2542 58.6787 59.1872ZM61.2372 59.1857C62.0939 59.0331 62.8158 60.0391 62.4255 60.8107C62.1235 61.5768 60.9776 61.7262 60.4955 61.057C59.9323 60.4086 60.3775 59.2618 61.2372 59.1857ZM63.7731 59.1862C64.5593 59.0462 65.2719 59.8897 65.0254 60.6456C64.8552 61.3821 63.8864 61.7447 63.2817 61.2866C62.9171 61.0381 62.7236 60.5706 62.8021 60.136C62.8766 59.6535 63.2877 59.2448 63.7731 59.1862ZM70.7416 59.1864C71.5876 59.0311 72.3141 60.0103 71.9479 60.783C71.665 61.5642 70.5063 61.7368 70.0137 61.0663C69.4407 60.4222 69.8802 59.2681 70.7416 59.1864ZM73.2778 59.1869C74.0598 59.0422 74.7767 59.8775 74.5401 60.6328C74.3782 61.365 73.4284 61.7416 72.8163 61.303C72.4208 61.0501 72.2154 60.5393 72.3233 60.0821C72.4162 59.6235 72.8143 59.2477 73.2778 59.1869ZM75.8141 59.187C76.2778 59.1128 76.7671 59.3641 76.9829 59.7813C77.3559 60.4205 76.9443 61.3339 76.2147 61.4651C75.4817 61.6503 74.7335 60.9495 74.8442 60.2064C74.8908 59.6991 75.3084 59.2539 75.8141 59.187ZM78.3722 59.1857C78.8362 59.1171 79.3203 59.3751 79.5305 59.7937C79.902 60.4466 79.459 61.37 78.7133 61.4728C77.9823 61.6269 77.2666 60.9186 77.3878 60.1858C77.4429 59.681 77.8669 59.2434 78.3722 59.1857ZM80.9083 59.1862C81.6568 59.0551 82.3545 59.8159 82.1823 60.5527C82.0944 61.0634 81.6265 61.4771 81.1074 61.4881C80.4556 61.5342 79.8686 60.9239 79.9225 60.2745C79.9368 59.7374 80.3744 59.249 80.9083 59.1862ZM83.4447 59.1869C84.2262 59.0428 84.9416 59.877 84.7055 60.6319C84.5427 61.3768 83.5649 61.7492 82.9556 61.2848C82.5646 61.0206 82.3758 60.5007 82.4981 60.0452C82.6018 59.6018 82.994 59.2461 83.4447 59.1869ZM85.9806 59.187C86.4392 59.114 86.9213 59.3583 87.1407 59.7671C87.5293 60.4127 87.1078 61.3471 86.3627 61.4687C85.6345 61.6403 84.9001 60.9424 85.0103 60.2064C85.0555 59.6989 85.4755 59.2537 85.9806 59.187ZM88.5389 59.1857C88.9628 59.1245 89.4071 59.3325 89.6374 59.6936C90.0658 60.3009 89.7305 61.253 89.0091 61.4419C88.3113 61.6796 87.5228 61.0771 87.5449 60.3447C87.5245 59.7805 87.9776 59.2473 88.5389 59.1857ZM91.0749 59.1862C91.5106 59.1213 91.9676 59.3408 92.1945 59.7181C92.4734 60.1542 92.409 60.7729 92.0439 61.1403C91.7082 61.5036 91.1266 61.595 90.6945 61.3566C90.3076 61.1513 90.0583 60.7128 90.0872 60.2734C90.1033 59.7369 90.5406 59.248 91.0749 59.1862ZM93.6114 59.1865C94.0816 59.1134 94.5737 59.3755 94.7832 59.8025C95.1588 60.471 94.6791 61.4081 93.9145 61.4797C93.1712 61.6049 92.4799 60.8502 92.6465 60.1185C92.7277 59.6438 93.133 59.2475 93.6114 59.1865ZM96.1474 59.187C96.6061 59.1142 97.0905 59.3593 97.3071 59.7703C97.6859 60.4023 97.2887 61.3143 96.5673 61.4606C95.8737 61.648 95.1342 61.0361 95.17 60.3214C95.1606 59.7702 95.6011 59.2566 96.1474 59.187ZM97.8072 59.8638C98.0075 59.3854 98.5567 59.0859 99.0663 59.1961C99.5634 59.2827 99.9328 59.7286 100 60.2192V60.4464C99.9292 61.0869 99.2932 61.6082 98.6489 61.471C97.9383 61.3643 97.4967 60.511 97.8072 59.8638ZM0 62.6929C0.0781357 62.0575 0.727668 61.556 1.36143 61.7035C2.03907 61.8158 2.46904 62.6113 2.20927 63.2452C2.03679 63.7375 1.49989 64.0666 0.98355 63.984C0.477952 63.9228 0.0749371 63.485 0 62.9885V62.6929ZM3.62029 61.6824C4.07745 61.6501 4.53233 61.932 4.71739 62.3504C5.06215 63.0299 4.55608 63.9422 3.79323 63.9893C3.05529 64.0893 2.39411 63.3361 2.56203 62.6149C2.65135 62.1116 3.10876 61.703 3.62029 61.6824ZM6.15605 61.6826C6.60749 61.6496 7.05711 61.9199 7.24949 62.3291C7.6043 62.9962 7.12702 63.9105 6.37377 63.9852C5.64337 64.1095 4.95523 63.3842 5.09642 62.6602C5.16518 62.1388 5.63057 61.7056 6.15605 61.6826ZM8.69203 61.6829C9.47521 61.6022 10.1266 62.4716 9.84716 63.205C9.6445 63.9172 8.69316 64.238 8.1067 63.7834C7.72264 63.5153 7.53826 63.0008 7.65982 62.5486C7.77313 62.0783 8.20814 61.7073 8.69203 61.6829ZM11.2282 61.6831C11.9493 61.6102 12.5835 62.3407 12.4295 63.0467C12.3434 63.585 11.8328 64.0164 11.2865 63.9943C10.6297 64.0024 10.0779 63.3533 10.1725 62.7049C10.2232 62.1695 10.6907 61.7124 11.2282 61.6831ZM13.7868 61.6824C14.6415 61.5991 15.2883 62.636 14.859 63.3758C14.5134 64.1281 13.3498 64.2045 12.912 63.5008C12.3888 62.8127 12.9182 61.6927 13.7868 61.6824ZM16.323 61.6826C17.05 61.6152 17.6827 62.3675 17.5065 63.0752C17.4076 63.6132 16.8826 64.0321 16.3354 63.9931C15.6897 63.9804 15.1627 63.3383 15.2557 62.7018C15.3068 62.1628 15.7818 61.7045 16.323 61.6826ZM18.8588 61.6829C19.6347 61.6041 20.2817 62.4569 20.0183 63.1877C19.8239 63.9153 18.8499 64.2466 18.2598 63.7739C17.8732 63.4964 17.6965 62.9677 17.835 62.5118C17.9604 62.0575 18.3874 61.7066 18.8588 61.6829ZM21.395 61.6831C22.2462 61.5898 22.9066 62.6097 22.4926 63.356C22.1599 64.1219 20.9827 64.2126 20.5392 63.5046C20.0158 62.8224 20.532 61.7059 21.395 61.6831ZM23.9536 61.6824C24.7438 61.6102 25.3843 62.4993 25.087 63.2322C24.8593 63.9613 23.8521 64.2459 23.2853 63.7289C22.915 63.4254 22.7719 62.8814 22.9436 62.4342C23.0917 62.011 23.5065 61.7021 23.9536 61.6824ZM26.4895 61.6826C27.2164 61.6157 27.847 62.3682 27.6724 63.075C27.5709 63.6121 27.05 64.0319 26.5022 63.9934C25.8561 63.9807 25.3251 63.3376 25.4215 62.6997C25.475 62.1619 25.9484 61.7037 26.4895 61.6826ZM35.9027 61.6829C36.7491 61.5953 37.4022 62.6078 36.9952 63.3517C36.6657 64.1109 35.5065 64.2164 35.0519 63.5225C34.5065 62.8416 35.0262 61.6984 35.9027 61.6829ZM38.4385 61.6831C38.8732 61.6496 39.3098 61.8947 39.5132 62.2803C39.904 62.9362 39.4565 63.8809 38.6979 63.9797C37.958 64.1319 37.2428 63.3988 37.3847 62.6621C37.4542 62.1432 37.9148 61.7087 38.4385 61.6831ZM40.9746 61.6831C41.6969 61.609 42.3338 62.3413 42.1773 63.0487C42.0889 63.5862 41.5792 64.0171 41.0327 63.9943C40.3777 64.0006 39.8266 63.3547 39.9207 62.7076C39.9686 62.1709 40.4366 61.7128 40.9746 61.6831ZM43.5332 61.6824C43.9904 61.6501 44.4455 61.932 44.6307 62.3502C44.971 63.022 44.4818 63.9254 43.7291 63.9867C43.0019 64.1001 42.3276 63.376 42.469 62.6573C42.5394 62.1357 43.0074 61.7032 43.5332 61.6824ZM46.0694 61.6829C46.5149 61.6501 46.9594 61.9127 47.1551 62.3138C47.5283 62.989 47.0356 63.9283 46.2647 63.9876C45.525 64.0989 44.8484 63.345 45.0171 62.6193C45.1028 62.1152 45.5581 61.7052 46.0694 61.6829ZM48.6052 61.6831C49.0632 61.6475 49.5218 61.9237 49.7102 62.3426C50.0473 62.9969 49.5949 63.8823 48.8645 63.9797C48.1242 64.1322 47.4076 63.3995 47.5502 62.6621C47.6196 62.1427 48.081 61.7083 48.6052 61.6831ZM51.1414 61.6829C51.9952 61.5884 52.6558 62.6113 52.2399 63.3588C51.9061 64.1164 50.7466 64.2123 50.2959 63.5175C49.7596 62.8371 50.2726 61.7083 51.1414 61.6829ZM53.7 61.6824C54.4976 61.6075 55.1412 62.5149 54.8287 63.2495C54.5915 63.9689 53.5941 64.2396 53.0322 63.7289C52.6725 63.433 52.5284 62.9103 52.6792 62.4703C52.8191 62.0326 53.2399 61.7018 53.7 61.6824ZM56.2359 61.6826C56.9635 61.6151 57.5958 62.3674 57.42 63.0755C57.3206 63.6132 56.7957 64.0322 56.2486 63.9934C55.6032 63.98 55.0766 63.3382 55.1691 62.7018C55.2205 62.1631 55.6952 61.7056 56.2359 61.6826ZM58.7719 61.6829C59.5399 61.6056 60.188 62.4421 59.9369 63.17C59.7533 63.9079 58.7683 64.2518 58.1729 63.7738C57.8028 63.5072 57.6229 63.0099 57.7346 62.5671C57.8398 62.0876 58.2815 61.7073 58.7719 61.6829ZM61.3083 61.6831C62.1597 61.5901 62.8197 62.6094 62.4063 63.356C62.0732 64.1221 60.8963 64.2123 60.4525 63.5046C59.9292 62.8224 60.4462 61.7071 61.3083 61.6831ZM73.3713 61.6826C74.0985 61.6152 74.7306 62.3674 74.5547 63.0752C74.4556 63.6132 73.9308 64.0322 73.3837 63.9934C72.7382 63.9804 72.2111 63.3383 72.3038 62.7018C72.355 62.1631 72.83 61.7045 73.3713 61.6826ZM75.9073 61.6829C76.6828 61.6046 77.3304 62.4567 77.0667 63.1877C76.8723 63.9153 75.8979 64.2466 75.3079 63.7739C74.9378 63.5072 74.7574 63.0099 74.8693 62.5671C74.9745 62.0872 75.4167 61.7073 75.9073 61.6829ZM78.4433 61.6831C79.2946 61.5898 79.9548 62.6094 79.5409 63.356C79.2082 64.1219 78.0308 64.2128 77.5874 63.5046C77.0637 62.8227 77.5807 61.7059 78.4433 61.6831ZM81.0019 61.6824C81.8566 61.6005 82.5005 62.6348 82.0732 63.3753C81.7265 64.1274 80.5649 64.205 80.1266 63.501C79.6023 62.8124 80.1318 61.6915 81.0019 61.6824ZM83.5379 61.6826C84.3379 61.6049 84.9861 62.5163 84.6691 63.2528C84.4313 63.9647 83.4481 64.2368 82.885 63.7372C82.5079 63.4362 82.3605 62.8888 82.532 62.4376C82.6804 62.0161 83.0906 61.703 83.5379 61.6826ZM86.074 61.6829C86.8638 61.6034 87.5118 62.4864 87.2212 63.2222C87.0027 63.9476 86.0084 64.2456 85.4359 63.7444C85.0629 63.4538 84.9088 62.9237 85.0601 62.4761C85.1965 62.0381 85.6153 61.7059 86.074 61.6829ZM88.61 61.6831C89.3886 61.6022 90.0396 62.4589 89.773 63.1923C89.5762 63.9118 88.616 64.2428 88.0259 63.7818C87.628 63.5044 87.4471 62.9603 87.5954 62.4984C87.7224 62.0512 88.146 61.7085 88.61 61.6831ZM91.1691 61.6822C91.5901 61.6563 92.0125 61.8906 92.2166 62.2607C92.4667 62.6875 92.401 63.2713 92.0589 63.6295C91.7394 63.9866 91.1844 64.0982 90.7531 63.89C90.2915 63.6837 90.011 63.1494 90.1009 62.6511C90.1741 62.1303 90.6431 61.7004 91.1691 61.6822ZM93.7048 61.6826C94.5608 61.597 95.2106 62.6353 94.7786 63.3765C94.4332 64.1302 93.2688 64.2025 92.8321 63.4989C92.31 62.8119 92.8388 61.6953 93.7048 61.6826ZM96.2407 61.6829C97.0872 61.5951 97.7402 62.6078 97.3333 63.3517C97.0041 64.1111 95.8446 64.2164 95.39 63.5225C94.8449 62.8416 95.3646 61.6987 96.2407 61.6829ZM98.7368 61.6865C99.3544 61.607 99.9232 62.1118 100 62.7155V62.9651C99.9227 63.4902 99.4913 63.9553 98.9498 63.9903C98.4202 64.0484 97.895 63.6769 97.7565 63.1649C97.5387 62.5053 98.044 61.7367 98.7368 61.6865Z" fill="url(#paint0_linear_704_14)"/>
<defs>
<linearGradient id="paint0_linear_704_14" x1="50" y1="36" x2="50" y2="64" gradientUnits="userSpaceOnUse">
<stop stop-color="#62A3FF"/>
<stop offset="1" stop-color="#8462FF"/>
</linearGradient>
</defs>
</svg>
