<svg width="100" height="100" viewBox="0 0 100 100" fill="none" xmlns="http://www.w3.org/2000/svg">
<g clip-path="url(#clip0_3626_21549)">
<path fill-rule="evenodd" clip-rule="evenodd" d="M92.0655 17.8616L65.5671 70.171L67.7813 74.3113L92.7011 28.1663L92.7012 28.1662C93.0833 27.4589 94.0731 27.3952 94.5427 28.0476L97.4091 32.0314L97.4092 32.0314C97.6551 32.3733 97.6824 32.8271 97.4775 33.1963C97.4775 33.1964 97.4774 33.1965 97.4774 33.1966L69.6431 83.3797L68.4794 82.7337L96.2394 32.6846L93.6884 29.1391L68.7383 75.3401L68.7382 75.3404C68.3256 76.1037 67.2297 76.1017 66.8201 75.3362L66.8201 75.3361L64.3343 70.688L64.3342 70.6879C64.1666 70.3743 64.1628 69.9992 64.3226 69.6826L64.3228 69.6821L64.323 69.6817L90.8784 17.2598L92.0655 17.8616Z" fill="#342B4C"/>
<path fill-rule="evenodd" clip-rule="evenodd" d="M94.7143 17.5696L67.8957 70.0131L70.1145 74.5223L95.1249 28.024C95.4944 27.3368 96.4579 27.2795 96.9062 27.9179L99.8094 32.0511L99.8094 32.0512C100.04 32.38 100.064 32.8122 99.8682 33.1639L99.8681 33.164L71.9858 83.3349L70.8932 82.7271L98.714 32.6669L96.0711 28.9042L71.0299 75.4599C70.6258 76.2115 69.5422 76.191 69.1658 75.4261M69.1658 75.4261L66.7295 70.4748L66.7294 70.4748C66.5833 70.1778 66.5856 69.8288 66.7367 69.5336L93.6013 17L94.7143 17.5696M98.7866 32.7703L98.7866 32.7703ZM69.9291 74.8671C69.929 74.8672 69.9289 74.8673 69.9289 74.8674L69.9289 74.8673L69.9291 74.8671ZM67.8498 70.1029C67.8497 70.1031 67.8496 70.1033 67.8495 70.1035L67.8496 70.1033L67.8498 70.1029ZM67.851 69.9223L67.8511 69.9224Z" fill="#342B4C"/>
<path d="M11.5035 26.9493H0L27.7758 82.6255H39.5615L47.4759 66.6993L55.6624 82.6255H67.4482L53.4141 54.979L61.6007 38.9721L69.7872 54.979L75.4533 42.936L67.6297 26.9493H55.5717L47.5666 42.936L34.6113 17.6396L27.685 26.9493L41.6384 54.979L33.5829 70.7641L11.5035 26.9493Z" fill="#342B4C"/>
</g>
<defs>
<clipPath id="clip0_3626_21549">
<rect width="100" height="100" fill="white"/>
</clipPath>
</defs>
</svg>
